M48
; DRILL file {KiCad 7.0.7} date Sat Sep 16 13:59:39 2023
; FORMAT={-:-/ absolute / metric / decimal}
; #@! TF.CreationDate,2023-09-16T13:59:39+03:00
; #@! TF.GenerationSoftware,Kicad,Pcbnew,7.0.7
; #@! TF.FileFunction,Plated,1,2,PTH
FMAT,2
METRIC
; #@! TA.AperFunction,Plated,PTH,ViaDrill
T1C0.400
; #@! TA.AperFunction,Plated,PTH,ComponentDrill
T2C0.700
; #@! TA.AperFunction,Plated,PTH,ComponentDrill
T3C0.750
; #@! TA.AperFunction,Plated,PTH,ComponentDrill
T4C0.800
; #@! TA.AperFunction,Plated,PTH,ComponentDrill
T5C0.900
; #@! TA.AperFunction,Plated,PTH,ComponentDrill
T6C1.000
%
G90
G05
T1
X119.842Y-79.5
X132.5Y-89.5
X133.541Y-79.5
X135.0Y-82.0
X136.0Y-80.5
X136.25Y-76.75
X138.5Y-81.0
X144.0Y-88.0
X151.0Y-91.0
X154.0Y-84.0
X155.0Y-85.0
T3
X156.73Y-89.64
X158.0Y-89.64
X159.27Y-89.64
T4
X116.69Y-88.5
X116.69Y-92.5
X124.31Y-88.5
X124.31Y-92.5
X129.19Y-88.5
X129.19Y-92.5
X136.81Y-88.5
X136.81Y-92.5
T5
X112.735Y-101.5
X115.275Y-101.5
X120.735Y-101.5
X123.275Y-101.5
X136.735Y-101.5
X139.275Y-101.5
X143.337Y-76.06
X143.337Y-78.6
X143.337Y-81.14
X144.735Y-101.5
X147.275Y-101.5
X157.848Y-76.2
X157.848Y-78.3
X157.848Y-80.9
X157.848Y-83.0
X160.348Y-76.2
X160.348Y-78.3
X160.348Y-80.5
X160.348Y-83.0
T6
X114.762Y-73.685
X114.762Y-96.545
X117.302Y-73.685
X117.302Y-96.545
X119.842Y-73.685
X119.842Y-96.545
X122.382Y-73.685
X122.382Y-96.545
X124.922Y-73.685
X124.922Y-96.545
X127.462Y-73.685
X127.462Y-96.545
X130.002Y-73.685
X130.002Y-96.545
X132.542Y-73.685
X132.542Y-96.545
X141.2Y-93.5
X148.8Y-93.5
T2
X154.048Y-80.35G85X154.048Y-78.85
G05
X154.098Y-72.85G85X155.598Y-72.85
G05
X154.098Y-86.35G85X155.598Y-86.35
G05
T0
M30
