%TF.GenerationSoftware,KiCad,Pcbnew,7.0.7*%
%TF.CreationDate,2023-09-16T13:59:36+03:00*%
%TF.ProjectId,ElectraWifi,456c6563-7472-4615-9769-66692e6b6963,rev?*%
%TF.SameCoordinates,Original*%
%TF.FileFunction,Copper,L1,Top*%
%TF.FilePolarity,Positive*%
%FSLAX46Y46*%
G04 Gerber Fmt 4.6, Leading zero omitted, Abs format (unit mm)*
G04 Created by KiCad (PCBNEW 7.0.7) date 2023-09-16 13:59:36*
%MOMM*%
%LPD*%
G01*
G04 APERTURE LIST*
G04 Aperture macros list*
%AMRoundRect*
0 Rectangle with rounded corners*
0 $1 Rounding radius*
0 $2 $3 $4 $5 $6 $7 $8 $9 X,Y pos of 4 corners*
0 Add a 4 corners polygon primitive as box body*
4,1,4,$2,$3,$4,$5,$6,$7,$8,$9,$2,$3,0*
0 Add four circle primitives for the rounded corners*
1,1,$1+$1,$2,$3*
1,1,$1+$1,$4,$5*
1,1,$1+$1,$6,$7*
1,1,$1+$1,$8,$9*
0 Add four rect primitives between the rounded corners*
20,1,$1+$1,$2,$3,$4,$5,0*
20,1,$1+$1,$4,$5,$6,$7,0*
20,1,$1+$1,$6,$7,$8,$9,0*
20,1,$1+$1,$8,$9,$2,$3,0*%
G04 Aperture macros list end*
%TA.AperFunction,ComponentPad*%
%ADD10R,1.408000X1.408000*%
%TD*%
%TA.AperFunction,ComponentPad*%
%ADD11C,1.408000*%
%TD*%
%TA.AperFunction,ComponentPad*%
%ADD12O,1.230000X2.730000*%
%TD*%
%TA.AperFunction,ComponentPad*%
%ADD13O,2.730000X1.230000*%
%TD*%
%TA.AperFunction,ComponentPad*%
%ADD14O,1.600000X2.000000*%
%TD*%
%TA.AperFunction,ComponentPad*%
%ADD15R,2.000000X2.000000*%
%TD*%
%TA.AperFunction,ComponentPad*%
%ADD16R,1.800000X1.800000*%
%TD*%
%TA.AperFunction,ComponentPad*%
%ADD17C,1.800000*%
%TD*%
%TA.AperFunction,ComponentPad*%
%ADD18O,1.050000X1.500000*%
%TD*%
%TA.AperFunction,ComponentPad*%
%ADD19R,1.050000X1.500000*%
%TD*%
%TA.AperFunction,ComponentPad*%
%ADD20RoundRect,0.248400X0.651600X-0.651600X0.651600X0.651600X-0.651600X0.651600X-0.651600X-0.651600X0*%
%TD*%
%TA.AperFunction,ComponentPad*%
%ADD21C,2.000000*%
%TD*%
%TA.AperFunction,ComponentPad*%
%ADD22C,1.600000*%
%TD*%
%TA.AperFunction,ComponentPad*%
%ADD23O,1.600000X1.600000*%
%TD*%
%TA.AperFunction,ViaPad*%
%ADD24C,0.800000*%
%TD*%
%TA.AperFunction,Conductor*%
%ADD25C,0.600000*%
%TD*%
%TA.AperFunction,Conductor*%
%ADD26C,0.300000*%
%TD*%
%TA.AperFunction,Conductor*%
%ADD27C,0.900000*%
%TD*%
G04 APERTURE END LIST*
D10*
%TO.P,J1,1,1*%
%TO.N,heat_led*%
X157848000Y-78300000D03*
D11*
%TO.P,J1,2,2*%
%TO.N,IR_to_ac*%
X157848000Y-80900000D03*
%TO.P,J1,3,3*%
%TO.N,+5V*%
X157848000Y-76200000D03*
%TO.P,J1,4,4*%
%TO.N,beep*%
X160348000Y-78300000D03*
%TO.P,J1,5,5*%
%TO.N,power_led*%
X157848000Y-83000000D03*
%TO.P,J1,6,6*%
%TO.N,timer_led*%
X160348000Y-76200000D03*
%TO.P,J1,7,7*%
%TO.N,button*%
X160348000Y-80500000D03*
%TO.P,J1,8,8*%
%TO.N,cool_led*%
X160348000Y-83000000D03*
D12*
%TO.P,J1,S1,SHIELD*%
%TO.N,GND*%
X154048000Y-79600000D03*
D13*
%TO.P,J1,S2,SHIELD__1*%
%TO.N,unconnected-(J1-SHIELD__1-PadS2)*%
X154848000Y-86350000D03*
%TO.P,J1,S3,SHIELD__2*%
%TO.N,unconnected-(J1-SHIELD__2-PadS3)*%
X154848000Y-72850000D03*
%TD*%
D14*
%TO.P,U1,16,TX*%
%TO.N,unconnected-(U1-TX-Pad16)*%
X114762000Y-73685000D03*
%TO.P,U1,15,RX*%
%TO.N,unconnected-(U1-RX-Pad15)*%
X117302000Y-73685000D03*
%TO.P,U1,14,SCL/D1*%
%TO.N,power_led*%
X119842000Y-73685000D03*
%TO.P,U1,13,SDA/D2*%
%TO.N,IR_from_esp*%
X122382000Y-73685000D03*
%TO.P,U1,12,D3*%
%TO.N,unconnected-(U1-D3-Pad12)*%
X124922000Y-73685000D03*
%TO.P,U1,11,D4*%
%TO.N,unconnected-(U1-D4-Pad11)*%
X127462000Y-73685000D03*
%TO.P,U1,10,GND*%
%TO.N,GND*%
X130002000Y-73685000D03*
%TO.P,U1,9,5V*%
%TO.N,+5V*%
X132542000Y-73685000D03*
%TO.P,U1,8,3V3*%
%TO.N,+3.3V*%
X132542000Y-96545000D03*
%TO.P,U1,7,CS/D8*%
%TO.N,unconnected-(U1-CS{slash}D8-Pad7)*%
X130002000Y-96545000D03*
%TO.P,U1,6,MOSI/D7*%
%TO.N,unconnected-(U1-MOSI{slash}D7-Pad6)*%
X127462000Y-96545000D03*
%TO.P,U1,5,MISO/D6*%
%TO.N,unconnected-(U1-MISO{slash}D6-Pad5)*%
X124922000Y-96545000D03*
%TO.P,U1,4,SCK/D5*%
%TO.N,IR_receive*%
X122382000Y-96545000D03*
%TO.P,U1,3,D0*%
%TO.N,unconnected-(U1-D0-Pad3)*%
X119842000Y-96545000D03*
%TO.P,U1,2,A0*%
%TO.N,unconnected-(U1-A0-Pad2)*%
X117302000Y-96545000D03*
D15*
%TO.P,U1,1,~{RST}*%
%TO.N,unconnected-(U1-~{RST}-Pad1)*%
X114762000Y-96545000D03*
%TD*%
D16*
%TO.P,D2,1,K*%
%TO.N,cool_led*%
X139275000Y-101500000D03*
D17*
%TO.P,D2,2,A*%
%TO.N,+5V*%
X136735000Y-101500000D03*
%TD*%
D18*
%TO.P,Q1,3,C*%
%TO.N,Net-(Q1-C)*%
X156730000Y-89640000D03*
%TO.P,Q1,2,B*%
%TO.N,Net-(Q1-B)*%
X158000000Y-89640000D03*
D19*
%TO.P,Q1,1,E*%
%TO.N,GND*%
X159270000Y-89640000D03*
%TD*%
D20*
%TO.P,U2,1,OUT*%
%TO.N,IR_receive*%
X143337000Y-81140000D03*
D17*
%TO.P,U2,2,GND*%
%TO.N,GND*%
X143337000Y-78600000D03*
%TO.P,U2,3,Vs*%
%TO.N,+3.3V*%
X143337000Y-76060000D03*
%TD*%
D16*
%TO.P,D3,1,K*%
%TO.N,timer_led*%
X123275000Y-101500000D03*
D17*
%TO.P,D3,2,A*%
%TO.N,+5V*%
X120735000Y-101500000D03*
%TD*%
D16*
%TO.P,D1,1,K*%
%TO.N,heat_led*%
X147275000Y-101500000D03*
D17*
%TO.P,D1,2,A*%
%TO.N,+5V*%
X144735000Y-101500000D03*
%TD*%
D16*
%TO.P,D4,1,K*%
%TO.N,power_led*%
X115275000Y-101500000D03*
D17*
%TO.P,D4,2,A*%
%TO.N,+5V*%
X112735000Y-101500000D03*
%TD*%
D21*
%TO.P,BZ1,2,+*%
%TO.N,Net-(BZ1-+)*%
X148800000Y-93500000D03*
D15*
%TO.P,BZ1,1,-*%
%TO.N,+5V*%
X141200000Y-93500000D03*
%TD*%
D22*
%TO.P,R4,1*%
%TO.N,beep*%
X136810000Y-92500000D03*
D23*
%TO.P,R4,2*%
%TO.N,Net-(BZ1-+)*%
X129190000Y-92500000D03*
%TD*%
D22*
%TO.P,R2,1*%
%TO.N,IR_to_ac*%
X136810000Y-88500000D03*
D23*
%TO.P,R2,2*%
%TO.N,Net-(Q1-C)*%
X129190000Y-88500000D03*
%TD*%
%TO.P,R1,2*%
%TO.N,IR_from_esp*%
X116690000Y-88500000D03*
D22*
%TO.P,R1,1*%
%TO.N,Net-(Q1-B)*%
X124310000Y-88500000D03*
%TD*%
%TO.P,R3,1*%
%TO.N,Net-(BZ1-+)*%
X124310000Y-92500000D03*
D23*
%TO.P,R3,2*%
%TO.N,+5V*%
X116690000Y-92500000D03*
%TD*%
D24*
%TO.N,power_led*%
X119842000Y-79500000D03*
X136250000Y-76750000D03*
X133541500Y-79500000D03*
%TO.N,timer_led*%
X136000000Y-80500000D03*
%TO.N,Net-(Q1-B)*%
X135000000Y-82000000D03*
X144000000Y-88000000D03*
%TO.N,IR_receive*%
X132500000Y-89500000D03*
%TO.N,+3.3V*%
X138500000Y-81000000D03*
%TO.N,cool_led*%
X151000000Y-91000000D03*
%TO.N,IR_to_ac*%
X154000000Y-84000000D03*
%TO.N,beep*%
X155000000Y-85000000D03*
%TD*%
D25*
%TO.N,+5V*%
X112735000Y-101610000D02*
X115125000Y-104000000D01*
X112735000Y-101500000D02*
X112735000Y-101610000D01*
X115125000Y-104000000D02*
X120500000Y-104000000D01*
%TO.N,+3.3V*%
X132542000Y-93872101D02*
X132542000Y-96545000D01*
X128960101Y-86750000D02*
X127790000Y-87920101D01*
X127790000Y-87920101D02*
X127790000Y-89120101D01*
X127790000Y-89120101D02*
X132542000Y-93872101D01*
X132750000Y-86750000D02*
X128960101Y-86750000D01*
X138500000Y-81000000D02*
X132750000Y-86750000D01*
D26*
%TO.N,power_led*%
X155113000Y-80265000D02*
X157848000Y-83000000D01*
X151312208Y-74585000D02*
X155113000Y-78385792D01*
X155113000Y-78385792D02*
X155113000Y-80265000D01*
X138415000Y-74585000D02*
X151312208Y-74585000D01*
X136250000Y-76750000D02*
X138415000Y-74585000D01*
D27*
%TO.N,GND*%
X130002000Y-74002000D02*
X130002000Y-73685000D01*
X143337000Y-78600000D02*
X134600000Y-78600000D01*
X134600000Y-78600000D02*
X130002000Y-74002000D01*
D26*
%TO.N,power_led*%
X133541500Y-79500000D02*
X119842000Y-79500000D01*
%TO.N,timer_led*%
X130500000Y-80500000D02*
X136000000Y-80500000D01*
X121132000Y-89868000D02*
X130500000Y-80500000D01*
X121132000Y-99357000D02*
X121132000Y-89868000D01*
X123275000Y-101500000D02*
X121132000Y-99357000D01*
%TO.N,Net-(Q1-B)*%
X158000000Y-89040000D02*
X158000000Y-89640000D01*
X156960000Y-88000000D02*
X158000000Y-89040000D01*
X144000000Y-88000000D02*
X156960000Y-88000000D01*
X130810000Y-82000000D02*
X135000000Y-82000000D01*
X124310000Y-88500000D02*
X130810000Y-82000000D01*
%TO.N,IR_receive*%
X140860000Y-81140000D02*
X132500000Y-89500000D01*
X143337000Y-81140000D02*
X140860000Y-81140000D01*
%TO.N,cool_led*%
X148575000Y-91000000D02*
X151000000Y-91000000D01*
X139275000Y-100300000D02*
X148575000Y-91000000D01*
X139275000Y-101500000D02*
X139275000Y-100300000D01*
D25*
%TO.N,+5V*%
X120500000Y-104000000D02*
X136500000Y-104000000D01*
X136500000Y-104000000D02*
X142617500Y-104000000D01*
X136735000Y-101500000D02*
X136735000Y-103765000D01*
X136735000Y-103765000D02*
X136500000Y-104000000D01*
X120735000Y-103765000D02*
X120500000Y-104000000D01*
X120735000Y-101500000D02*
X120735000Y-103765000D01*
X144735000Y-101882500D02*
X144735000Y-101500000D01*
X142617500Y-104000000D02*
X144735000Y-101882500D01*
D26*
%TO.N,IR_from_esp*%
X116690000Y-80810000D02*
X122382000Y-75118000D01*
X122382000Y-75118000D02*
X122382000Y-73685000D01*
X116690000Y-88500000D02*
X116690000Y-80810000D01*
%TO.N,Net-(Q1-C)*%
X137300000Y-94500000D02*
X142160000Y-89640000D01*
X142160000Y-89640000D02*
X156730000Y-89640000D01*
X135190000Y-94500000D02*
X137300000Y-94500000D01*
X129190000Y-88500000D02*
X135190000Y-94500000D01*
%TO.N,IR_to_ac*%
X144000000Y-84000000D02*
X154000000Y-84000000D01*
X139500000Y-88500000D02*
X144000000Y-84000000D01*
X136810000Y-88500000D02*
X139500000Y-88500000D01*
%TO.N,beep*%
X144310000Y-85000000D02*
X155000000Y-85000000D01*
X136810000Y-92500000D02*
X144310000Y-85000000D01*
D25*
%TO.N,Net-(BZ1-+)*%
X124310000Y-92500000D02*
X129190000Y-92500000D01*
%TO.N,+5V*%
X136735000Y-97965000D02*
X141200000Y-93500000D01*
X136735000Y-101500000D02*
X136735000Y-97965000D01*
D27*
X151685000Y-73685000D02*
X132542000Y-73685000D01*
X154200000Y-76200000D02*
X151685000Y-73685000D01*
X157848000Y-76200000D02*
X154200000Y-76200000D01*
D25*
%TO.N,GND*%
X159270000Y-87152000D02*
X154048000Y-81930000D01*
X154048000Y-81930000D02*
X154048000Y-79600000D01*
X159270000Y-89640000D02*
X159270000Y-87152000D01*
D27*
X153048000Y-78600000D02*
X143337000Y-78600000D01*
X154048000Y-79600000D02*
X153048000Y-78600000D01*
%TD*%
M02*
