%TF.GenerationSoftware,KiCad,Pcbnew,7.0.7*%
%TF.CreationDate,2023-09-16T13:59:36+03:00*%
%TF.ProjectId,ElectraWifi,456c6563-7472-4615-9769-66692e6b6963,rev?*%
%TF.SameCoordinates,Original*%
%TF.FileFunction,Legend,Top*%
%TF.FilePolarity,Positive*%
%FSLAX46Y46*%
G04 Gerber Fmt 4.6, Leading zero omitted, Abs format (unit mm)*
G04 Created by KiCad (PCBNEW 7.0.7) date 2023-09-16 13:59:36*
%MOMM*%
%LPD*%
G01*
G04 APERTURE LIST*
G04 Aperture macros list*
%AMRoundRect*
0 Rectangle with rounded corners*
0 $1 Rounding radius*
0 $2 $3 $4 $5 $6 $7 $8 $9 X,Y pos of 4 corners*
0 Add a 4 corners polygon primitive as box body*
4,1,4,$2,$3,$4,$5,$6,$7,$8,$9,$2,$3,0*
0 Add four circle primitives for the rounded corners*
1,1,$1+$1,$2,$3*
1,1,$1+$1,$4,$5*
1,1,$1+$1,$6,$7*
1,1,$1+$1,$8,$9*
0 Add four rect primitives between the rounded corners*
20,1,$1+$1,$2,$3,$4,$5,0*
20,1,$1+$1,$4,$5,$6,$7,0*
20,1,$1+$1,$6,$7,$8,$9,0*
20,1,$1+$1,$8,$9,$2,$3,0*%
G04 Aperture macros list end*
%ADD10C,0.150000*%
%ADD11C,0.120000*%
%ADD12R,1.408000X1.408000*%
%ADD13C,1.408000*%
%ADD14O,1.230000X2.730000*%
%ADD15O,2.730000X1.230000*%
%ADD16O,1.600000X2.000000*%
%ADD17R,2.000000X2.000000*%
%ADD18R,1.800000X1.800000*%
%ADD19C,1.800000*%
%ADD20O,1.050000X1.500000*%
%ADD21R,1.050000X1.500000*%
%ADD22RoundRect,0.248400X0.651600X-0.651600X0.651600X0.651600X-0.651600X0.651600X-0.651600X-0.651600X0*%
%ADD23C,2.000000*%
%ADD24C,1.600000*%
%ADD25O,1.600000X1.600000*%
G04 APERTURE END LIST*
D10*
X99009819Y-83663220D02*
X98009819Y-83663220D01*
X98343152Y-83329887D02*
X98343152Y-82948935D01*
X98009819Y-83187030D02*
X98866961Y-83187030D01*
X98866961Y-83187030D02*
X98962200Y-83139411D01*
X98962200Y-83139411D02*
X99009819Y-83044173D01*
X99009819Y-83044173D02*
X99009819Y-82948935D01*
X99009819Y-82187030D02*
X98486009Y-82187030D01*
X98486009Y-82187030D02*
X98390771Y-82234649D01*
X98390771Y-82234649D02*
X98343152Y-82329887D01*
X98343152Y-82329887D02*
X98343152Y-82520363D01*
X98343152Y-82520363D02*
X98390771Y-82615601D01*
X98962200Y-82187030D02*
X99009819Y-82282268D01*
X99009819Y-82282268D02*
X99009819Y-82520363D01*
X99009819Y-82520363D02*
X98962200Y-82615601D01*
X98962200Y-82615601D02*
X98866961Y-82663220D01*
X98866961Y-82663220D02*
X98771723Y-82663220D01*
X98771723Y-82663220D02*
X98676485Y-82615601D01*
X98676485Y-82615601D02*
X98628866Y-82520363D01*
X98628866Y-82520363D02*
X98628866Y-82282268D01*
X98628866Y-82282268D02*
X98581247Y-82187030D01*
X98343152Y-81806077D02*
X99009819Y-81567982D01*
X98343152Y-81329887D02*
X99009819Y-81567982D01*
X99009819Y-81567982D02*
X99247914Y-81663220D01*
X99247914Y-81663220D02*
X99295533Y-81710839D01*
X99295533Y-81710839D02*
X99343152Y-81806077D01*
X98962200Y-80234648D02*
X99009819Y-80091791D01*
X99009819Y-80091791D02*
X99009819Y-79853696D01*
X99009819Y-79853696D02*
X98962200Y-79758458D01*
X98962200Y-79758458D02*
X98914580Y-79710839D01*
X98914580Y-79710839D02*
X98819342Y-79663220D01*
X98819342Y-79663220D02*
X98724104Y-79663220D01*
X98724104Y-79663220D02*
X98628866Y-79710839D01*
X98628866Y-79710839D02*
X98581247Y-79758458D01*
X98581247Y-79758458D02*
X98533628Y-79853696D01*
X98533628Y-79853696D02*
X98486009Y-80044172D01*
X98486009Y-80044172D02*
X98438390Y-80139410D01*
X98438390Y-80139410D02*
X98390771Y-80187029D01*
X98390771Y-80187029D02*
X98295533Y-80234648D01*
X98295533Y-80234648D02*
X98200295Y-80234648D01*
X98200295Y-80234648D02*
X98105057Y-80187029D01*
X98105057Y-80187029D02*
X98057438Y-80139410D01*
X98057438Y-80139410D02*
X98009819Y-80044172D01*
X98009819Y-80044172D02*
X98009819Y-79806077D01*
X98009819Y-79806077D02*
X98057438Y-79663220D01*
X99009819Y-79234648D02*
X98009819Y-79234648D01*
X99009819Y-78806077D02*
X98486009Y-78806077D01*
X98486009Y-78806077D02*
X98390771Y-78853696D01*
X98390771Y-78853696D02*
X98343152Y-78948934D01*
X98343152Y-78948934D02*
X98343152Y-79091791D01*
X98343152Y-79091791D02*
X98390771Y-79187029D01*
X98390771Y-79187029D02*
X98438390Y-79234648D01*
X98343152Y-78472743D02*
X98343152Y-78091791D01*
X98009819Y-78329886D02*
X98866961Y-78329886D01*
X98866961Y-78329886D02*
X98962200Y-78282267D01*
X98962200Y-78282267D02*
X99009819Y-78187029D01*
X99009819Y-78187029D02*
X99009819Y-78091791D01*
X99009819Y-77329886D02*
X98486009Y-77329886D01*
X98486009Y-77329886D02*
X98390771Y-77377505D01*
X98390771Y-77377505D02*
X98343152Y-77472743D01*
X98343152Y-77472743D02*
X98343152Y-77663219D01*
X98343152Y-77663219D02*
X98390771Y-77758457D01*
X98962200Y-77329886D02*
X99009819Y-77425124D01*
X99009819Y-77425124D02*
X99009819Y-77663219D01*
X99009819Y-77663219D02*
X98962200Y-77758457D01*
X98962200Y-77758457D02*
X98866961Y-77806076D01*
X98866961Y-77806076D02*
X98771723Y-77806076D01*
X98771723Y-77806076D02*
X98676485Y-77758457D01*
X98676485Y-77758457D02*
X98628866Y-77663219D01*
X98628866Y-77663219D02*
X98628866Y-77425124D01*
X98628866Y-77425124D02*
X98581247Y-77329886D01*
X99009819Y-76853695D02*
X98343152Y-76853695D01*
X98009819Y-76853695D02*
X98057438Y-76901314D01*
X98057438Y-76901314D02*
X98105057Y-76853695D01*
X98105057Y-76853695D02*
X98057438Y-76806076D01*
X98057438Y-76806076D02*
X98009819Y-76853695D01*
X98009819Y-76853695D02*
X98105057Y-76853695D01*
X98343152Y-76377505D02*
X99009819Y-76377505D01*
X98438390Y-76377505D02*
X98390771Y-76329886D01*
X98390771Y-76329886D02*
X98343152Y-76234648D01*
X98343152Y-76234648D02*
X98343152Y-76091791D01*
X98343152Y-76091791D02*
X98390771Y-75996553D01*
X98390771Y-75996553D02*
X98486009Y-75948934D01*
X98486009Y-75948934D02*
X99009819Y-75948934D01*
X99009819Y-75472743D02*
X98009819Y-75472743D01*
X98390771Y-75472743D02*
X98343152Y-75377505D01*
X98343152Y-75377505D02*
X98343152Y-75187029D01*
X98343152Y-75187029D02*
X98390771Y-75091791D01*
X98390771Y-75091791D02*
X98438390Y-75044172D01*
X98438390Y-75044172D02*
X98533628Y-74996553D01*
X98533628Y-74996553D02*
X98819342Y-74996553D01*
X98819342Y-74996553D02*
X98914580Y-75044172D01*
X98914580Y-75044172D02*
X98962200Y-75091791D01*
X98962200Y-75091791D02*
X99009819Y-75187029D01*
X99009819Y-75187029D02*
X99009819Y-75377505D01*
X99009819Y-75377505D02*
X98962200Y-75472743D01*
X98962200Y-74187029D02*
X99009819Y-74282267D01*
X99009819Y-74282267D02*
X99009819Y-74472743D01*
X99009819Y-74472743D02*
X98962200Y-74567981D01*
X98962200Y-74567981D02*
X98866961Y-74615600D01*
X98866961Y-74615600D02*
X98486009Y-74615600D01*
X98486009Y-74615600D02*
X98390771Y-74567981D01*
X98390771Y-74567981D02*
X98343152Y-74472743D01*
X98343152Y-74472743D02*
X98343152Y-74282267D01*
X98343152Y-74282267D02*
X98390771Y-74187029D01*
X98390771Y-74187029D02*
X98486009Y-74139410D01*
X98486009Y-74139410D02*
X98581247Y-74139410D01*
X98581247Y-74139410D02*
X98676485Y-74615600D01*
X99009819Y-73710838D02*
X98343152Y-73710838D01*
X98533628Y-73710838D02*
X98438390Y-73663219D01*
X98438390Y-73663219D02*
X98390771Y-73615600D01*
X98390771Y-73615600D02*
X98343152Y-73520362D01*
X98343152Y-73520362D02*
X98343152Y-73425124D01*
X98343152Y-72663219D02*
X99152676Y-72663219D01*
X99152676Y-72663219D02*
X99247914Y-72710838D01*
X99247914Y-72710838D02*
X99295533Y-72758457D01*
X99295533Y-72758457D02*
X99343152Y-72853695D01*
X99343152Y-72853695D02*
X99343152Y-72996552D01*
X99343152Y-72996552D02*
X99295533Y-73091790D01*
X98962200Y-72663219D02*
X99009819Y-72758457D01*
X99009819Y-72758457D02*
X99009819Y-72948933D01*
X99009819Y-72948933D02*
X98962200Y-73044171D01*
X98962200Y-73044171D02*
X98914580Y-73091790D01*
X98914580Y-73091790D02*
X98819342Y-73139409D01*
X98819342Y-73139409D02*
X98533628Y-73139409D01*
X98533628Y-73139409D02*
X98438390Y-73091790D01*
X98438390Y-73091790D02*
X98390771Y-73044171D01*
X98390771Y-73044171D02*
X98343152Y-72948933D01*
X98343152Y-72948933D02*
X98343152Y-72758457D01*
X98343152Y-72758457D02*
X98390771Y-72663219D01*
X99715057Y-83710839D02*
X99667438Y-83663220D01*
X99667438Y-83663220D02*
X99619819Y-83567982D01*
X99619819Y-83567982D02*
X99619819Y-83329887D01*
X99619819Y-83329887D02*
X99667438Y-83234649D01*
X99667438Y-83234649D02*
X99715057Y-83187030D01*
X99715057Y-83187030D02*
X99810295Y-83139411D01*
X99810295Y-83139411D02*
X99905533Y-83139411D01*
X99905533Y-83139411D02*
X100048390Y-83187030D01*
X100048390Y-83187030D02*
X100619819Y-83758458D01*
X100619819Y-83758458D02*
X100619819Y-83139411D01*
X99619819Y-82520363D02*
X99619819Y-82425125D01*
X99619819Y-82425125D02*
X99667438Y-82329887D01*
X99667438Y-82329887D02*
X99715057Y-82282268D01*
X99715057Y-82282268D02*
X99810295Y-82234649D01*
X99810295Y-82234649D02*
X100000771Y-82187030D01*
X100000771Y-82187030D02*
X100238866Y-82187030D01*
X100238866Y-82187030D02*
X100429342Y-82234649D01*
X100429342Y-82234649D02*
X100524580Y-82282268D01*
X100524580Y-82282268D02*
X100572200Y-82329887D01*
X100572200Y-82329887D02*
X100619819Y-82425125D01*
X100619819Y-82425125D02*
X100619819Y-82520363D01*
X100619819Y-82520363D02*
X100572200Y-82615601D01*
X100572200Y-82615601D02*
X100524580Y-82663220D01*
X100524580Y-82663220D02*
X100429342Y-82710839D01*
X100429342Y-82710839D02*
X100238866Y-82758458D01*
X100238866Y-82758458D02*
X100000771Y-82758458D01*
X100000771Y-82758458D02*
X99810295Y-82710839D01*
X99810295Y-82710839D02*
X99715057Y-82663220D01*
X99715057Y-82663220D02*
X99667438Y-82615601D01*
X99667438Y-82615601D02*
X99619819Y-82520363D01*
X99715057Y-81806077D02*
X99667438Y-81758458D01*
X99667438Y-81758458D02*
X99619819Y-81663220D01*
X99619819Y-81663220D02*
X99619819Y-81425125D01*
X99619819Y-81425125D02*
X99667438Y-81329887D01*
X99667438Y-81329887D02*
X99715057Y-81282268D01*
X99715057Y-81282268D02*
X99810295Y-81234649D01*
X99810295Y-81234649D02*
X99905533Y-81234649D01*
X99905533Y-81234649D02*
X100048390Y-81282268D01*
X100048390Y-81282268D02*
X100619819Y-81853696D01*
X100619819Y-81853696D02*
X100619819Y-81234649D01*
X99619819Y-80901315D02*
X99619819Y-80282268D01*
X99619819Y-80282268D02*
X100000771Y-80615601D01*
X100000771Y-80615601D02*
X100000771Y-80472744D01*
X100000771Y-80472744D02*
X100048390Y-80377506D01*
X100048390Y-80377506D02*
X100096009Y-80329887D01*
X100096009Y-80329887D02*
X100191247Y-80282268D01*
X100191247Y-80282268D02*
X100429342Y-80282268D01*
X100429342Y-80282268D02*
X100524580Y-80329887D01*
X100524580Y-80329887D02*
X100572200Y-80377506D01*
X100572200Y-80377506D02*
X100619819Y-80472744D01*
X100619819Y-80472744D02*
X100619819Y-80758458D01*
X100619819Y-80758458D02*
X100572200Y-80853696D01*
X100572200Y-80853696D02*
X100524580Y-80901315D01*
X104954819Y-74261904D02*
X105764342Y-74261904D01*
X105764342Y-74261904D02*
X105859580Y-74214285D01*
X105859580Y-74214285D02*
X105907200Y-74166666D01*
X105907200Y-74166666D02*
X105954819Y-74071428D01*
X105954819Y-74071428D02*
X105954819Y-73880952D01*
X105954819Y-73880952D02*
X105907200Y-73785714D01*
X105907200Y-73785714D02*
X105859580Y-73738095D01*
X105859580Y-73738095D02*
X105764342Y-73690476D01*
X105764342Y-73690476D02*
X104954819Y-73690476D01*
X105954819Y-72690476D02*
X105954819Y-73261904D01*
X105954819Y-72976190D02*
X104954819Y-72976190D01*
X104954819Y-72976190D02*
X105097676Y-73071428D01*
X105097676Y-73071428D02*
X105192914Y-73166666D01*
X105192914Y-73166666D02*
X105240533Y-73261904D01*
X104454819Y-91119046D02*
X105454819Y-90880951D01*
X105454819Y-90880951D02*
X104740533Y-90690475D01*
X104740533Y-90690475D02*
X105454819Y-90499999D01*
X105454819Y-90499999D02*
X104454819Y-90261904D01*
X105407200Y-89499999D02*
X105454819Y-89595237D01*
X105454819Y-89595237D02*
X105454819Y-89785713D01*
X105454819Y-89785713D02*
X105407200Y-89880951D01*
X105407200Y-89880951D02*
X105311961Y-89928570D01*
X105311961Y-89928570D02*
X104931009Y-89928570D01*
X104931009Y-89928570D02*
X104835771Y-89880951D01*
X104835771Y-89880951D02*
X104788152Y-89785713D01*
X104788152Y-89785713D02*
X104788152Y-89595237D01*
X104788152Y-89595237D02*
X104835771Y-89499999D01*
X104835771Y-89499999D02*
X104931009Y-89452380D01*
X104931009Y-89452380D02*
X105026247Y-89452380D01*
X105026247Y-89452380D02*
X105121485Y-89928570D01*
X105454819Y-89023808D02*
X104454819Y-89023808D01*
X104454819Y-89023808D02*
X105169104Y-88690475D01*
X105169104Y-88690475D02*
X104454819Y-88357142D01*
X104454819Y-88357142D02*
X105454819Y-88357142D01*
X105454819Y-87738094D02*
X105407200Y-87833332D01*
X105407200Y-87833332D02*
X105359580Y-87880951D01*
X105359580Y-87880951D02*
X105264342Y-87928570D01*
X105264342Y-87928570D02*
X104978628Y-87928570D01*
X104978628Y-87928570D02*
X104883390Y-87880951D01*
X104883390Y-87880951D02*
X104835771Y-87833332D01*
X104835771Y-87833332D02*
X104788152Y-87738094D01*
X104788152Y-87738094D02*
X104788152Y-87595237D01*
X104788152Y-87595237D02*
X104835771Y-87499999D01*
X104835771Y-87499999D02*
X104883390Y-87452380D01*
X104883390Y-87452380D02*
X104978628Y-87404761D01*
X104978628Y-87404761D02*
X105264342Y-87404761D01*
X105264342Y-87404761D02*
X105359580Y-87452380D01*
X105359580Y-87452380D02*
X105407200Y-87499999D01*
X105407200Y-87499999D02*
X105454819Y-87595237D01*
X105454819Y-87595237D02*
X105454819Y-87738094D01*
X105407200Y-87023808D02*
X105454819Y-86928570D01*
X105454819Y-86928570D02*
X105454819Y-86738094D01*
X105454819Y-86738094D02*
X105407200Y-86642856D01*
X105407200Y-86642856D02*
X105311961Y-86595237D01*
X105311961Y-86595237D02*
X105264342Y-86595237D01*
X105264342Y-86595237D02*
X105169104Y-86642856D01*
X105169104Y-86642856D02*
X105121485Y-86738094D01*
X105121485Y-86738094D02*
X105121485Y-86880951D01*
X105121485Y-86880951D02*
X105073866Y-86976189D01*
X105073866Y-86976189D02*
X104978628Y-87023808D01*
X104978628Y-87023808D02*
X104931009Y-87023808D01*
X104931009Y-87023808D02*
X104835771Y-86976189D01*
X104835771Y-86976189D02*
X104788152Y-86880951D01*
X104788152Y-86880951D02*
X104788152Y-86738094D01*
X104788152Y-86738094D02*
X104835771Y-86642856D01*
X105550057Y-86404761D02*
X105550057Y-85642856D01*
X105454819Y-85404760D02*
X104454819Y-85404760D01*
X104454819Y-85404760D02*
X104454819Y-85166665D01*
X104454819Y-85166665D02*
X104502438Y-85023808D01*
X104502438Y-85023808D02*
X104597676Y-84928570D01*
X104597676Y-84928570D02*
X104692914Y-84880951D01*
X104692914Y-84880951D02*
X104883390Y-84833332D01*
X104883390Y-84833332D02*
X105026247Y-84833332D01*
X105026247Y-84833332D02*
X105216723Y-84880951D01*
X105216723Y-84880951D02*
X105311961Y-84928570D01*
X105311961Y-84928570D02*
X105407200Y-85023808D01*
X105407200Y-85023808D02*
X105454819Y-85166665D01*
X105454819Y-85166665D02*
X105454819Y-85404760D01*
X105454819Y-83880951D02*
X105454819Y-84452379D01*
X105454819Y-84166665D02*
X104454819Y-84166665D01*
X104454819Y-84166665D02*
X104597676Y-84261903D01*
X104597676Y-84261903D02*
X104692914Y-84357141D01*
X104692914Y-84357141D02*
X104740533Y-84452379D01*
X105550057Y-83690475D02*
X105550057Y-82928570D01*
X105454819Y-82690474D02*
X104788152Y-82690474D01*
X104883390Y-82690474D02*
X104835771Y-82642855D01*
X104835771Y-82642855D02*
X104788152Y-82547617D01*
X104788152Y-82547617D02*
X104788152Y-82404760D01*
X104788152Y-82404760D02*
X104835771Y-82309522D01*
X104835771Y-82309522D02*
X104931009Y-82261903D01*
X104931009Y-82261903D02*
X105454819Y-82261903D01*
X104931009Y-82261903D02*
X104835771Y-82214284D01*
X104835771Y-82214284D02*
X104788152Y-82119046D01*
X104788152Y-82119046D02*
X104788152Y-81976189D01*
X104788152Y-81976189D02*
X104835771Y-81880950D01*
X104835771Y-81880950D02*
X104931009Y-81833331D01*
X104931009Y-81833331D02*
X105454819Y-81833331D01*
X105454819Y-81357141D02*
X104788152Y-81357141D01*
X104454819Y-81357141D02*
X104502438Y-81404760D01*
X104502438Y-81404760D02*
X104550057Y-81357141D01*
X104550057Y-81357141D02*
X104502438Y-81309522D01*
X104502438Y-81309522D02*
X104454819Y-81357141D01*
X104454819Y-81357141D02*
X104550057Y-81357141D01*
X104788152Y-80880951D02*
X105454819Y-80880951D01*
X104883390Y-80880951D02*
X104835771Y-80833332D01*
X104835771Y-80833332D02*
X104788152Y-80738094D01*
X104788152Y-80738094D02*
X104788152Y-80595237D01*
X104788152Y-80595237D02*
X104835771Y-80499999D01*
X104835771Y-80499999D02*
X104931009Y-80452380D01*
X104931009Y-80452380D02*
X105454819Y-80452380D01*
X105454819Y-79976189D02*
X104788152Y-79976189D01*
X104454819Y-79976189D02*
X104502438Y-80023808D01*
X104502438Y-80023808D02*
X104550057Y-79976189D01*
X104550057Y-79976189D02*
X104502438Y-79928570D01*
X104502438Y-79928570D02*
X104454819Y-79976189D01*
X104454819Y-79976189D02*
X104550057Y-79976189D01*
X137266905Y-104914819D02*
X137266905Y-103914819D01*
X137266905Y-103914819D02*
X137505000Y-103914819D01*
X137505000Y-103914819D02*
X137647857Y-103962438D01*
X137647857Y-103962438D02*
X137743095Y-104057676D01*
X137743095Y-104057676D02*
X137790714Y-104152914D01*
X137790714Y-104152914D02*
X137838333Y-104343390D01*
X137838333Y-104343390D02*
X137838333Y-104486247D01*
X137838333Y-104486247D02*
X137790714Y-104676723D01*
X137790714Y-104676723D02*
X137743095Y-104771961D01*
X137743095Y-104771961D02*
X137647857Y-104867200D01*
X137647857Y-104867200D02*
X137505000Y-104914819D01*
X137505000Y-104914819D02*
X137266905Y-104914819D01*
X138219286Y-104010057D02*
X138266905Y-103962438D01*
X138266905Y-103962438D02*
X138362143Y-103914819D01*
X138362143Y-103914819D02*
X138600238Y-103914819D01*
X138600238Y-103914819D02*
X138695476Y-103962438D01*
X138695476Y-103962438D02*
X138743095Y-104010057D01*
X138743095Y-104010057D02*
X138790714Y-104105295D01*
X138790714Y-104105295D02*
X138790714Y-104200533D01*
X138790714Y-104200533D02*
X138743095Y-104343390D01*
X138743095Y-104343390D02*
X138171667Y-104914819D01*
X138171667Y-104914819D02*
X138790714Y-104914819D01*
X135109580Y-102642857D02*
X135157200Y-102690476D01*
X135157200Y-102690476D02*
X135204819Y-102833333D01*
X135204819Y-102833333D02*
X135204819Y-102928571D01*
X135204819Y-102928571D02*
X135157200Y-103071428D01*
X135157200Y-103071428D02*
X135061961Y-103166666D01*
X135061961Y-103166666D02*
X134966723Y-103214285D01*
X134966723Y-103214285D02*
X134776247Y-103261904D01*
X134776247Y-103261904D02*
X134633390Y-103261904D01*
X134633390Y-103261904D02*
X134442914Y-103214285D01*
X134442914Y-103214285D02*
X134347676Y-103166666D01*
X134347676Y-103166666D02*
X134252438Y-103071428D01*
X134252438Y-103071428D02*
X134204819Y-102928571D01*
X134204819Y-102928571D02*
X134204819Y-102833333D01*
X134204819Y-102833333D02*
X134252438Y-102690476D01*
X134252438Y-102690476D02*
X134300057Y-102642857D01*
X134204819Y-102023809D02*
X134204819Y-101833333D01*
X134204819Y-101833333D02*
X134252438Y-101738095D01*
X134252438Y-101738095D02*
X134347676Y-101642857D01*
X134347676Y-101642857D02*
X134538152Y-101595238D01*
X134538152Y-101595238D02*
X134871485Y-101595238D01*
X134871485Y-101595238D02*
X135061961Y-101642857D01*
X135061961Y-101642857D02*
X135157200Y-101738095D01*
X135157200Y-101738095D02*
X135204819Y-101833333D01*
X135204819Y-101833333D02*
X135204819Y-102023809D01*
X135204819Y-102023809D02*
X135157200Y-102119047D01*
X135157200Y-102119047D02*
X135061961Y-102214285D01*
X135061961Y-102214285D02*
X134871485Y-102261904D01*
X134871485Y-102261904D02*
X134538152Y-102261904D01*
X134538152Y-102261904D02*
X134347676Y-102214285D01*
X134347676Y-102214285D02*
X134252438Y-102119047D01*
X134252438Y-102119047D02*
X134204819Y-102023809D01*
X134204819Y-100976190D02*
X134204819Y-100785714D01*
X134204819Y-100785714D02*
X134252438Y-100690476D01*
X134252438Y-100690476D02*
X134347676Y-100595238D01*
X134347676Y-100595238D02*
X134538152Y-100547619D01*
X134538152Y-100547619D02*
X134871485Y-100547619D01*
X134871485Y-100547619D02*
X135061961Y-100595238D01*
X135061961Y-100595238D02*
X135157200Y-100690476D01*
X135157200Y-100690476D02*
X135204819Y-100785714D01*
X135204819Y-100785714D02*
X135204819Y-100976190D01*
X135204819Y-100976190D02*
X135157200Y-101071428D01*
X135157200Y-101071428D02*
X135061961Y-101166666D01*
X135061961Y-101166666D02*
X134871485Y-101214285D01*
X134871485Y-101214285D02*
X134538152Y-101214285D01*
X134538152Y-101214285D02*
X134347676Y-101166666D01*
X134347676Y-101166666D02*
X134252438Y-101071428D01*
X134252438Y-101071428D02*
X134204819Y-100976190D01*
X135204819Y-99642857D02*
X135204819Y-100119047D01*
X135204819Y-100119047D02*
X134204819Y-100119047D01*
X157404761Y-93750057D02*
X157309523Y-93702438D01*
X157309523Y-93702438D02*
X157214285Y-93607200D01*
X157214285Y-93607200D02*
X157071428Y-93464342D01*
X157071428Y-93464342D02*
X156976190Y-93416723D01*
X156976190Y-93416723D02*
X156880952Y-93416723D01*
X156928571Y-93654819D02*
X156833333Y-93607200D01*
X156833333Y-93607200D02*
X156738095Y-93511961D01*
X156738095Y-93511961D02*
X156690476Y-93321485D01*
X156690476Y-93321485D02*
X156690476Y-92988152D01*
X156690476Y-92988152D02*
X156738095Y-92797676D01*
X156738095Y-92797676D02*
X156833333Y-92702438D01*
X156833333Y-92702438D02*
X156928571Y-92654819D01*
X156928571Y-92654819D02*
X157119047Y-92654819D01*
X157119047Y-92654819D02*
X157214285Y-92702438D01*
X157214285Y-92702438D02*
X157309523Y-92797676D01*
X157309523Y-92797676D02*
X157357142Y-92988152D01*
X157357142Y-92988152D02*
X157357142Y-93321485D01*
X157357142Y-93321485D02*
X157309523Y-93511961D01*
X157309523Y-93511961D02*
X157214285Y-93607200D01*
X157214285Y-93607200D02*
X157119047Y-93654819D01*
X157119047Y-93654819D02*
X156928571Y-93654819D01*
X158309523Y-93654819D02*
X157738095Y-93654819D01*
X158023809Y-93654819D02*
X158023809Y-92654819D01*
X158023809Y-92654819D02*
X157928571Y-92797676D01*
X157928571Y-92797676D02*
X157833333Y-92892914D01*
X157833333Y-92892914D02*
X157738095Y-92940533D01*
X156785714Y-86400057D02*
X156833333Y-86352438D01*
X156833333Y-86352438D02*
X156928571Y-86304819D01*
X156928571Y-86304819D02*
X157166666Y-86304819D01*
X157166666Y-86304819D02*
X157261904Y-86352438D01*
X157261904Y-86352438D02*
X157309523Y-86400057D01*
X157309523Y-86400057D02*
X157357142Y-86495295D01*
X157357142Y-86495295D02*
X157357142Y-86590533D01*
X157357142Y-86590533D02*
X157309523Y-86733390D01*
X157309523Y-86733390D02*
X156738095Y-87304819D01*
X156738095Y-87304819D02*
X157357142Y-87304819D01*
X157785714Y-87304819D02*
X157785714Y-86304819D01*
X157785714Y-86304819D02*
X158357142Y-87304819D01*
X158357142Y-87304819D02*
X158357142Y-86304819D01*
X158738095Y-86304819D02*
X159357142Y-86304819D01*
X159357142Y-86304819D02*
X159023809Y-86685771D01*
X159023809Y-86685771D02*
X159166666Y-86685771D01*
X159166666Y-86685771D02*
X159261904Y-86733390D01*
X159261904Y-86733390D02*
X159309523Y-86781009D01*
X159309523Y-86781009D02*
X159357142Y-86876247D01*
X159357142Y-86876247D02*
X159357142Y-87114342D01*
X159357142Y-87114342D02*
X159309523Y-87209580D01*
X159309523Y-87209580D02*
X159261904Y-87257200D01*
X159261904Y-87257200D02*
X159166666Y-87304819D01*
X159166666Y-87304819D02*
X158880952Y-87304819D01*
X158880952Y-87304819D02*
X158785714Y-87257200D01*
X158785714Y-87257200D02*
X158738095Y-87209580D01*
X159833333Y-87304819D02*
X160023809Y-87304819D01*
X160023809Y-87304819D02*
X160119047Y-87257200D01*
X160119047Y-87257200D02*
X160166666Y-87209580D01*
X160166666Y-87209580D02*
X160261904Y-87066723D01*
X160261904Y-87066723D02*
X160309523Y-86876247D01*
X160309523Y-86876247D02*
X160309523Y-86495295D01*
X160309523Y-86495295D02*
X160261904Y-86400057D01*
X160261904Y-86400057D02*
X160214285Y-86352438D01*
X160214285Y-86352438D02*
X160119047Y-86304819D01*
X160119047Y-86304819D02*
X159928571Y-86304819D01*
X159928571Y-86304819D02*
X159833333Y-86352438D01*
X159833333Y-86352438D02*
X159785714Y-86400057D01*
X159785714Y-86400057D02*
X159738095Y-86495295D01*
X159738095Y-86495295D02*
X159738095Y-86733390D01*
X159738095Y-86733390D02*
X159785714Y-86828628D01*
X159785714Y-86828628D02*
X159833333Y-86876247D01*
X159833333Y-86876247D02*
X159928571Y-86923866D01*
X159928571Y-86923866D02*
X160119047Y-86923866D01*
X160119047Y-86923866D02*
X160214285Y-86876247D01*
X160214285Y-86876247D02*
X160261904Y-86828628D01*
X160261904Y-86828628D02*
X160309523Y-86733390D01*
X160928571Y-86304819D02*
X161023809Y-86304819D01*
X161023809Y-86304819D02*
X161119047Y-86352438D01*
X161119047Y-86352438D02*
X161166666Y-86400057D01*
X161166666Y-86400057D02*
X161214285Y-86495295D01*
X161214285Y-86495295D02*
X161261904Y-86685771D01*
X161261904Y-86685771D02*
X161261904Y-86923866D01*
X161261904Y-86923866D02*
X161214285Y-87114342D01*
X161214285Y-87114342D02*
X161166666Y-87209580D01*
X161166666Y-87209580D02*
X161119047Y-87257200D01*
X161119047Y-87257200D02*
X161023809Y-87304819D01*
X161023809Y-87304819D02*
X160928571Y-87304819D01*
X160928571Y-87304819D02*
X160833333Y-87257200D01*
X160833333Y-87257200D02*
X160785714Y-87209580D01*
X160785714Y-87209580D02*
X160738095Y-87114342D01*
X160738095Y-87114342D02*
X160690476Y-86923866D01*
X160690476Y-86923866D02*
X160690476Y-86685771D01*
X160690476Y-86685771D02*
X160738095Y-86495295D01*
X160738095Y-86495295D02*
X160785714Y-86400057D01*
X160785714Y-86400057D02*
X160833333Y-86352438D01*
X160833333Y-86352438D02*
X160928571Y-86304819D01*
X162119047Y-86638152D02*
X162119047Y-87304819D01*
X161880952Y-86257200D02*
X161642857Y-86971485D01*
X161642857Y-86971485D02*
X162261904Y-86971485D01*
X141988095Y-82454819D02*
X141988095Y-83264342D01*
X141988095Y-83264342D02*
X142035714Y-83359580D01*
X142035714Y-83359580D02*
X142083333Y-83407200D01*
X142083333Y-83407200D02*
X142178571Y-83454819D01*
X142178571Y-83454819D02*
X142369047Y-83454819D01*
X142369047Y-83454819D02*
X142464285Y-83407200D01*
X142464285Y-83407200D02*
X142511904Y-83359580D01*
X142511904Y-83359580D02*
X142559523Y-83264342D01*
X142559523Y-83264342D02*
X142559523Y-82454819D01*
X142988095Y-82550057D02*
X143035714Y-82502438D01*
X143035714Y-82502438D02*
X143130952Y-82454819D01*
X143130952Y-82454819D02*
X143369047Y-82454819D01*
X143369047Y-82454819D02*
X143464285Y-82502438D01*
X143464285Y-82502438D02*
X143511904Y-82550057D01*
X143511904Y-82550057D02*
X143559523Y-82645295D01*
X143559523Y-82645295D02*
X143559523Y-82740533D01*
X143559523Y-82740533D02*
X143511904Y-82883390D01*
X143511904Y-82883390D02*
X142940476Y-83454819D01*
X142940476Y-83454819D02*
X143559523Y-83454819D01*
X147791819Y-82187618D02*
X147791819Y-81616190D01*
X148791819Y-81901904D02*
X147791819Y-81901904D01*
X148744200Y-81330475D02*
X148791819Y-81187618D01*
X148791819Y-81187618D02*
X148791819Y-80949523D01*
X148791819Y-80949523D02*
X148744200Y-80854285D01*
X148744200Y-80854285D02*
X148696580Y-80806666D01*
X148696580Y-80806666D02*
X148601342Y-80759047D01*
X148601342Y-80759047D02*
X148506104Y-80759047D01*
X148506104Y-80759047D02*
X148410866Y-80806666D01*
X148410866Y-80806666D02*
X148363247Y-80854285D01*
X148363247Y-80854285D02*
X148315628Y-80949523D01*
X148315628Y-80949523D02*
X148268009Y-81139999D01*
X148268009Y-81139999D02*
X148220390Y-81235237D01*
X148220390Y-81235237D02*
X148172771Y-81282856D01*
X148172771Y-81282856D02*
X148077533Y-81330475D01*
X148077533Y-81330475D02*
X147982295Y-81330475D01*
X147982295Y-81330475D02*
X147887057Y-81282856D01*
X147887057Y-81282856D02*
X147839438Y-81235237D01*
X147839438Y-81235237D02*
X147791819Y-81139999D01*
X147791819Y-81139999D02*
X147791819Y-80901904D01*
X147791819Y-80901904D02*
X147839438Y-80759047D01*
X147791819Y-80139999D02*
X147791819Y-79949523D01*
X147791819Y-79949523D02*
X147839438Y-79854285D01*
X147839438Y-79854285D02*
X147934676Y-79759047D01*
X147934676Y-79759047D02*
X148125152Y-79711428D01*
X148125152Y-79711428D02*
X148458485Y-79711428D01*
X148458485Y-79711428D02*
X148648961Y-79759047D01*
X148648961Y-79759047D02*
X148744200Y-79854285D01*
X148744200Y-79854285D02*
X148791819Y-79949523D01*
X148791819Y-79949523D02*
X148791819Y-80139999D01*
X148791819Y-80139999D02*
X148744200Y-80235237D01*
X148744200Y-80235237D02*
X148648961Y-80330475D01*
X148648961Y-80330475D02*
X148458485Y-80378094D01*
X148458485Y-80378094D02*
X148125152Y-80378094D01*
X148125152Y-80378094D02*
X147934676Y-80330475D01*
X147934676Y-80330475D02*
X147839438Y-80235237D01*
X147839438Y-80235237D02*
X147791819Y-80139999D01*
X148791819Y-79282856D02*
X147791819Y-79282856D01*
X147791819Y-79282856D02*
X147791819Y-78901904D01*
X147791819Y-78901904D02*
X147839438Y-78806666D01*
X147839438Y-78806666D02*
X147887057Y-78759047D01*
X147887057Y-78759047D02*
X147982295Y-78711428D01*
X147982295Y-78711428D02*
X148125152Y-78711428D01*
X148125152Y-78711428D02*
X148220390Y-78759047D01*
X148220390Y-78759047D02*
X148268009Y-78806666D01*
X148268009Y-78806666D02*
X148315628Y-78901904D01*
X148315628Y-78901904D02*
X148315628Y-79282856D01*
X148125152Y-77854285D02*
X148791819Y-77854285D01*
X147744200Y-78092380D02*
X148458485Y-78330475D01*
X148458485Y-78330475D02*
X148458485Y-77711428D01*
X148791819Y-76806666D02*
X148791819Y-77378094D01*
X148791819Y-77092380D02*
X147791819Y-77092380D01*
X147791819Y-77092380D02*
X147934676Y-77187618D01*
X147934676Y-77187618D02*
X148029914Y-77282856D01*
X148029914Y-77282856D02*
X148077533Y-77378094D01*
X148791819Y-76473332D02*
X148125152Y-75949523D01*
X148125152Y-76473332D02*
X148791819Y-75949523D01*
X148791819Y-75663808D02*
X148125152Y-75139999D01*
X148125152Y-75663808D02*
X148791819Y-75139999D01*
X121511905Y-105204819D02*
X121511905Y-104204819D01*
X121511905Y-104204819D02*
X121750000Y-104204819D01*
X121750000Y-104204819D02*
X121892857Y-104252438D01*
X121892857Y-104252438D02*
X121988095Y-104347676D01*
X121988095Y-104347676D02*
X122035714Y-104442914D01*
X122035714Y-104442914D02*
X122083333Y-104633390D01*
X122083333Y-104633390D02*
X122083333Y-104776247D01*
X122083333Y-104776247D02*
X122035714Y-104966723D01*
X122035714Y-104966723D02*
X121988095Y-105061961D01*
X121988095Y-105061961D02*
X121892857Y-105157200D01*
X121892857Y-105157200D02*
X121750000Y-105204819D01*
X121750000Y-105204819D02*
X121511905Y-105204819D01*
X122416667Y-104204819D02*
X123035714Y-104204819D01*
X123035714Y-104204819D02*
X122702381Y-104585771D01*
X122702381Y-104585771D02*
X122845238Y-104585771D01*
X122845238Y-104585771D02*
X122940476Y-104633390D01*
X122940476Y-104633390D02*
X122988095Y-104681009D01*
X122988095Y-104681009D02*
X123035714Y-104776247D01*
X123035714Y-104776247D02*
X123035714Y-105014342D01*
X123035714Y-105014342D02*
X122988095Y-105109580D01*
X122988095Y-105109580D02*
X122940476Y-105157200D01*
X122940476Y-105157200D02*
X122845238Y-105204819D01*
X122845238Y-105204819D02*
X122559524Y-105204819D01*
X122559524Y-105204819D02*
X122464286Y-105157200D01*
X122464286Y-105157200D02*
X122416667Y-105109580D01*
X124454819Y-103547618D02*
X124454819Y-102976190D01*
X125454819Y-103261904D02*
X124454819Y-103261904D01*
X125454819Y-102642856D02*
X124454819Y-102642856D01*
X125454819Y-102166666D02*
X124454819Y-102166666D01*
X124454819Y-102166666D02*
X125169104Y-101833333D01*
X125169104Y-101833333D02*
X124454819Y-101500000D01*
X124454819Y-101500000D02*
X125454819Y-101500000D01*
X124931009Y-101023809D02*
X124931009Y-100690476D01*
X125454819Y-100547619D02*
X125454819Y-101023809D01*
X125454819Y-101023809D02*
X124454819Y-101023809D01*
X124454819Y-101023809D02*
X124454819Y-100547619D01*
X125454819Y-99547619D02*
X124978628Y-99880952D01*
X125454819Y-100119047D02*
X124454819Y-100119047D01*
X124454819Y-100119047D02*
X124454819Y-99738095D01*
X124454819Y-99738095D02*
X124502438Y-99642857D01*
X124502438Y-99642857D02*
X124550057Y-99595238D01*
X124550057Y-99595238D02*
X124645295Y-99547619D01*
X124645295Y-99547619D02*
X124788152Y-99547619D01*
X124788152Y-99547619D02*
X124883390Y-99595238D01*
X124883390Y-99595238D02*
X124931009Y-99642857D01*
X124931009Y-99642857D02*
X124978628Y-99738095D01*
X124978628Y-99738095D02*
X124978628Y-100119047D01*
X145266905Y-104914819D02*
X145266905Y-103914819D01*
X145266905Y-103914819D02*
X145505000Y-103914819D01*
X145505000Y-103914819D02*
X145647857Y-103962438D01*
X145647857Y-103962438D02*
X145743095Y-104057676D01*
X145743095Y-104057676D02*
X145790714Y-104152914D01*
X145790714Y-104152914D02*
X145838333Y-104343390D01*
X145838333Y-104343390D02*
X145838333Y-104486247D01*
X145838333Y-104486247D02*
X145790714Y-104676723D01*
X145790714Y-104676723D02*
X145743095Y-104771961D01*
X145743095Y-104771961D02*
X145647857Y-104867200D01*
X145647857Y-104867200D02*
X145505000Y-104914819D01*
X145505000Y-104914819D02*
X145266905Y-104914819D01*
X146790714Y-104914819D02*
X146219286Y-104914819D01*
X146505000Y-104914819D02*
X146505000Y-103914819D01*
X146505000Y-103914819D02*
X146409762Y-104057676D01*
X146409762Y-104057676D02*
X146314524Y-104152914D01*
X146314524Y-104152914D02*
X146219286Y-104200533D01*
X144457381Y-98994819D02*
X144457381Y-97994819D01*
X144457381Y-98471009D02*
X145028809Y-98471009D01*
X145028809Y-98994819D02*
X145028809Y-97994819D01*
X145505000Y-98471009D02*
X145838333Y-98471009D01*
X145981190Y-98994819D02*
X145505000Y-98994819D01*
X145505000Y-98994819D02*
X145505000Y-97994819D01*
X145505000Y-97994819D02*
X145981190Y-97994819D01*
X146362143Y-98709104D02*
X146838333Y-98709104D01*
X146266905Y-98994819D02*
X146600238Y-97994819D01*
X146600238Y-97994819D02*
X146933571Y-98994819D01*
X147124048Y-97994819D02*
X147695476Y-97994819D01*
X147409762Y-98994819D02*
X147409762Y-97994819D01*
X110511905Y-99954819D02*
X110511905Y-98954819D01*
X110511905Y-98954819D02*
X110750000Y-98954819D01*
X110750000Y-98954819D02*
X110892857Y-99002438D01*
X110892857Y-99002438D02*
X110988095Y-99097676D01*
X110988095Y-99097676D02*
X111035714Y-99192914D01*
X111035714Y-99192914D02*
X111083333Y-99383390D01*
X111083333Y-99383390D02*
X111083333Y-99526247D01*
X111083333Y-99526247D02*
X111035714Y-99716723D01*
X111035714Y-99716723D02*
X110988095Y-99811961D01*
X110988095Y-99811961D02*
X110892857Y-99907200D01*
X110892857Y-99907200D02*
X110750000Y-99954819D01*
X110750000Y-99954819D02*
X110511905Y-99954819D01*
X111940476Y-99288152D02*
X111940476Y-99954819D01*
X111702381Y-98907200D02*
X111464286Y-99621485D01*
X111464286Y-99621485D02*
X112083333Y-99621485D01*
X117454819Y-103809523D02*
X116454819Y-103809523D01*
X116454819Y-103809523D02*
X116454819Y-103428571D01*
X116454819Y-103428571D02*
X116502438Y-103333333D01*
X116502438Y-103333333D02*
X116550057Y-103285714D01*
X116550057Y-103285714D02*
X116645295Y-103238095D01*
X116645295Y-103238095D02*
X116788152Y-103238095D01*
X116788152Y-103238095D02*
X116883390Y-103285714D01*
X116883390Y-103285714D02*
X116931009Y-103333333D01*
X116931009Y-103333333D02*
X116978628Y-103428571D01*
X116978628Y-103428571D02*
X116978628Y-103809523D01*
X116454819Y-102619047D02*
X116454819Y-102428571D01*
X116454819Y-102428571D02*
X116502438Y-102333333D01*
X116502438Y-102333333D02*
X116597676Y-102238095D01*
X116597676Y-102238095D02*
X116788152Y-102190476D01*
X116788152Y-102190476D02*
X117121485Y-102190476D01*
X117121485Y-102190476D02*
X117311961Y-102238095D01*
X117311961Y-102238095D02*
X117407200Y-102333333D01*
X117407200Y-102333333D02*
X117454819Y-102428571D01*
X117454819Y-102428571D02*
X117454819Y-102619047D01*
X117454819Y-102619047D02*
X117407200Y-102714285D01*
X117407200Y-102714285D02*
X117311961Y-102809523D01*
X117311961Y-102809523D02*
X117121485Y-102857142D01*
X117121485Y-102857142D02*
X116788152Y-102857142D01*
X116788152Y-102857142D02*
X116597676Y-102809523D01*
X116597676Y-102809523D02*
X116502438Y-102714285D01*
X116502438Y-102714285D02*
X116454819Y-102619047D01*
X116454819Y-101857142D02*
X117454819Y-101619047D01*
X117454819Y-101619047D02*
X116740533Y-101428571D01*
X116740533Y-101428571D02*
X117454819Y-101238095D01*
X117454819Y-101238095D02*
X116454819Y-101000000D01*
X116931009Y-100619047D02*
X116931009Y-100285714D01*
X117454819Y-100142857D02*
X117454819Y-100619047D01*
X117454819Y-100619047D02*
X116454819Y-100619047D01*
X116454819Y-100619047D02*
X116454819Y-100142857D01*
X117454819Y-99142857D02*
X116978628Y-99476190D01*
X117454819Y-99714285D02*
X116454819Y-99714285D01*
X116454819Y-99714285D02*
X116454819Y-99333333D01*
X116454819Y-99333333D02*
X116502438Y-99238095D01*
X116502438Y-99238095D02*
X116550057Y-99190476D01*
X116550057Y-99190476D02*
X116645295Y-99142857D01*
X116645295Y-99142857D02*
X116788152Y-99142857D01*
X116788152Y-99142857D02*
X116883390Y-99190476D01*
X116883390Y-99190476D02*
X116931009Y-99238095D01*
X116931009Y-99238095D02*
X116978628Y-99333333D01*
X116978628Y-99333333D02*
X116978628Y-99714285D01*
%TO.C,U1*%
X115397000Y-99085000D02*
X114127000Y-99085000D01*
X114762000Y-98450000D01*
X115397000Y-99085000D01*
G36*
X115397000Y-99085000D02*
G01*
X114127000Y-99085000D01*
X114762000Y-98450000D01*
X115397000Y-99085000D01*
G37*
D11*
X108552000Y-72185000D02*
G75*
G03*
X106422000Y-74315000I0J-2130000D01*
G01*
X106422000Y-95915000D02*
G75*
G03*
X108552000Y-98045000I2130002J2D01*
G01*
X140882000Y-72185000D02*
X108552000Y-72185000D01*
X106422000Y-74305000D02*
X106422000Y-95915000D01*
X140882000Y-95505000D02*
X140882000Y-72185000D01*
X133982000Y-95505000D02*
X140882000Y-95505000D01*
X133982000Y-98045000D02*
X133982000Y-95505000D01*
X133982000Y-98045000D02*
X108552000Y-98045000D01*
%TO.C,D2*%
X139565000Y-102736000D02*
X139565000Y-102580000D01*
X139565000Y-100420000D02*
X139565000Y-100264000D01*
X136332666Y-102578608D02*
G75*
G03*
X139564999Y-102735515I1672334J1078608D01*
G01*
X136963871Y-102579836D02*
G75*
G03*
X139045960Y-102579999I1041129J1079836D01*
G01*
X139045960Y-100420001D02*
G75*
G03*
X136963871Y-100420164I-1040960J-1079999D01*
G01*
X139564999Y-100264485D02*
G75*
G03*
X136332666Y-100421392I-1559999J-1235515D01*
G01*
%TO.C,Q1*%
X156161522Y-87801522D02*
G75*
G03*
X158000000Y-92240000I1838478J-1838478D01*
G01*
X158000000Y-92240000D02*
G75*
G03*
X159838478Y-87801522I0J2600000D01*
G01*
X159800000Y-87790000D02*
X156200000Y-87790000D01*
%TO.C,U2*%
X145637000Y-81100000D02*
X145637000Y-81320000D01*
X141977000Y-75520000D02*
X141977000Y-78600000D01*
X145637000Y-75440000D02*
X145637000Y-75900000D01*
X145637000Y-75440000D02*
X144437000Y-75440000D01*
X145637000Y-81099999D02*
G75*
G03*
X145637000Y-75900001I-1100000J2599999D01*
G01*
%TO.C,D3*%
X123565000Y-102736000D02*
X123565000Y-102580000D01*
X123565000Y-100420000D02*
X123565000Y-100264000D01*
X120332666Y-102578608D02*
G75*
G03*
X123564999Y-102735515I1672334J1078608D01*
G01*
X120963871Y-102579836D02*
G75*
G03*
X123045960Y-102579999I1041129J1079836D01*
G01*
X123045960Y-100420001D02*
G75*
G03*
X120963871Y-100420164I-1040960J-1079999D01*
G01*
X123564999Y-100264485D02*
G75*
G03*
X120332666Y-100421392I-1559999J-1235515D01*
G01*
%TO.C,D1*%
X147565000Y-102736000D02*
X147565000Y-102580000D01*
X147565000Y-100420000D02*
X147565000Y-100264000D01*
X144332666Y-102578608D02*
G75*
G03*
X147564999Y-102735515I1672334J1078608D01*
G01*
X144963871Y-102579836D02*
G75*
G03*
X147045960Y-102579999I1041129J1079836D01*
G01*
X147045960Y-100420001D02*
G75*
G03*
X144963871Y-100420164I-1040960J-1079999D01*
G01*
X147564999Y-100264485D02*
G75*
G03*
X144332666Y-100421392I-1559999J-1235515D01*
G01*
%TO.C,D4*%
X115565000Y-102736000D02*
X115565000Y-102580000D01*
X115565000Y-100420000D02*
X115565000Y-100264000D01*
X112332666Y-102578608D02*
G75*
G03*
X115564999Y-102735515I1672334J1078608D01*
G01*
X112963871Y-102579836D02*
G75*
G03*
X115045960Y-102579999I1041129J1079836D01*
G01*
X115045960Y-100420001D02*
G75*
G03*
X112963871Y-100420164I-1040960J-1079999D01*
G01*
X115564999Y-100264485D02*
G75*
G03*
X112332666Y-100421392I-1559999J-1235515D01*
G01*
%TD*%
%LPC*%
D12*
%TO.C,J1*%
X157848000Y-78300000D03*
D13*
X157848000Y-80900000D03*
X157848000Y-76200000D03*
X160348000Y-78300000D03*
X157848000Y-83000000D03*
X160348000Y-76200000D03*
X160348000Y-80500000D03*
X160348000Y-83000000D03*
D14*
X154048000Y-79600000D03*
D15*
X154848000Y-86350000D03*
X154848000Y-72850000D03*
%TD*%
D16*
%TO.C,U1*%
X114762000Y-73685000D03*
X117302000Y-73685000D03*
X119842000Y-73685000D03*
X122382000Y-73685000D03*
X124922000Y-73685000D03*
X127462000Y-73685000D03*
X130002000Y-73685000D03*
X132542000Y-73685000D03*
X132542000Y-96545000D03*
X130002000Y-96545000D03*
X127462000Y-96545000D03*
X124922000Y-96545000D03*
X122382000Y-96545000D03*
X119842000Y-96545000D03*
X117302000Y-96545000D03*
D17*
X114762000Y-96545000D03*
%TD*%
D18*
%TO.C,D2*%
X139275000Y-101500000D03*
D19*
X136735000Y-101500000D03*
%TD*%
D20*
%TO.C,Q1*%
X156730000Y-89640000D03*
X158000000Y-89640000D03*
D21*
X159270000Y-89640000D03*
%TD*%
D22*
%TO.C,U2*%
X143337000Y-81140000D03*
D19*
X143337000Y-78600000D03*
X143337000Y-76060000D03*
%TD*%
D18*
%TO.C,D3*%
X123275000Y-101500000D03*
D19*
X120735000Y-101500000D03*
%TD*%
D18*
%TO.C,D1*%
X147275000Y-101500000D03*
D19*
X144735000Y-101500000D03*
%TD*%
D18*
%TO.C,D4*%
X115275000Y-101500000D03*
D19*
X112735000Y-101500000D03*
%TD*%
D23*
%TO.C,BZ1*%
X148800000Y-93500000D03*
D17*
X141200000Y-93500000D03*
%TD*%
D24*
%TO.C,R4*%
X136810000Y-92500000D03*
D25*
X129190000Y-92500000D03*
%TD*%
D24*
%TO.C,R2*%
X136810000Y-88500000D03*
D25*
X129190000Y-88500000D03*
%TD*%
%TO.C,R1*%
X116690000Y-88500000D03*
D24*
X124310000Y-88500000D03*
%TD*%
%TO.C,R3*%
X124310000Y-92500000D03*
D25*
X116690000Y-92500000D03*
%TD*%
%LPD*%
M02*
