%TF.GenerationSoftware,KiCad,Pcbnew,7.0.7*%
%TF.CreationDate,2023-09-16T13:59:40+03:00*%
%TF.ProjectId,ElectraWifi,456c6563-7472-4615-9769-66692e6b6963,rev?*%
%TF.SameCoordinates,Original*%
%TF.FileFunction,Drillmap*%
%TF.FilePolarity,Positive*%
%FSLAX45Y45*%
G04 Gerber Fmt 4.5, Leading zero omitted, Abs format (unit mm)*
G04 Created by KiCad (PCBNEW 7.0.7) date 2023-09-16 13:59:40*
%MOMM*%
%LPD*%
G01*
G04 APERTURE LIST*
%ADD10C,0.100000*%
%ADD11C,0.200000*%
%ADD12C,0.040000*%
%ADD13C,0.070000*%
%ADD14C,0.075000*%
%ADD15C,0.080000*%
%ADD16C,0.090000*%
G04 APERTURE END LIST*
D10*
X15565200Y-9260000D02*
G75*
G03*
X15565200Y-9260000I-200000J0D01*
G01*
X10415200Y-7660000D02*
G75*
G03*
X10415200Y-7660000I-200000J0D01*
G01*
X16425000Y-8400000D02*
X15750000Y-9600000D01*
X15425000Y-9600000D01*
X14675000Y-10600000D01*
X11600000Y-10600000D01*
X11175000Y-10300000D01*
X10275000Y-9275000D01*
X9500000Y-8050000D01*
X9500000Y-7150000D01*
X16425000Y-7150000D01*
X16425000Y-8400000D01*
D11*
D12*
X11964200Y-7930000D02*
X12004200Y-7970000D01*
X12004200Y-7930000D02*
X11964200Y-7970000D01*
X13230000Y-8930000D02*
X13270000Y-8970000D01*
X13270000Y-8930000D02*
X13230000Y-8970000D01*
X13334150Y-7930000D02*
X13374150Y-7970000D01*
X13374150Y-7930000D02*
X13334150Y-7970000D01*
X13480000Y-8180000D02*
X13520000Y-8220000D01*
X13520000Y-8180000D02*
X13480000Y-8220000D01*
X13580000Y-8030000D02*
X13620000Y-8070000D01*
X13620000Y-8030000D02*
X13580000Y-8070000D01*
X13605000Y-7655000D02*
X13645000Y-7695000D01*
X13645000Y-7655000D02*
X13605000Y-7695000D01*
X13830000Y-8080000D02*
X13870000Y-8120000D01*
X13870000Y-8080000D02*
X13830000Y-8120000D01*
X14380000Y-8780000D02*
X14420000Y-8820000D01*
X14420000Y-8780000D02*
X14380000Y-8820000D01*
X15080000Y-9080000D02*
X15120000Y-9120000D01*
X15120000Y-9080000D02*
X15080000Y-9120000D01*
X15380000Y-8380000D02*
X15420000Y-8420000D01*
X15420000Y-8380000D02*
X15380000Y-8420000D01*
X15480000Y-8480000D02*
X15520000Y-8520000D01*
X15520000Y-8480000D02*
X15480000Y-8520000D01*
D13*
X15439800Y-7960000D02*
G75*
G03*
X15439800Y-7960000I-35000J0D01*
G01*
D11*
X15439800Y-8035000D02*
X15439800Y-7885000D01*
X15439800Y-7885000D02*
G75*
G03*
X15369800Y-7885000I-35000J0D01*
G01*
X15369800Y-7885000D02*
X15369800Y-8035000D01*
X15369800Y-8035000D02*
G75*
G03*
X15439800Y-8035000I35000J0D01*
G01*
D13*
X15519800Y-7285000D02*
G75*
G03*
X15519800Y-7285000I-35000J0D01*
G01*
D11*
X15409800Y-7320000D02*
X15559800Y-7320000D01*
X15559800Y-7320000D02*
G75*
G03*
X15559800Y-7250000I0J35000D01*
G01*
X15559800Y-7250000D02*
X15409800Y-7250000D01*
X15409800Y-7250000D02*
G75*
G03*
X15409800Y-7320000I0J-35000D01*
G01*
D13*
X15519800Y-8635000D02*
G75*
G03*
X15519800Y-8635000I-35000J0D01*
G01*
D11*
X15409800Y-8670000D02*
X15559800Y-8670000D01*
X15559800Y-8670000D02*
G75*
G03*
X15559800Y-8600000I0J35000D01*
G01*
X15559800Y-8600000D02*
X15409800Y-8600000D01*
X15409800Y-8600000D02*
G75*
G03*
X15409800Y-8670000I0J-35000D01*
G01*
D14*
X15673000Y-8926500D02*
X15673000Y-9001500D01*
X15635500Y-8964000D02*
X15710500Y-8964000D01*
X15800000Y-8926500D02*
X15800000Y-9001500D01*
X15762500Y-8964000D02*
X15837500Y-8964000D01*
X15927000Y-8926500D02*
X15927000Y-9001500D01*
X15889500Y-8964000D02*
X15964500Y-8964000D01*
D15*
X11697284Y-8878285D02*
X11697284Y-8821716D01*
X11640715Y-8821716D01*
X11640715Y-8878285D01*
X11697284Y-8878285D01*
X11697284Y-9278285D02*
X11697284Y-9221716D01*
X11640715Y-9221716D01*
X11640715Y-9278285D01*
X11697284Y-9278285D01*
X12459284Y-8878285D02*
X12459284Y-8821716D01*
X12402715Y-8821716D01*
X12402715Y-8878285D01*
X12459284Y-8878285D01*
X12459284Y-9278285D02*
X12459284Y-9221716D01*
X12402715Y-9221716D01*
X12402715Y-9278285D01*
X12459284Y-9278285D01*
X12947284Y-8878285D02*
X12947284Y-8821716D01*
X12890715Y-8821716D01*
X12890715Y-8878285D01*
X12947284Y-8878285D01*
X12947284Y-9278285D02*
X12947284Y-9221716D01*
X12890715Y-9221716D01*
X12890715Y-9278285D01*
X12947284Y-9278285D01*
X13709284Y-8878285D02*
X13709284Y-8821716D01*
X13652715Y-8821716D01*
X13652715Y-8878285D01*
X13709284Y-8878285D01*
X13709284Y-9278285D02*
X13709284Y-9221716D01*
X13652715Y-9221716D01*
X13652715Y-9278285D01*
X13709284Y-9278285D01*
D16*
X11273500Y-10195000D02*
X11318500Y-10150000D01*
X11273500Y-10105000D01*
X11228500Y-10150000D01*
X11273500Y-10195000D01*
X11527500Y-10195000D02*
X11572500Y-10150000D01*
X11527500Y-10105000D01*
X11482500Y-10150000D01*
X11527500Y-10195000D01*
X12073500Y-10195000D02*
X12118500Y-10150000D01*
X12073500Y-10105000D01*
X12028500Y-10150000D01*
X12073500Y-10195000D01*
X12327500Y-10195000D02*
X12372500Y-10150000D01*
X12327500Y-10105000D01*
X12282500Y-10150000D01*
X12327500Y-10195000D01*
X13673500Y-10195000D02*
X13718500Y-10150000D01*
X13673500Y-10105000D01*
X13628500Y-10150000D01*
X13673500Y-10195000D01*
X13927500Y-10195000D02*
X13972500Y-10150000D01*
X13927500Y-10105000D01*
X13882500Y-10150000D01*
X13927500Y-10195000D01*
X14333700Y-7651000D02*
X14378700Y-7606000D01*
X14333700Y-7561000D01*
X14288700Y-7606000D01*
X14333700Y-7651000D01*
X14333700Y-7905000D02*
X14378700Y-7860000D01*
X14333700Y-7815000D01*
X14288700Y-7860000D01*
X14333700Y-7905000D01*
X14333700Y-8159000D02*
X14378700Y-8114000D01*
X14333700Y-8069000D01*
X14288700Y-8114000D01*
X14333700Y-8159000D01*
X14473500Y-10195000D02*
X14518500Y-10150000D01*
X14473500Y-10105000D01*
X14428500Y-10150000D01*
X14473500Y-10195000D01*
X14727500Y-10195000D02*
X14772500Y-10150000D01*
X14727500Y-10105000D01*
X14682500Y-10150000D01*
X14727500Y-10195000D01*
X15784800Y-7665000D02*
X15829800Y-7620000D01*
X15784800Y-7575000D01*
X15739800Y-7620000D01*
X15784800Y-7665000D01*
X15784800Y-7875000D02*
X15829800Y-7830000D01*
X15784800Y-7785000D01*
X15739800Y-7830000D01*
X15784800Y-7875000D01*
X15784800Y-8135000D02*
X15829800Y-8090000D01*
X15784800Y-8045000D01*
X15739800Y-8090000D01*
X15784800Y-8135000D01*
X15784800Y-8345000D02*
X15829800Y-8300000D01*
X15784800Y-8255000D01*
X15739800Y-8300000D01*
X15784800Y-8345000D01*
X16034800Y-7665000D02*
X16079800Y-7620000D01*
X16034800Y-7575000D01*
X15989800Y-7620000D01*
X16034800Y-7665000D01*
X16034800Y-7875000D02*
X16079800Y-7830000D01*
X16034800Y-7785000D01*
X15989800Y-7830000D01*
X16034800Y-7875000D01*
X16034800Y-8095000D02*
X16079800Y-8050000D01*
X16034800Y-8005000D01*
X15989800Y-8050000D01*
X16034800Y-8095000D01*
X16034800Y-8345000D02*
X16079800Y-8300000D01*
X16034800Y-8255000D01*
X15989800Y-8300000D01*
X16034800Y-8345000D01*
D10*
X11426200Y-7318500D02*
X11526200Y-7418500D01*
X11526200Y-7318500D02*
X11426200Y-7418500D01*
X11526200Y-7368500D02*
G75*
G03*
X11526200Y-7368500I-50000J0D01*
G01*
X11426200Y-9604500D02*
X11526200Y-9704500D01*
X11526200Y-9604500D02*
X11426200Y-9704500D01*
X11526200Y-9654500D02*
G75*
G03*
X11526200Y-9654500I-50000J0D01*
G01*
X11680200Y-7318500D02*
X11780200Y-7418500D01*
X11780200Y-7318500D02*
X11680200Y-7418500D01*
X11780200Y-7368500D02*
G75*
G03*
X11780200Y-7368500I-50000J0D01*
G01*
X11680200Y-9604500D02*
X11780200Y-9704500D01*
X11780200Y-9604500D02*
X11680200Y-9704500D01*
X11780200Y-9654500D02*
G75*
G03*
X11780200Y-9654500I-50000J0D01*
G01*
X11934200Y-7318500D02*
X12034200Y-7418500D01*
X12034200Y-7318500D02*
X11934200Y-7418500D01*
X12034200Y-7368500D02*
G75*
G03*
X12034200Y-7368500I-50000J0D01*
G01*
X11934200Y-9604500D02*
X12034200Y-9704500D01*
X12034200Y-9604500D02*
X11934200Y-9704500D01*
X12034200Y-9654500D02*
G75*
G03*
X12034200Y-9654500I-50000J0D01*
G01*
X12188200Y-7318500D02*
X12288200Y-7418500D01*
X12288200Y-7318500D02*
X12188200Y-7418500D01*
X12288200Y-7368500D02*
G75*
G03*
X12288200Y-7368500I-50000J0D01*
G01*
X12188200Y-9604500D02*
X12288200Y-9704500D01*
X12288200Y-9604500D02*
X12188200Y-9704500D01*
X12288200Y-9654500D02*
G75*
G03*
X12288200Y-9654500I-50000J0D01*
G01*
X12442200Y-7318500D02*
X12542200Y-7418500D01*
X12542200Y-7318500D02*
X12442200Y-7418500D01*
X12542200Y-7368500D02*
G75*
G03*
X12542200Y-7368500I-50000J0D01*
G01*
X12442200Y-9604500D02*
X12542200Y-9704500D01*
X12542200Y-9604500D02*
X12442200Y-9704500D01*
X12542200Y-9654500D02*
G75*
G03*
X12542200Y-9654500I-50000J0D01*
G01*
X12696200Y-7318500D02*
X12796200Y-7418500D01*
X12796200Y-7318500D02*
X12696200Y-7418500D01*
X12796200Y-7368500D02*
G75*
G03*
X12796200Y-7368500I-50000J0D01*
G01*
X12696200Y-9604500D02*
X12796200Y-9704500D01*
X12796200Y-9604500D02*
X12696200Y-9704500D01*
X12796200Y-9654500D02*
G75*
G03*
X12796200Y-9654500I-50000J0D01*
G01*
X12950200Y-7318500D02*
X13050200Y-7418500D01*
X13050200Y-7318500D02*
X12950200Y-7418500D01*
X13050200Y-7368500D02*
G75*
G03*
X13050200Y-7368500I-50000J0D01*
G01*
X12950200Y-9604500D02*
X13050200Y-9704500D01*
X13050200Y-9604500D02*
X12950200Y-9704500D01*
X13050200Y-9654500D02*
G75*
G03*
X13050200Y-9654500I-50000J0D01*
G01*
X13204200Y-7318500D02*
X13304200Y-7418500D01*
X13304200Y-7318500D02*
X13204200Y-7418500D01*
X13304200Y-7368500D02*
G75*
G03*
X13304200Y-7368500I-50000J0D01*
G01*
X13204200Y-9604500D02*
X13304200Y-9704500D01*
X13304200Y-9604500D02*
X13204200Y-9704500D01*
X13304200Y-9654500D02*
G75*
G03*
X13304200Y-9654500I-50000J0D01*
G01*
X14070000Y-9300000D02*
X14170000Y-9400000D01*
X14170000Y-9300000D02*
X14070000Y-9400000D01*
X14170000Y-9350000D02*
G75*
G03*
X14170000Y-9350000I-50000J0D01*
G01*
X14830000Y-9300000D02*
X14930000Y-9400000D01*
X14930000Y-9300000D02*
X14830000Y-9400000D01*
X14930000Y-9350000D02*
G75*
G03*
X14930000Y-9350000I-50000J0D01*
G01*
D11*
X9755777Y-10916484D02*
X9755777Y-10716484D01*
X9755777Y-10716484D02*
X9803396Y-10716484D01*
X9803396Y-10716484D02*
X9831967Y-10726008D01*
X9831967Y-10726008D02*
X9851015Y-10745055D01*
X9851015Y-10745055D02*
X9860539Y-10764103D01*
X9860539Y-10764103D02*
X9870063Y-10802198D01*
X9870063Y-10802198D02*
X9870063Y-10830770D01*
X9870063Y-10830770D02*
X9860539Y-10868865D01*
X9860539Y-10868865D02*
X9851015Y-10887912D01*
X9851015Y-10887912D02*
X9831967Y-10906960D01*
X9831967Y-10906960D02*
X9803396Y-10916484D01*
X9803396Y-10916484D02*
X9755777Y-10916484D01*
X9955777Y-10916484D02*
X9955777Y-10783150D01*
X9955777Y-10821246D02*
X9965301Y-10802198D01*
X9965301Y-10802198D02*
X9974824Y-10792674D01*
X9974824Y-10792674D02*
X9993872Y-10783150D01*
X9993872Y-10783150D02*
X10012920Y-10783150D01*
X10079586Y-10916484D02*
X10079586Y-10783150D01*
X10079586Y-10716484D02*
X10070063Y-10726008D01*
X10070063Y-10726008D02*
X10079586Y-10735531D01*
X10079586Y-10735531D02*
X10089110Y-10726008D01*
X10089110Y-10726008D02*
X10079586Y-10716484D01*
X10079586Y-10716484D02*
X10079586Y-10735531D01*
X10203396Y-10916484D02*
X10184348Y-10906960D01*
X10184348Y-10906960D02*
X10174824Y-10887912D01*
X10174824Y-10887912D02*
X10174824Y-10716484D01*
X10308158Y-10916484D02*
X10289110Y-10906960D01*
X10289110Y-10906960D02*
X10279586Y-10887912D01*
X10279586Y-10887912D02*
X10279586Y-10716484D01*
X10536729Y-10916484D02*
X10536729Y-10716484D01*
X10536729Y-10716484D02*
X10603396Y-10859341D01*
X10603396Y-10859341D02*
X10670063Y-10716484D01*
X10670063Y-10716484D02*
X10670063Y-10916484D01*
X10851015Y-10916484D02*
X10851015Y-10811722D01*
X10851015Y-10811722D02*
X10841491Y-10792674D01*
X10841491Y-10792674D02*
X10822444Y-10783150D01*
X10822444Y-10783150D02*
X10784348Y-10783150D01*
X10784348Y-10783150D02*
X10765301Y-10792674D01*
X10851015Y-10906960D02*
X10831967Y-10916484D01*
X10831967Y-10916484D02*
X10784348Y-10916484D01*
X10784348Y-10916484D02*
X10765301Y-10906960D01*
X10765301Y-10906960D02*
X10755777Y-10887912D01*
X10755777Y-10887912D02*
X10755777Y-10868865D01*
X10755777Y-10868865D02*
X10765301Y-10849817D01*
X10765301Y-10849817D02*
X10784348Y-10840293D01*
X10784348Y-10840293D02*
X10831967Y-10840293D01*
X10831967Y-10840293D02*
X10851015Y-10830770D01*
X10946253Y-10783150D02*
X10946253Y-10983150D01*
X10946253Y-10792674D02*
X10965301Y-10783150D01*
X10965301Y-10783150D02*
X11003396Y-10783150D01*
X11003396Y-10783150D02*
X11022444Y-10792674D01*
X11022444Y-10792674D02*
X11031967Y-10802198D01*
X11031967Y-10802198D02*
X11041491Y-10821246D01*
X11041491Y-10821246D02*
X11041491Y-10878389D01*
X11041491Y-10878389D02*
X11031967Y-10897436D01*
X11031967Y-10897436D02*
X11022444Y-10906960D01*
X11022444Y-10906960D02*
X11003396Y-10916484D01*
X11003396Y-10916484D02*
X10965301Y-10916484D01*
X10965301Y-10916484D02*
X10946253Y-10906960D01*
X11127205Y-10897436D02*
X11136729Y-10906960D01*
X11136729Y-10906960D02*
X11127205Y-10916484D01*
X11127205Y-10916484D02*
X11117682Y-10906960D01*
X11117682Y-10906960D02*
X11127205Y-10897436D01*
X11127205Y-10897436D02*
X11127205Y-10916484D01*
X11127205Y-10792674D02*
X11136729Y-10802198D01*
X11136729Y-10802198D02*
X11127205Y-10811722D01*
X11127205Y-10811722D02*
X11117682Y-10802198D01*
X11117682Y-10802198D02*
X11127205Y-10792674D01*
X11127205Y-10792674D02*
X11127205Y-10811722D01*
D12*
X9455000Y-11225000D02*
X9495000Y-11265000D01*
X9495000Y-11225000D02*
X9455000Y-11265000D01*
D11*
X9793872Y-11136484D02*
X9812920Y-11136484D01*
X9812920Y-11136484D02*
X9831967Y-11146008D01*
X9831967Y-11146008D02*
X9841491Y-11155531D01*
X9841491Y-11155531D02*
X9851015Y-11174579D01*
X9851015Y-11174579D02*
X9860539Y-11212674D01*
X9860539Y-11212674D02*
X9860539Y-11260293D01*
X9860539Y-11260293D02*
X9851015Y-11298388D01*
X9851015Y-11298388D02*
X9841491Y-11317436D01*
X9841491Y-11317436D02*
X9831967Y-11326960D01*
X9831967Y-11326960D02*
X9812920Y-11336484D01*
X9812920Y-11336484D02*
X9793872Y-11336484D01*
X9793872Y-11336484D02*
X9774824Y-11326960D01*
X9774824Y-11326960D02*
X9765301Y-11317436D01*
X9765301Y-11317436D02*
X9755777Y-11298388D01*
X9755777Y-11298388D02*
X9746253Y-11260293D01*
X9746253Y-11260293D02*
X9746253Y-11212674D01*
X9746253Y-11212674D02*
X9755777Y-11174579D01*
X9755777Y-11174579D02*
X9765301Y-11155531D01*
X9765301Y-11155531D02*
X9774824Y-11146008D01*
X9774824Y-11146008D02*
X9793872Y-11136484D01*
X9946253Y-11317436D02*
X9955777Y-11326960D01*
X9955777Y-11326960D02*
X9946253Y-11336484D01*
X9946253Y-11336484D02*
X9936729Y-11326960D01*
X9936729Y-11326960D02*
X9946253Y-11317436D01*
X9946253Y-11317436D02*
X9946253Y-11336484D01*
X10127205Y-11203150D02*
X10127205Y-11336484D01*
X10079586Y-11126960D02*
X10031967Y-11269817D01*
X10031967Y-11269817D02*
X10155777Y-11269817D01*
X10270063Y-11136484D02*
X10289110Y-11136484D01*
X10289110Y-11136484D02*
X10308158Y-11146008D01*
X10308158Y-11146008D02*
X10317682Y-11155531D01*
X10317682Y-11155531D02*
X10327205Y-11174579D01*
X10327205Y-11174579D02*
X10336729Y-11212674D01*
X10336729Y-11212674D02*
X10336729Y-11260293D01*
X10336729Y-11260293D02*
X10327205Y-11298388D01*
X10327205Y-11298388D02*
X10317682Y-11317436D01*
X10317682Y-11317436D02*
X10308158Y-11326960D01*
X10308158Y-11326960D02*
X10289110Y-11336484D01*
X10289110Y-11336484D02*
X10270063Y-11336484D01*
X10270063Y-11336484D02*
X10251015Y-11326960D01*
X10251015Y-11326960D02*
X10241491Y-11317436D01*
X10241491Y-11317436D02*
X10231967Y-11298388D01*
X10231967Y-11298388D02*
X10222444Y-11260293D01*
X10222444Y-11260293D02*
X10222444Y-11212674D01*
X10222444Y-11212674D02*
X10231967Y-11174579D01*
X10231967Y-11174579D02*
X10241491Y-11155531D01*
X10241491Y-11155531D02*
X10251015Y-11146008D01*
X10251015Y-11146008D02*
X10270063Y-11136484D01*
X10460539Y-11136484D02*
X10479586Y-11136484D01*
X10479586Y-11136484D02*
X10498634Y-11146008D01*
X10498634Y-11146008D02*
X10508158Y-11155531D01*
X10508158Y-11155531D02*
X10517682Y-11174579D01*
X10517682Y-11174579D02*
X10527205Y-11212674D01*
X10527205Y-11212674D02*
X10527205Y-11260293D01*
X10527205Y-11260293D02*
X10517682Y-11298388D01*
X10517682Y-11298388D02*
X10508158Y-11317436D01*
X10508158Y-11317436D02*
X10498634Y-11326960D01*
X10498634Y-11326960D02*
X10479586Y-11336484D01*
X10479586Y-11336484D02*
X10460539Y-11336484D01*
X10460539Y-11336484D02*
X10441491Y-11326960D01*
X10441491Y-11326960D02*
X10431967Y-11317436D01*
X10431967Y-11317436D02*
X10422444Y-11298388D01*
X10422444Y-11298388D02*
X10412920Y-11260293D01*
X10412920Y-11260293D02*
X10412920Y-11212674D01*
X10412920Y-11212674D02*
X10422444Y-11174579D01*
X10422444Y-11174579D02*
X10431967Y-11155531D01*
X10431967Y-11155531D02*
X10441491Y-11146008D01*
X10441491Y-11146008D02*
X10460539Y-11136484D01*
X10612920Y-11336484D02*
X10612920Y-11203150D01*
X10612920Y-11222198D02*
X10622444Y-11212674D01*
X10622444Y-11212674D02*
X10641491Y-11203150D01*
X10641491Y-11203150D02*
X10670063Y-11203150D01*
X10670063Y-11203150D02*
X10689110Y-11212674D01*
X10689110Y-11212674D02*
X10698634Y-11231722D01*
X10698634Y-11231722D02*
X10698634Y-11336484D01*
X10698634Y-11231722D02*
X10708158Y-11212674D01*
X10708158Y-11212674D02*
X10727205Y-11203150D01*
X10727205Y-11203150D02*
X10755777Y-11203150D01*
X10755777Y-11203150D02*
X10774825Y-11212674D01*
X10774825Y-11212674D02*
X10784348Y-11231722D01*
X10784348Y-11231722D02*
X10784348Y-11336484D01*
X10879586Y-11336484D02*
X10879586Y-11203150D01*
X10879586Y-11222198D02*
X10889110Y-11212674D01*
X10889110Y-11212674D02*
X10908158Y-11203150D01*
X10908158Y-11203150D02*
X10936729Y-11203150D01*
X10936729Y-11203150D02*
X10955777Y-11212674D01*
X10955777Y-11212674D02*
X10965301Y-11231722D01*
X10965301Y-11231722D02*
X10965301Y-11336484D01*
X10965301Y-11231722D02*
X10974825Y-11212674D01*
X10974825Y-11212674D02*
X10993872Y-11203150D01*
X10993872Y-11203150D02*
X11022444Y-11203150D01*
X11022444Y-11203150D02*
X11041491Y-11212674D01*
X11041491Y-11212674D02*
X11051015Y-11231722D01*
X11051015Y-11231722D02*
X11051015Y-11336484D01*
X11441491Y-11126960D02*
X11270063Y-11384103D01*
X11698634Y-11136484D02*
X11717682Y-11136484D01*
X11717682Y-11136484D02*
X11736729Y-11146008D01*
X11736729Y-11146008D02*
X11746253Y-11155531D01*
X11746253Y-11155531D02*
X11755777Y-11174579D01*
X11755777Y-11174579D02*
X11765301Y-11212674D01*
X11765301Y-11212674D02*
X11765301Y-11260293D01*
X11765301Y-11260293D02*
X11755777Y-11298388D01*
X11755777Y-11298388D02*
X11746253Y-11317436D01*
X11746253Y-11317436D02*
X11736729Y-11326960D01*
X11736729Y-11326960D02*
X11717682Y-11336484D01*
X11717682Y-11336484D02*
X11698634Y-11336484D01*
X11698634Y-11336484D02*
X11679586Y-11326960D01*
X11679586Y-11326960D02*
X11670063Y-11317436D01*
X11670063Y-11317436D02*
X11660539Y-11298388D01*
X11660539Y-11298388D02*
X11651015Y-11260293D01*
X11651015Y-11260293D02*
X11651015Y-11212674D01*
X11651015Y-11212674D02*
X11660539Y-11174579D01*
X11660539Y-11174579D02*
X11670063Y-11155531D01*
X11670063Y-11155531D02*
X11679586Y-11146008D01*
X11679586Y-11146008D02*
X11698634Y-11136484D01*
X11851015Y-11317436D02*
X11860539Y-11326960D01*
X11860539Y-11326960D02*
X11851015Y-11336484D01*
X11851015Y-11336484D02*
X11841491Y-11326960D01*
X11841491Y-11326960D02*
X11851015Y-11317436D01*
X11851015Y-11317436D02*
X11851015Y-11336484D01*
X11984348Y-11136484D02*
X12003396Y-11136484D01*
X12003396Y-11136484D02*
X12022444Y-11146008D01*
X12022444Y-11146008D02*
X12031967Y-11155531D01*
X12031967Y-11155531D02*
X12041491Y-11174579D01*
X12041491Y-11174579D02*
X12051015Y-11212674D01*
X12051015Y-11212674D02*
X12051015Y-11260293D01*
X12051015Y-11260293D02*
X12041491Y-11298388D01*
X12041491Y-11298388D02*
X12031967Y-11317436D01*
X12031967Y-11317436D02*
X12022444Y-11326960D01*
X12022444Y-11326960D02*
X12003396Y-11336484D01*
X12003396Y-11336484D02*
X11984348Y-11336484D01*
X11984348Y-11336484D02*
X11965301Y-11326960D01*
X11965301Y-11326960D02*
X11955777Y-11317436D01*
X11955777Y-11317436D02*
X11946253Y-11298388D01*
X11946253Y-11298388D02*
X11936729Y-11260293D01*
X11936729Y-11260293D02*
X11936729Y-11212674D01*
X11936729Y-11212674D02*
X11946253Y-11174579D01*
X11946253Y-11174579D02*
X11955777Y-11155531D01*
X11955777Y-11155531D02*
X11965301Y-11146008D01*
X11965301Y-11146008D02*
X11984348Y-11136484D01*
X12241491Y-11336484D02*
X12127206Y-11336484D01*
X12184348Y-11336484D02*
X12184348Y-11136484D01*
X12184348Y-11136484D02*
X12165301Y-11165055D01*
X12165301Y-11165055D02*
X12146253Y-11184103D01*
X12146253Y-11184103D02*
X12127206Y-11193627D01*
X12422444Y-11136484D02*
X12327206Y-11136484D01*
X12327206Y-11136484D02*
X12317682Y-11231722D01*
X12317682Y-11231722D02*
X12327206Y-11222198D01*
X12327206Y-11222198D02*
X12346253Y-11212674D01*
X12346253Y-11212674D02*
X12393872Y-11212674D01*
X12393872Y-11212674D02*
X12412920Y-11222198D01*
X12412920Y-11222198D02*
X12422444Y-11231722D01*
X12422444Y-11231722D02*
X12431967Y-11250769D01*
X12431967Y-11250769D02*
X12431967Y-11298388D01*
X12431967Y-11298388D02*
X12422444Y-11317436D01*
X12422444Y-11317436D02*
X12412920Y-11326960D01*
X12412920Y-11326960D02*
X12393872Y-11336484D01*
X12393872Y-11336484D02*
X12346253Y-11336484D01*
X12346253Y-11336484D02*
X12327206Y-11326960D01*
X12327206Y-11326960D02*
X12317682Y-11317436D01*
X12498634Y-11136484D02*
X12631967Y-11136484D01*
X12631967Y-11136484D02*
X12546253Y-11336484D01*
X12698634Y-11136484D02*
X12698634Y-11174579D01*
X12774825Y-11136484D02*
X12774825Y-11174579D01*
X13070063Y-11412674D02*
X13060539Y-11403150D01*
X13060539Y-11403150D02*
X13041491Y-11374579D01*
X13041491Y-11374579D02*
X13031968Y-11355531D01*
X13031968Y-11355531D02*
X13022444Y-11326960D01*
X13022444Y-11326960D02*
X13012920Y-11279341D01*
X13012920Y-11279341D02*
X13012920Y-11241246D01*
X13012920Y-11241246D02*
X13022444Y-11193627D01*
X13022444Y-11193627D02*
X13031968Y-11165055D01*
X13031968Y-11165055D02*
X13041491Y-11146008D01*
X13041491Y-11146008D02*
X13060539Y-11117436D01*
X13060539Y-11117436D02*
X13070063Y-11107912D01*
X13251015Y-11336484D02*
X13136729Y-11336484D01*
X13193872Y-11336484D02*
X13193872Y-11136484D01*
X13193872Y-11136484D02*
X13174825Y-11165055D01*
X13174825Y-11165055D02*
X13155777Y-11184103D01*
X13155777Y-11184103D02*
X13136729Y-11193627D01*
X13441491Y-11336484D02*
X13327206Y-11336484D01*
X13384348Y-11336484D02*
X13384348Y-11136484D01*
X13384348Y-11136484D02*
X13365301Y-11165055D01*
X13365301Y-11165055D02*
X13346253Y-11184103D01*
X13346253Y-11184103D02*
X13327206Y-11193627D01*
X13679587Y-11336484D02*
X13679587Y-11136484D01*
X13765301Y-11336484D02*
X13765301Y-11231722D01*
X13765301Y-11231722D02*
X13755777Y-11212674D01*
X13755777Y-11212674D02*
X13736730Y-11203150D01*
X13736730Y-11203150D02*
X13708158Y-11203150D01*
X13708158Y-11203150D02*
X13689110Y-11212674D01*
X13689110Y-11212674D02*
X13679587Y-11222198D01*
X13889110Y-11336484D02*
X13870063Y-11326960D01*
X13870063Y-11326960D02*
X13860539Y-11317436D01*
X13860539Y-11317436D02*
X13851015Y-11298388D01*
X13851015Y-11298388D02*
X13851015Y-11241246D01*
X13851015Y-11241246D02*
X13860539Y-11222198D01*
X13860539Y-11222198D02*
X13870063Y-11212674D01*
X13870063Y-11212674D02*
X13889110Y-11203150D01*
X13889110Y-11203150D02*
X13917682Y-11203150D01*
X13917682Y-11203150D02*
X13936730Y-11212674D01*
X13936730Y-11212674D02*
X13946253Y-11222198D01*
X13946253Y-11222198D02*
X13955777Y-11241246D01*
X13955777Y-11241246D02*
X13955777Y-11298388D01*
X13955777Y-11298388D02*
X13946253Y-11317436D01*
X13946253Y-11317436D02*
X13936730Y-11326960D01*
X13936730Y-11326960D02*
X13917682Y-11336484D01*
X13917682Y-11336484D02*
X13889110Y-11336484D01*
X14070063Y-11336484D02*
X14051015Y-11326960D01*
X14051015Y-11326960D02*
X14041491Y-11307912D01*
X14041491Y-11307912D02*
X14041491Y-11136484D01*
X14222444Y-11326960D02*
X14203396Y-11336484D01*
X14203396Y-11336484D02*
X14165301Y-11336484D01*
X14165301Y-11336484D02*
X14146253Y-11326960D01*
X14146253Y-11326960D02*
X14136730Y-11307912D01*
X14136730Y-11307912D02*
X14136730Y-11231722D01*
X14136730Y-11231722D02*
X14146253Y-11212674D01*
X14146253Y-11212674D02*
X14165301Y-11203150D01*
X14165301Y-11203150D02*
X14203396Y-11203150D01*
X14203396Y-11203150D02*
X14222444Y-11212674D01*
X14222444Y-11212674D02*
X14231968Y-11231722D01*
X14231968Y-11231722D02*
X14231968Y-11250769D01*
X14231968Y-11250769D02*
X14136730Y-11269817D01*
X14308158Y-11326960D02*
X14327206Y-11336484D01*
X14327206Y-11336484D02*
X14365301Y-11336484D01*
X14365301Y-11336484D02*
X14384349Y-11326960D01*
X14384349Y-11326960D02*
X14393872Y-11307912D01*
X14393872Y-11307912D02*
X14393872Y-11298388D01*
X14393872Y-11298388D02*
X14384349Y-11279341D01*
X14384349Y-11279341D02*
X14365301Y-11269817D01*
X14365301Y-11269817D02*
X14336730Y-11269817D01*
X14336730Y-11269817D02*
X14317682Y-11260293D01*
X14317682Y-11260293D02*
X14308158Y-11241246D01*
X14308158Y-11241246D02*
X14308158Y-11231722D01*
X14308158Y-11231722D02*
X14317682Y-11212674D01*
X14317682Y-11212674D02*
X14336730Y-11203150D01*
X14336730Y-11203150D02*
X14365301Y-11203150D01*
X14365301Y-11203150D02*
X14384349Y-11212674D01*
X14460539Y-11412674D02*
X14470063Y-11403150D01*
X14470063Y-11403150D02*
X14489111Y-11374579D01*
X14489111Y-11374579D02*
X14498634Y-11355531D01*
X14498634Y-11355531D02*
X14508158Y-11326960D01*
X14508158Y-11326960D02*
X14517682Y-11279341D01*
X14517682Y-11279341D02*
X14517682Y-11241246D01*
X14517682Y-11241246D02*
X14508158Y-11193627D01*
X14508158Y-11193627D02*
X14498634Y-11165055D01*
X14498634Y-11165055D02*
X14489111Y-11146008D01*
X14489111Y-11146008D02*
X14470063Y-11117436D01*
X14470063Y-11117436D02*
X14460539Y-11107912D01*
D13*
X9495000Y-11509000D02*
G75*
G03*
X9495000Y-11509000I-35000J0D01*
G01*
D11*
X9793872Y-11400484D02*
X9812920Y-11400484D01*
X9812920Y-11400484D02*
X9831967Y-11410008D01*
X9831967Y-11410008D02*
X9841491Y-11419531D01*
X9841491Y-11419531D02*
X9851015Y-11438579D01*
X9851015Y-11438579D02*
X9860539Y-11476674D01*
X9860539Y-11476674D02*
X9860539Y-11524293D01*
X9860539Y-11524293D02*
X9851015Y-11562388D01*
X9851015Y-11562388D02*
X9841491Y-11581436D01*
X9841491Y-11581436D02*
X9831967Y-11590960D01*
X9831967Y-11590960D02*
X9812920Y-11600484D01*
X9812920Y-11600484D02*
X9793872Y-11600484D01*
X9793872Y-11600484D02*
X9774824Y-11590960D01*
X9774824Y-11590960D02*
X9765301Y-11581436D01*
X9765301Y-11581436D02*
X9755777Y-11562388D01*
X9755777Y-11562388D02*
X9746253Y-11524293D01*
X9746253Y-11524293D02*
X9746253Y-11476674D01*
X9746253Y-11476674D02*
X9755777Y-11438579D01*
X9755777Y-11438579D02*
X9765301Y-11419531D01*
X9765301Y-11419531D02*
X9774824Y-11410008D01*
X9774824Y-11410008D02*
X9793872Y-11400484D01*
X9946253Y-11581436D02*
X9955777Y-11590960D01*
X9955777Y-11590960D02*
X9946253Y-11600484D01*
X9946253Y-11600484D02*
X9936729Y-11590960D01*
X9936729Y-11590960D02*
X9946253Y-11581436D01*
X9946253Y-11581436D02*
X9946253Y-11600484D01*
X10022444Y-11400484D02*
X10155777Y-11400484D01*
X10155777Y-11400484D02*
X10070063Y-11600484D01*
X10270063Y-11400484D02*
X10289110Y-11400484D01*
X10289110Y-11400484D02*
X10308158Y-11410008D01*
X10308158Y-11410008D02*
X10317682Y-11419531D01*
X10317682Y-11419531D02*
X10327205Y-11438579D01*
X10327205Y-11438579D02*
X10336729Y-11476674D01*
X10336729Y-11476674D02*
X10336729Y-11524293D01*
X10336729Y-11524293D02*
X10327205Y-11562388D01*
X10327205Y-11562388D02*
X10317682Y-11581436D01*
X10317682Y-11581436D02*
X10308158Y-11590960D01*
X10308158Y-11590960D02*
X10289110Y-11600484D01*
X10289110Y-11600484D02*
X10270063Y-11600484D01*
X10270063Y-11600484D02*
X10251015Y-11590960D01*
X10251015Y-11590960D02*
X10241491Y-11581436D01*
X10241491Y-11581436D02*
X10231967Y-11562388D01*
X10231967Y-11562388D02*
X10222444Y-11524293D01*
X10222444Y-11524293D02*
X10222444Y-11476674D01*
X10222444Y-11476674D02*
X10231967Y-11438579D01*
X10231967Y-11438579D02*
X10241491Y-11419531D01*
X10241491Y-11419531D02*
X10251015Y-11410008D01*
X10251015Y-11410008D02*
X10270063Y-11400484D01*
X10460539Y-11400484D02*
X10479586Y-11400484D01*
X10479586Y-11400484D02*
X10498634Y-11410008D01*
X10498634Y-11410008D02*
X10508158Y-11419531D01*
X10508158Y-11419531D02*
X10517682Y-11438579D01*
X10517682Y-11438579D02*
X10527205Y-11476674D01*
X10527205Y-11476674D02*
X10527205Y-11524293D01*
X10527205Y-11524293D02*
X10517682Y-11562388D01*
X10517682Y-11562388D02*
X10508158Y-11581436D01*
X10508158Y-11581436D02*
X10498634Y-11590960D01*
X10498634Y-11590960D02*
X10479586Y-11600484D01*
X10479586Y-11600484D02*
X10460539Y-11600484D01*
X10460539Y-11600484D02*
X10441491Y-11590960D01*
X10441491Y-11590960D02*
X10431967Y-11581436D01*
X10431967Y-11581436D02*
X10422444Y-11562388D01*
X10422444Y-11562388D02*
X10412920Y-11524293D01*
X10412920Y-11524293D02*
X10412920Y-11476674D01*
X10412920Y-11476674D02*
X10422444Y-11438579D01*
X10422444Y-11438579D02*
X10431967Y-11419531D01*
X10431967Y-11419531D02*
X10441491Y-11410008D01*
X10441491Y-11410008D02*
X10460539Y-11400484D01*
X10612920Y-11600484D02*
X10612920Y-11467150D01*
X10612920Y-11486198D02*
X10622444Y-11476674D01*
X10622444Y-11476674D02*
X10641491Y-11467150D01*
X10641491Y-11467150D02*
X10670063Y-11467150D01*
X10670063Y-11467150D02*
X10689110Y-11476674D01*
X10689110Y-11476674D02*
X10698634Y-11495722D01*
X10698634Y-11495722D02*
X10698634Y-11600484D01*
X10698634Y-11495722D02*
X10708158Y-11476674D01*
X10708158Y-11476674D02*
X10727205Y-11467150D01*
X10727205Y-11467150D02*
X10755777Y-11467150D01*
X10755777Y-11467150D02*
X10774825Y-11476674D01*
X10774825Y-11476674D02*
X10784348Y-11495722D01*
X10784348Y-11495722D02*
X10784348Y-11600484D01*
X10879586Y-11600484D02*
X10879586Y-11467150D01*
X10879586Y-11486198D02*
X10889110Y-11476674D01*
X10889110Y-11476674D02*
X10908158Y-11467150D01*
X10908158Y-11467150D02*
X10936729Y-11467150D01*
X10936729Y-11467150D02*
X10955777Y-11476674D01*
X10955777Y-11476674D02*
X10965301Y-11495722D01*
X10965301Y-11495722D02*
X10965301Y-11600484D01*
X10965301Y-11495722D02*
X10974825Y-11476674D01*
X10974825Y-11476674D02*
X10993872Y-11467150D01*
X10993872Y-11467150D02*
X11022444Y-11467150D01*
X11022444Y-11467150D02*
X11041491Y-11476674D01*
X11041491Y-11476674D02*
X11051015Y-11495722D01*
X11051015Y-11495722D02*
X11051015Y-11600484D01*
X11441491Y-11390960D02*
X11270063Y-11648103D01*
X11698634Y-11400484D02*
X11717682Y-11400484D01*
X11717682Y-11400484D02*
X11736729Y-11410008D01*
X11736729Y-11410008D02*
X11746253Y-11419531D01*
X11746253Y-11419531D02*
X11755777Y-11438579D01*
X11755777Y-11438579D02*
X11765301Y-11476674D01*
X11765301Y-11476674D02*
X11765301Y-11524293D01*
X11765301Y-11524293D02*
X11755777Y-11562388D01*
X11755777Y-11562388D02*
X11746253Y-11581436D01*
X11746253Y-11581436D02*
X11736729Y-11590960D01*
X11736729Y-11590960D02*
X11717682Y-11600484D01*
X11717682Y-11600484D02*
X11698634Y-11600484D01*
X11698634Y-11600484D02*
X11679586Y-11590960D01*
X11679586Y-11590960D02*
X11670063Y-11581436D01*
X11670063Y-11581436D02*
X11660539Y-11562388D01*
X11660539Y-11562388D02*
X11651015Y-11524293D01*
X11651015Y-11524293D02*
X11651015Y-11476674D01*
X11651015Y-11476674D02*
X11660539Y-11438579D01*
X11660539Y-11438579D02*
X11670063Y-11419531D01*
X11670063Y-11419531D02*
X11679586Y-11410008D01*
X11679586Y-11410008D02*
X11698634Y-11400484D01*
X11851015Y-11581436D02*
X11860539Y-11590960D01*
X11860539Y-11590960D02*
X11851015Y-11600484D01*
X11851015Y-11600484D02*
X11841491Y-11590960D01*
X11841491Y-11590960D02*
X11851015Y-11581436D01*
X11851015Y-11581436D02*
X11851015Y-11600484D01*
X11984348Y-11400484D02*
X12003396Y-11400484D01*
X12003396Y-11400484D02*
X12022444Y-11410008D01*
X12022444Y-11410008D02*
X12031967Y-11419531D01*
X12031967Y-11419531D02*
X12041491Y-11438579D01*
X12041491Y-11438579D02*
X12051015Y-11476674D01*
X12051015Y-11476674D02*
X12051015Y-11524293D01*
X12051015Y-11524293D02*
X12041491Y-11562388D01*
X12041491Y-11562388D02*
X12031967Y-11581436D01*
X12031967Y-11581436D02*
X12022444Y-11590960D01*
X12022444Y-11590960D02*
X12003396Y-11600484D01*
X12003396Y-11600484D02*
X11984348Y-11600484D01*
X11984348Y-11600484D02*
X11965301Y-11590960D01*
X11965301Y-11590960D02*
X11955777Y-11581436D01*
X11955777Y-11581436D02*
X11946253Y-11562388D01*
X11946253Y-11562388D02*
X11936729Y-11524293D01*
X11936729Y-11524293D02*
X11936729Y-11476674D01*
X11936729Y-11476674D02*
X11946253Y-11438579D01*
X11946253Y-11438579D02*
X11955777Y-11419531D01*
X11955777Y-11419531D02*
X11965301Y-11410008D01*
X11965301Y-11410008D02*
X11984348Y-11400484D01*
X12127206Y-11419531D02*
X12136729Y-11410008D01*
X12136729Y-11410008D02*
X12155777Y-11400484D01*
X12155777Y-11400484D02*
X12203396Y-11400484D01*
X12203396Y-11400484D02*
X12222444Y-11410008D01*
X12222444Y-11410008D02*
X12231967Y-11419531D01*
X12231967Y-11419531D02*
X12241491Y-11438579D01*
X12241491Y-11438579D02*
X12241491Y-11457627D01*
X12241491Y-11457627D02*
X12231967Y-11486198D01*
X12231967Y-11486198D02*
X12117682Y-11600484D01*
X12117682Y-11600484D02*
X12241491Y-11600484D01*
X12308158Y-11400484D02*
X12441491Y-11400484D01*
X12441491Y-11400484D02*
X12355777Y-11600484D01*
X12603396Y-11400484D02*
X12565301Y-11400484D01*
X12565301Y-11400484D02*
X12546253Y-11410008D01*
X12546253Y-11410008D02*
X12536729Y-11419531D01*
X12536729Y-11419531D02*
X12517682Y-11448103D01*
X12517682Y-11448103D02*
X12508158Y-11486198D01*
X12508158Y-11486198D02*
X12508158Y-11562388D01*
X12508158Y-11562388D02*
X12517682Y-11581436D01*
X12517682Y-11581436D02*
X12527206Y-11590960D01*
X12527206Y-11590960D02*
X12546253Y-11600484D01*
X12546253Y-11600484D02*
X12584348Y-11600484D01*
X12584348Y-11600484D02*
X12603396Y-11590960D01*
X12603396Y-11590960D02*
X12612920Y-11581436D01*
X12612920Y-11581436D02*
X12622444Y-11562388D01*
X12622444Y-11562388D02*
X12622444Y-11514769D01*
X12622444Y-11514769D02*
X12612920Y-11495722D01*
X12612920Y-11495722D02*
X12603396Y-11486198D01*
X12603396Y-11486198D02*
X12584348Y-11476674D01*
X12584348Y-11476674D02*
X12546253Y-11476674D01*
X12546253Y-11476674D02*
X12527206Y-11486198D01*
X12527206Y-11486198D02*
X12517682Y-11495722D01*
X12517682Y-11495722D02*
X12508158Y-11514769D01*
X12698634Y-11400484D02*
X12698634Y-11438579D01*
X12774825Y-11400484D02*
X12774825Y-11438579D01*
X13070063Y-11676674D02*
X13060539Y-11667150D01*
X13060539Y-11667150D02*
X13041491Y-11638579D01*
X13041491Y-11638579D02*
X13031968Y-11619531D01*
X13031968Y-11619531D02*
X13022444Y-11590960D01*
X13022444Y-11590960D02*
X13012920Y-11543341D01*
X13012920Y-11543341D02*
X13012920Y-11505246D01*
X13012920Y-11505246D02*
X13022444Y-11457627D01*
X13022444Y-11457627D02*
X13031968Y-11429055D01*
X13031968Y-11429055D02*
X13041491Y-11410008D01*
X13041491Y-11410008D02*
X13060539Y-11381436D01*
X13060539Y-11381436D02*
X13070063Y-11371912D01*
X13184348Y-11400484D02*
X13203396Y-11400484D01*
X13203396Y-11400484D02*
X13222444Y-11410008D01*
X13222444Y-11410008D02*
X13231968Y-11419531D01*
X13231968Y-11419531D02*
X13241491Y-11438579D01*
X13241491Y-11438579D02*
X13251015Y-11476674D01*
X13251015Y-11476674D02*
X13251015Y-11524293D01*
X13251015Y-11524293D02*
X13241491Y-11562388D01*
X13241491Y-11562388D02*
X13231968Y-11581436D01*
X13231968Y-11581436D02*
X13222444Y-11590960D01*
X13222444Y-11590960D02*
X13203396Y-11600484D01*
X13203396Y-11600484D02*
X13184348Y-11600484D01*
X13184348Y-11600484D02*
X13165301Y-11590960D01*
X13165301Y-11590960D02*
X13155777Y-11581436D01*
X13155777Y-11581436D02*
X13146253Y-11562388D01*
X13146253Y-11562388D02*
X13136729Y-11524293D01*
X13136729Y-11524293D02*
X13136729Y-11476674D01*
X13136729Y-11476674D02*
X13146253Y-11438579D01*
X13146253Y-11438579D02*
X13155777Y-11419531D01*
X13155777Y-11419531D02*
X13165301Y-11410008D01*
X13165301Y-11410008D02*
X13184348Y-11400484D01*
X13489110Y-11600484D02*
X13489110Y-11400484D01*
X13574825Y-11600484D02*
X13574825Y-11495722D01*
X13574825Y-11495722D02*
X13565301Y-11476674D01*
X13565301Y-11476674D02*
X13546253Y-11467150D01*
X13546253Y-11467150D02*
X13517682Y-11467150D01*
X13517682Y-11467150D02*
X13498634Y-11476674D01*
X13498634Y-11476674D02*
X13489110Y-11486198D01*
X13698634Y-11600484D02*
X13679587Y-11590960D01*
X13679587Y-11590960D02*
X13670063Y-11581436D01*
X13670063Y-11581436D02*
X13660539Y-11562388D01*
X13660539Y-11562388D02*
X13660539Y-11505246D01*
X13660539Y-11505246D02*
X13670063Y-11486198D01*
X13670063Y-11486198D02*
X13679587Y-11476674D01*
X13679587Y-11476674D02*
X13698634Y-11467150D01*
X13698634Y-11467150D02*
X13727206Y-11467150D01*
X13727206Y-11467150D02*
X13746253Y-11476674D01*
X13746253Y-11476674D02*
X13755777Y-11486198D01*
X13755777Y-11486198D02*
X13765301Y-11505246D01*
X13765301Y-11505246D02*
X13765301Y-11562388D01*
X13765301Y-11562388D02*
X13755777Y-11581436D01*
X13755777Y-11581436D02*
X13746253Y-11590960D01*
X13746253Y-11590960D02*
X13727206Y-11600484D01*
X13727206Y-11600484D02*
X13698634Y-11600484D01*
X13879587Y-11600484D02*
X13860539Y-11590960D01*
X13860539Y-11590960D02*
X13851015Y-11571912D01*
X13851015Y-11571912D02*
X13851015Y-11400484D01*
X14031968Y-11590960D02*
X14012920Y-11600484D01*
X14012920Y-11600484D02*
X13974825Y-11600484D01*
X13974825Y-11600484D02*
X13955777Y-11590960D01*
X13955777Y-11590960D02*
X13946253Y-11571912D01*
X13946253Y-11571912D02*
X13946253Y-11495722D01*
X13946253Y-11495722D02*
X13955777Y-11476674D01*
X13955777Y-11476674D02*
X13974825Y-11467150D01*
X13974825Y-11467150D02*
X14012920Y-11467150D01*
X14012920Y-11467150D02*
X14031968Y-11476674D01*
X14031968Y-11476674D02*
X14041491Y-11495722D01*
X14041491Y-11495722D02*
X14041491Y-11514769D01*
X14041491Y-11514769D02*
X13946253Y-11533817D01*
X14117682Y-11590960D02*
X14136730Y-11600484D01*
X14136730Y-11600484D02*
X14174825Y-11600484D01*
X14174825Y-11600484D02*
X14193872Y-11590960D01*
X14193872Y-11590960D02*
X14203396Y-11571912D01*
X14203396Y-11571912D02*
X14203396Y-11562388D01*
X14203396Y-11562388D02*
X14193872Y-11543341D01*
X14193872Y-11543341D02*
X14174825Y-11533817D01*
X14174825Y-11533817D02*
X14146253Y-11533817D01*
X14146253Y-11533817D02*
X14127206Y-11524293D01*
X14127206Y-11524293D02*
X14117682Y-11505246D01*
X14117682Y-11505246D02*
X14117682Y-11495722D01*
X14117682Y-11495722D02*
X14127206Y-11476674D01*
X14127206Y-11476674D02*
X14146253Y-11467150D01*
X14146253Y-11467150D02*
X14174825Y-11467150D01*
X14174825Y-11467150D02*
X14193872Y-11476674D01*
X14441492Y-11524293D02*
X14593873Y-11524293D01*
X14517682Y-11600484D02*
X14517682Y-11448103D01*
X14822444Y-11400484D02*
X14946253Y-11400484D01*
X14946253Y-11400484D02*
X14879587Y-11476674D01*
X14879587Y-11476674D02*
X14908158Y-11476674D01*
X14908158Y-11476674D02*
X14927206Y-11486198D01*
X14927206Y-11486198D02*
X14936730Y-11495722D01*
X14936730Y-11495722D02*
X14946253Y-11514769D01*
X14946253Y-11514769D02*
X14946253Y-11562388D01*
X14946253Y-11562388D02*
X14936730Y-11581436D01*
X14936730Y-11581436D02*
X14927206Y-11590960D01*
X14927206Y-11590960D02*
X14908158Y-11600484D01*
X14908158Y-11600484D02*
X14851015Y-11600484D01*
X14851015Y-11600484D02*
X14831968Y-11590960D01*
X14831968Y-11590960D02*
X14822444Y-11581436D01*
X15174825Y-11590960D02*
X15193873Y-11600484D01*
X15193873Y-11600484D02*
X15231968Y-11600484D01*
X15231968Y-11600484D02*
X15251015Y-11590960D01*
X15251015Y-11590960D02*
X15260539Y-11571912D01*
X15260539Y-11571912D02*
X15260539Y-11562388D01*
X15260539Y-11562388D02*
X15251015Y-11543341D01*
X15251015Y-11543341D02*
X15231968Y-11533817D01*
X15231968Y-11533817D02*
X15203396Y-11533817D01*
X15203396Y-11533817D02*
X15184349Y-11524293D01*
X15184349Y-11524293D02*
X15174825Y-11505246D01*
X15174825Y-11505246D02*
X15174825Y-11495722D01*
X15174825Y-11495722D02*
X15184349Y-11476674D01*
X15184349Y-11476674D02*
X15203396Y-11467150D01*
X15203396Y-11467150D02*
X15231968Y-11467150D01*
X15231968Y-11467150D02*
X15251015Y-11476674D01*
X15374825Y-11600484D02*
X15355777Y-11590960D01*
X15355777Y-11590960D02*
X15346254Y-11571912D01*
X15346254Y-11571912D02*
X15346254Y-11400484D01*
X15479587Y-11600484D02*
X15460539Y-11590960D01*
X15460539Y-11590960D02*
X15451015Y-11581436D01*
X15451015Y-11581436D02*
X15441492Y-11562388D01*
X15441492Y-11562388D02*
X15441492Y-11505246D01*
X15441492Y-11505246D02*
X15451015Y-11486198D01*
X15451015Y-11486198D02*
X15460539Y-11476674D01*
X15460539Y-11476674D02*
X15479587Y-11467150D01*
X15479587Y-11467150D02*
X15508158Y-11467150D01*
X15508158Y-11467150D02*
X15527206Y-11476674D01*
X15527206Y-11476674D02*
X15536730Y-11486198D01*
X15536730Y-11486198D02*
X15546254Y-11505246D01*
X15546254Y-11505246D02*
X15546254Y-11562388D01*
X15546254Y-11562388D02*
X15536730Y-11581436D01*
X15536730Y-11581436D02*
X15527206Y-11590960D01*
X15527206Y-11590960D02*
X15508158Y-11600484D01*
X15508158Y-11600484D02*
X15479587Y-11600484D01*
X15603396Y-11467150D02*
X15679587Y-11467150D01*
X15631968Y-11400484D02*
X15631968Y-11571912D01*
X15631968Y-11571912D02*
X15641492Y-11590960D01*
X15641492Y-11590960D02*
X15660539Y-11600484D01*
X15660539Y-11600484D02*
X15679587Y-11600484D01*
X15736730Y-11590960D02*
X15755777Y-11600484D01*
X15755777Y-11600484D02*
X15793873Y-11600484D01*
X15793873Y-11600484D02*
X15812920Y-11590960D01*
X15812920Y-11590960D02*
X15822444Y-11571912D01*
X15822444Y-11571912D02*
X15822444Y-11562388D01*
X15822444Y-11562388D02*
X15812920Y-11543341D01*
X15812920Y-11543341D02*
X15793873Y-11533817D01*
X15793873Y-11533817D02*
X15765301Y-11533817D01*
X15765301Y-11533817D02*
X15746254Y-11524293D01*
X15746254Y-11524293D02*
X15736730Y-11505246D01*
X15736730Y-11505246D02*
X15736730Y-11495722D01*
X15736730Y-11495722D02*
X15746254Y-11476674D01*
X15746254Y-11476674D02*
X15765301Y-11467150D01*
X15765301Y-11467150D02*
X15793873Y-11467150D01*
X15793873Y-11467150D02*
X15812920Y-11476674D01*
X15889111Y-11676674D02*
X15898635Y-11667150D01*
X15898635Y-11667150D02*
X15917682Y-11638579D01*
X15917682Y-11638579D02*
X15927206Y-11619531D01*
X15927206Y-11619531D02*
X15936730Y-11590960D01*
X15936730Y-11590960D02*
X15946254Y-11543341D01*
X15946254Y-11543341D02*
X15946254Y-11505246D01*
X15946254Y-11505246D02*
X15936730Y-11457627D01*
X15936730Y-11457627D02*
X15927206Y-11429055D01*
X15927206Y-11429055D02*
X15917682Y-11410008D01*
X15917682Y-11410008D02*
X15898635Y-11381436D01*
X15898635Y-11381436D02*
X15889111Y-11371912D01*
D14*
X9457500Y-11735500D02*
X9457500Y-11810500D01*
X9420000Y-11773000D02*
X9495000Y-11773000D01*
D11*
X9793872Y-11664484D02*
X9812920Y-11664484D01*
X9812920Y-11664484D02*
X9831967Y-11674008D01*
X9831967Y-11674008D02*
X9841491Y-11683531D01*
X9841491Y-11683531D02*
X9851015Y-11702579D01*
X9851015Y-11702579D02*
X9860539Y-11740674D01*
X9860539Y-11740674D02*
X9860539Y-11788293D01*
X9860539Y-11788293D02*
X9851015Y-11826388D01*
X9851015Y-11826388D02*
X9841491Y-11845436D01*
X9841491Y-11845436D02*
X9831967Y-11854960D01*
X9831967Y-11854960D02*
X9812920Y-11864484D01*
X9812920Y-11864484D02*
X9793872Y-11864484D01*
X9793872Y-11864484D02*
X9774824Y-11854960D01*
X9774824Y-11854960D02*
X9765301Y-11845436D01*
X9765301Y-11845436D02*
X9755777Y-11826388D01*
X9755777Y-11826388D02*
X9746253Y-11788293D01*
X9746253Y-11788293D02*
X9746253Y-11740674D01*
X9746253Y-11740674D02*
X9755777Y-11702579D01*
X9755777Y-11702579D02*
X9765301Y-11683531D01*
X9765301Y-11683531D02*
X9774824Y-11674008D01*
X9774824Y-11674008D02*
X9793872Y-11664484D01*
X9946253Y-11845436D02*
X9955777Y-11854960D01*
X9955777Y-11854960D02*
X9946253Y-11864484D01*
X9946253Y-11864484D02*
X9936729Y-11854960D01*
X9936729Y-11854960D02*
X9946253Y-11845436D01*
X9946253Y-11845436D02*
X9946253Y-11864484D01*
X10022444Y-11664484D02*
X10155777Y-11664484D01*
X10155777Y-11664484D02*
X10070063Y-11864484D01*
X10327205Y-11664484D02*
X10231967Y-11664484D01*
X10231967Y-11664484D02*
X10222444Y-11759722D01*
X10222444Y-11759722D02*
X10231967Y-11750198D01*
X10231967Y-11750198D02*
X10251015Y-11740674D01*
X10251015Y-11740674D02*
X10298634Y-11740674D01*
X10298634Y-11740674D02*
X10317682Y-11750198D01*
X10317682Y-11750198D02*
X10327205Y-11759722D01*
X10327205Y-11759722D02*
X10336729Y-11778769D01*
X10336729Y-11778769D02*
X10336729Y-11826388D01*
X10336729Y-11826388D02*
X10327205Y-11845436D01*
X10327205Y-11845436D02*
X10317682Y-11854960D01*
X10317682Y-11854960D02*
X10298634Y-11864484D01*
X10298634Y-11864484D02*
X10251015Y-11864484D01*
X10251015Y-11864484D02*
X10231967Y-11854960D01*
X10231967Y-11854960D02*
X10222444Y-11845436D01*
X10460539Y-11664484D02*
X10479586Y-11664484D01*
X10479586Y-11664484D02*
X10498634Y-11674008D01*
X10498634Y-11674008D02*
X10508158Y-11683531D01*
X10508158Y-11683531D02*
X10517682Y-11702579D01*
X10517682Y-11702579D02*
X10527205Y-11740674D01*
X10527205Y-11740674D02*
X10527205Y-11788293D01*
X10527205Y-11788293D02*
X10517682Y-11826388D01*
X10517682Y-11826388D02*
X10508158Y-11845436D01*
X10508158Y-11845436D02*
X10498634Y-11854960D01*
X10498634Y-11854960D02*
X10479586Y-11864484D01*
X10479586Y-11864484D02*
X10460539Y-11864484D01*
X10460539Y-11864484D02*
X10441491Y-11854960D01*
X10441491Y-11854960D02*
X10431967Y-11845436D01*
X10431967Y-11845436D02*
X10422444Y-11826388D01*
X10422444Y-11826388D02*
X10412920Y-11788293D01*
X10412920Y-11788293D02*
X10412920Y-11740674D01*
X10412920Y-11740674D02*
X10422444Y-11702579D01*
X10422444Y-11702579D02*
X10431967Y-11683531D01*
X10431967Y-11683531D02*
X10441491Y-11674008D01*
X10441491Y-11674008D02*
X10460539Y-11664484D01*
X10612920Y-11864484D02*
X10612920Y-11731150D01*
X10612920Y-11750198D02*
X10622444Y-11740674D01*
X10622444Y-11740674D02*
X10641491Y-11731150D01*
X10641491Y-11731150D02*
X10670063Y-11731150D01*
X10670063Y-11731150D02*
X10689110Y-11740674D01*
X10689110Y-11740674D02*
X10698634Y-11759722D01*
X10698634Y-11759722D02*
X10698634Y-11864484D01*
X10698634Y-11759722D02*
X10708158Y-11740674D01*
X10708158Y-11740674D02*
X10727205Y-11731150D01*
X10727205Y-11731150D02*
X10755777Y-11731150D01*
X10755777Y-11731150D02*
X10774825Y-11740674D01*
X10774825Y-11740674D02*
X10784348Y-11759722D01*
X10784348Y-11759722D02*
X10784348Y-11864484D01*
X10879586Y-11864484D02*
X10879586Y-11731150D01*
X10879586Y-11750198D02*
X10889110Y-11740674D01*
X10889110Y-11740674D02*
X10908158Y-11731150D01*
X10908158Y-11731150D02*
X10936729Y-11731150D01*
X10936729Y-11731150D02*
X10955777Y-11740674D01*
X10955777Y-11740674D02*
X10965301Y-11759722D01*
X10965301Y-11759722D02*
X10965301Y-11864484D01*
X10965301Y-11759722D02*
X10974825Y-11740674D01*
X10974825Y-11740674D02*
X10993872Y-11731150D01*
X10993872Y-11731150D02*
X11022444Y-11731150D01*
X11022444Y-11731150D02*
X11041491Y-11740674D01*
X11041491Y-11740674D02*
X11051015Y-11759722D01*
X11051015Y-11759722D02*
X11051015Y-11864484D01*
X11441491Y-11654960D02*
X11270063Y-11912103D01*
X11698634Y-11664484D02*
X11717682Y-11664484D01*
X11717682Y-11664484D02*
X11736729Y-11674008D01*
X11736729Y-11674008D02*
X11746253Y-11683531D01*
X11746253Y-11683531D02*
X11755777Y-11702579D01*
X11755777Y-11702579D02*
X11765301Y-11740674D01*
X11765301Y-11740674D02*
X11765301Y-11788293D01*
X11765301Y-11788293D02*
X11755777Y-11826388D01*
X11755777Y-11826388D02*
X11746253Y-11845436D01*
X11746253Y-11845436D02*
X11736729Y-11854960D01*
X11736729Y-11854960D02*
X11717682Y-11864484D01*
X11717682Y-11864484D02*
X11698634Y-11864484D01*
X11698634Y-11864484D02*
X11679586Y-11854960D01*
X11679586Y-11854960D02*
X11670063Y-11845436D01*
X11670063Y-11845436D02*
X11660539Y-11826388D01*
X11660539Y-11826388D02*
X11651015Y-11788293D01*
X11651015Y-11788293D02*
X11651015Y-11740674D01*
X11651015Y-11740674D02*
X11660539Y-11702579D01*
X11660539Y-11702579D02*
X11670063Y-11683531D01*
X11670063Y-11683531D02*
X11679586Y-11674008D01*
X11679586Y-11674008D02*
X11698634Y-11664484D01*
X11851015Y-11845436D02*
X11860539Y-11854960D01*
X11860539Y-11854960D02*
X11851015Y-11864484D01*
X11851015Y-11864484D02*
X11841491Y-11854960D01*
X11841491Y-11854960D02*
X11851015Y-11845436D01*
X11851015Y-11845436D02*
X11851015Y-11864484D01*
X11984348Y-11664484D02*
X12003396Y-11664484D01*
X12003396Y-11664484D02*
X12022444Y-11674008D01*
X12022444Y-11674008D02*
X12031967Y-11683531D01*
X12031967Y-11683531D02*
X12041491Y-11702579D01*
X12041491Y-11702579D02*
X12051015Y-11740674D01*
X12051015Y-11740674D02*
X12051015Y-11788293D01*
X12051015Y-11788293D02*
X12041491Y-11826388D01*
X12041491Y-11826388D02*
X12031967Y-11845436D01*
X12031967Y-11845436D02*
X12022444Y-11854960D01*
X12022444Y-11854960D02*
X12003396Y-11864484D01*
X12003396Y-11864484D02*
X11984348Y-11864484D01*
X11984348Y-11864484D02*
X11965301Y-11854960D01*
X11965301Y-11854960D02*
X11955777Y-11845436D01*
X11955777Y-11845436D02*
X11946253Y-11826388D01*
X11946253Y-11826388D02*
X11936729Y-11788293D01*
X11936729Y-11788293D02*
X11936729Y-11740674D01*
X11936729Y-11740674D02*
X11946253Y-11702579D01*
X11946253Y-11702579D02*
X11955777Y-11683531D01*
X11955777Y-11683531D02*
X11965301Y-11674008D01*
X11965301Y-11674008D02*
X11984348Y-11664484D01*
X12127206Y-11683531D02*
X12136729Y-11674008D01*
X12136729Y-11674008D02*
X12155777Y-11664484D01*
X12155777Y-11664484D02*
X12203396Y-11664484D01*
X12203396Y-11664484D02*
X12222444Y-11674008D01*
X12222444Y-11674008D02*
X12231967Y-11683531D01*
X12231967Y-11683531D02*
X12241491Y-11702579D01*
X12241491Y-11702579D02*
X12241491Y-11721627D01*
X12241491Y-11721627D02*
X12231967Y-11750198D01*
X12231967Y-11750198D02*
X12117682Y-11864484D01*
X12117682Y-11864484D02*
X12241491Y-11864484D01*
X12336729Y-11864484D02*
X12374825Y-11864484D01*
X12374825Y-11864484D02*
X12393872Y-11854960D01*
X12393872Y-11854960D02*
X12403396Y-11845436D01*
X12403396Y-11845436D02*
X12422444Y-11816865D01*
X12422444Y-11816865D02*
X12431967Y-11778769D01*
X12431967Y-11778769D02*
X12431967Y-11702579D01*
X12431967Y-11702579D02*
X12422444Y-11683531D01*
X12422444Y-11683531D02*
X12412920Y-11674008D01*
X12412920Y-11674008D02*
X12393872Y-11664484D01*
X12393872Y-11664484D02*
X12355777Y-11664484D01*
X12355777Y-11664484D02*
X12336729Y-11674008D01*
X12336729Y-11674008D02*
X12327206Y-11683531D01*
X12327206Y-11683531D02*
X12317682Y-11702579D01*
X12317682Y-11702579D02*
X12317682Y-11750198D01*
X12317682Y-11750198D02*
X12327206Y-11769246D01*
X12327206Y-11769246D02*
X12336729Y-11778769D01*
X12336729Y-11778769D02*
X12355777Y-11788293D01*
X12355777Y-11788293D02*
X12393872Y-11788293D01*
X12393872Y-11788293D02*
X12412920Y-11778769D01*
X12412920Y-11778769D02*
X12422444Y-11769246D01*
X12422444Y-11769246D02*
X12431967Y-11750198D01*
X12612920Y-11664484D02*
X12517682Y-11664484D01*
X12517682Y-11664484D02*
X12508158Y-11759722D01*
X12508158Y-11759722D02*
X12517682Y-11750198D01*
X12517682Y-11750198D02*
X12536729Y-11740674D01*
X12536729Y-11740674D02*
X12584348Y-11740674D01*
X12584348Y-11740674D02*
X12603396Y-11750198D01*
X12603396Y-11750198D02*
X12612920Y-11759722D01*
X12612920Y-11759722D02*
X12622444Y-11778769D01*
X12622444Y-11778769D02*
X12622444Y-11826388D01*
X12622444Y-11826388D02*
X12612920Y-11845436D01*
X12612920Y-11845436D02*
X12603396Y-11854960D01*
X12603396Y-11854960D02*
X12584348Y-11864484D01*
X12584348Y-11864484D02*
X12536729Y-11864484D01*
X12536729Y-11864484D02*
X12517682Y-11854960D01*
X12517682Y-11854960D02*
X12508158Y-11845436D01*
X12698634Y-11664484D02*
X12698634Y-11702579D01*
X12774825Y-11664484D02*
X12774825Y-11702579D01*
X13070063Y-11940674D02*
X13060539Y-11931150D01*
X13060539Y-11931150D02*
X13041491Y-11902579D01*
X13041491Y-11902579D02*
X13031968Y-11883531D01*
X13031968Y-11883531D02*
X13022444Y-11854960D01*
X13022444Y-11854960D02*
X13012920Y-11807341D01*
X13012920Y-11807341D02*
X13012920Y-11769246D01*
X13012920Y-11769246D02*
X13022444Y-11721627D01*
X13022444Y-11721627D02*
X13031968Y-11693055D01*
X13031968Y-11693055D02*
X13041491Y-11674008D01*
X13041491Y-11674008D02*
X13060539Y-11645436D01*
X13060539Y-11645436D02*
X13070063Y-11635912D01*
X13127206Y-11664484D02*
X13251015Y-11664484D01*
X13251015Y-11664484D02*
X13184348Y-11740674D01*
X13184348Y-11740674D02*
X13212920Y-11740674D01*
X13212920Y-11740674D02*
X13231968Y-11750198D01*
X13231968Y-11750198D02*
X13241491Y-11759722D01*
X13241491Y-11759722D02*
X13251015Y-11778769D01*
X13251015Y-11778769D02*
X13251015Y-11826388D01*
X13251015Y-11826388D02*
X13241491Y-11845436D01*
X13241491Y-11845436D02*
X13231968Y-11854960D01*
X13231968Y-11854960D02*
X13212920Y-11864484D01*
X13212920Y-11864484D02*
X13155777Y-11864484D01*
X13155777Y-11864484D02*
X13136729Y-11854960D01*
X13136729Y-11854960D02*
X13127206Y-11845436D01*
X13489110Y-11864484D02*
X13489110Y-11664484D01*
X13574825Y-11864484D02*
X13574825Y-11759722D01*
X13574825Y-11759722D02*
X13565301Y-11740674D01*
X13565301Y-11740674D02*
X13546253Y-11731150D01*
X13546253Y-11731150D02*
X13517682Y-11731150D01*
X13517682Y-11731150D02*
X13498634Y-11740674D01*
X13498634Y-11740674D02*
X13489110Y-11750198D01*
X13698634Y-11864484D02*
X13679587Y-11854960D01*
X13679587Y-11854960D02*
X13670063Y-11845436D01*
X13670063Y-11845436D02*
X13660539Y-11826388D01*
X13660539Y-11826388D02*
X13660539Y-11769246D01*
X13660539Y-11769246D02*
X13670063Y-11750198D01*
X13670063Y-11750198D02*
X13679587Y-11740674D01*
X13679587Y-11740674D02*
X13698634Y-11731150D01*
X13698634Y-11731150D02*
X13727206Y-11731150D01*
X13727206Y-11731150D02*
X13746253Y-11740674D01*
X13746253Y-11740674D02*
X13755777Y-11750198D01*
X13755777Y-11750198D02*
X13765301Y-11769246D01*
X13765301Y-11769246D02*
X13765301Y-11826388D01*
X13765301Y-11826388D02*
X13755777Y-11845436D01*
X13755777Y-11845436D02*
X13746253Y-11854960D01*
X13746253Y-11854960D02*
X13727206Y-11864484D01*
X13727206Y-11864484D02*
X13698634Y-11864484D01*
X13879587Y-11864484D02*
X13860539Y-11854960D01*
X13860539Y-11854960D02*
X13851015Y-11835912D01*
X13851015Y-11835912D02*
X13851015Y-11664484D01*
X14031968Y-11854960D02*
X14012920Y-11864484D01*
X14012920Y-11864484D02*
X13974825Y-11864484D01*
X13974825Y-11864484D02*
X13955777Y-11854960D01*
X13955777Y-11854960D02*
X13946253Y-11835912D01*
X13946253Y-11835912D02*
X13946253Y-11759722D01*
X13946253Y-11759722D02*
X13955777Y-11740674D01*
X13955777Y-11740674D02*
X13974825Y-11731150D01*
X13974825Y-11731150D02*
X14012920Y-11731150D01*
X14012920Y-11731150D02*
X14031968Y-11740674D01*
X14031968Y-11740674D02*
X14041491Y-11759722D01*
X14041491Y-11759722D02*
X14041491Y-11778769D01*
X14041491Y-11778769D02*
X13946253Y-11797817D01*
X14117682Y-11854960D02*
X14136730Y-11864484D01*
X14136730Y-11864484D02*
X14174825Y-11864484D01*
X14174825Y-11864484D02*
X14193872Y-11854960D01*
X14193872Y-11854960D02*
X14203396Y-11835912D01*
X14203396Y-11835912D02*
X14203396Y-11826388D01*
X14203396Y-11826388D02*
X14193872Y-11807341D01*
X14193872Y-11807341D02*
X14174825Y-11797817D01*
X14174825Y-11797817D02*
X14146253Y-11797817D01*
X14146253Y-11797817D02*
X14127206Y-11788293D01*
X14127206Y-11788293D02*
X14117682Y-11769246D01*
X14117682Y-11769246D02*
X14117682Y-11759722D01*
X14117682Y-11759722D02*
X14127206Y-11740674D01*
X14127206Y-11740674D02*
X14146253Y-11731150D01*
X14146253Y-11731150D02*
X14174825Y-11731150D01*
X14174825Y-11731150D02*
X14193872Y-11740674D01*
X14270063Y-11940674D02*
X14279587Y-11931150D01*
X14279587Y-11931150D02*
X14298634Y-11902579D01*
X14298634Y-11902579D02*
X14308158Y-11883531D01*
X14308158Y-11883531D02*
X14317682Y-11854960D01*
X14317682Y-11854960D02*
X14327206Y-11807341D01*
X14327206Y-11807341D02*
X14327206Y-11769246D01*
X14327206Y-11769246D02*
X14317682Y-11721627D01*
X14317682Y-11721627D02*
X14308158Y-11693055D01*
X14308158Y-11693055D02*
X14298634Y-11674008D01*
X14298634Y-11674008D02*
X14279587Y-11645436D01*
X14279587Y-11645436D02*
X14270063Y-11635912D01*
D15*
X9483285Y-12065284D02*
X9483285Y-12008715D01*
X9426716Y-12008715D01*
X9426716Y-12065284D01*
X9483285Y-12065284D01*
D11*
X9793872Y-11928484D02*
X9812920Y-11928484D01*
X9812920Y-11928484D02*
X9831967Y-11938008D01*
X9831967Y-11938008D02*
X9841491Y-11947531D01*
X9841491Y-11947531D02*
X9851015Y-11966579D01*
X9851015Y-11966579D02*
X9860539Y-12004674D01*
X9860539Y-12004674D02*
X9860539Y-12052293D01*
X9860539Y-12052293D02*
X9851015Y-12090388D01*
X9851015Y-12090388D02*
X9841491Y-12109436D01*
X9841491Y-12109436D02*
X9831967Y-12118960D01*
X9831967Y-12118960D02*
X9812920Y-12128484D01*
X9812920Y-12128484D02*
X9793872Y-12128484D01*
X9793872Y-12128484D02*
X9774824Y-12118960D01*
X9774824Y-12118960D02*
X9765301Y-12109436D01*
X9765301Y-12109436D02*
X9755777Y-12090388D01*
X9755777Y-12090388D02*
X9746253Y-12052293D01*
X9746253Y-12052293D02*
X9746253Y-12004674D01*
X9746253Y-12004674D02*
X9755777Y-11966579D01*
X9755777Y-11966579D02*
X9765301Y-11947531D01*
X9765301Y-11947531D02*
X9774824Y-11938008D01*
X9774824Y-11938008D02*
X9793872Y-11928484D01*
X9946253Y-12109436D02*
X9955777Y-12118960D01*
X9955777Y-12118960D02*
X9946253Y-12128484D01*
X9946253Y-12128484D02*
X9936729Y-12118960D01*
X9936729Y-12118960D02*
X9946253Y-12109436D01*
X9946253Y-12109436D02*
X9946253Y-12128484D01*
X10070063Y-12014198D02*
X10051015Y-12004674D01*
X10051015Y-12004674D02*
X10041491Y-11995150D01*
X10041491Y-11995150D02*
X10031967Y-11976103D01*
X10031967Y-11976103D02*
X10031967Y-11966579D01*
X10031967Y-11966579D02*
X10041491Y-11947531D01*
X10041491Y-11947531D02*
X10051015Y-11938008D01*
X10051015Y-11938008D02*
X10070063Y-11928484D01*
X10070063Y-11928484D02*
X10108158Y-11928484D01*
X10108158Y-11928484D02*
X10127205Y-11938008D01*
X10127205Y-11938008D02*
X10136729Y-11947531D01*
X10136729Y-11947531D02*
X10146253Y-11966579D01*
X10146253Y-11966579D02*
X10146253Y-11976103D01*
X10146253Y-11976103D02*
X10136729Y-11995150D01*
X10136729Y-11995150D02*
X10127205Y-12004674D01*
X10127205Y-12004674D02*
X10108158Y-12014198D01*
X10108158Y-12014198D02*
X10070063Y-12014198D01*
X10070063Y-12014198D02*
X10051015Y-12023722D01*
X10051015Y-12023722D02*
X10041491Y-12033246D01*
X10041491Y-12033246D02*
X10031967Y-12052293D01*
X10031967Y-12052293D02*
X10031967Y-12090388D01*
X10031967Y-12090388D02*
X10041491Y-12109436D01*
X10041491Y-12109436D02*
X10051015Y-12118960D01*
X10051015Y-12118960D02*
X10070063Y-12128484D01*
X10070063Y-12128484D02*
X10108158Y-12128484D01*
X10108158Y-12128484D02*
X10127205Y-12118960D01*
X10127205Y-12118960D02*
X10136729Y-12109436D01*
X10136729Y-12109436D02*
X10146253Y-12090388D01*
X10146253Y-12090388D02*
X10146253Y-12052293D01*
X10146253Y-12052293D02*
X10136729Y-12033246D01*
X10136729Y-12033246D02*
X10127205Y-12023722D01*
X10127205Y-12023722D02*
X10108158Y-12014198D01*
X10270063Y-11928484D02*
X10289110Y-11928484D01*
X10289110Y-11928484D02*
X10308158Y-11938008D01*
X10308158Y-11938008D02*
X10317682Y-11947531D01*
X10317682Y-11947531D02*
X10327205Y-11966579D01*
X10327205Y-11966579D02*
X10336729Y-12004674D01*
X10336729Y-12004674D02*
X10336729Y-12052293D01*
X10336729Y-12052293D02*
X10327205Y-12090388D01*
X10327205Y-12090388D02*
X10317682Y-12109436D01*
X10317682Y-12109436D02*
X10308158Y-12118960D01*
X10308158Y-12118960D02*
X10289110Y-12128484D01*
X10289110Y-12128484D02*
X10270063Y-12128484D01*
X10270063Y-12128484D02*
X10251015Y-12118960D01*
X10251015Y-12118960D02*
X10241491Y-12109436D01*
X10241491Y-12109436D02*
X10231967Y-12090388D01*
X10231967Y-12090388D02*
X10222444Y-12052293D01*
X10222444Y-12052293D02*
X10222444Y-12004674D01*
X10222444Y-12004674D02*
X10231967Y-11966579D01*
X10231967Y-11966579D02*
X10241491Y-11947531D01*
X10241491Y-11947531D02*
X10251015Y-11938008D01*
X10251015Y-11938008D02*
X10270063Y-11928484D01*
X10460539Y-11928484D02*
X10479586Y-11928484D01*
X10479586Y-11928484D02*
X10498634Y-11938008D01*
X10498634Y-11938008D02*
X10508158Y-11947531D01*
X10508158Y-11947531D02*
X10517682Y-11966579D01*
X10517682Y-11966579D02*
X10527205Y-12004674D01*
X10527205Y-12004674D02*
X10527205Y-12052293D01*
X10527205Y-12052293D02*
X10517682Y-12090388D01*
X10517682Y-12090388D02*
X10508158Y-12109436D01*
X10508158Y-12109436D02*
X10498634Y-12118960D01*
X10498634Y-12118960D02*
X10479586Y-12128484D01*
X10479586Y-12128484D02*
X10460539Y-12128484D01*
X10460539Y-12128484D02*
X10441491Y-12118960D01*
X10441491Y-12118960D02*
X10431967Y-12109436D01*
X10431967Y-12109436D02*
X10422444Y-12090388D01*
X10422444Y-12090388D02*
X10412920Y-12052293D01*
X10412920Y-12052293D02*
X10412920Y-12004674D01*
X10412920Y-12004674D02*
X10422444Y-11966579D01*
X10422444Y-11966579D02*
X10431967Y-11947531D01*
X10431967Y-11947531D02*
X10441491Y-11938008D01*
X10441491Y-11938008D02*
X10460539Y-11928484D01*
X10612920Y-12128484D02*
X10612920Y-11995150D01*
X10612920Y-12014198D02*
X10622444Y-12004674D01*
X10622444Y-12004674D02*
X10641491Y-11995150D01*
X10641491Y-11995150D02*
X10670063Y-11995150D01*
X10670063Y-11995150D02*
X10689110Y-12004674D01*
X10689110Y-12004674D02*
X10698634Y-12023722D01*
X10698634Y-12023722D02*
X10698634Y-12128484D01*
X10698634Y-12023722D02*
X10708158Y-12004674D01*
X10708158Y-12004674D02*
X10727205Y-11995150D01*
X10727205Y-11995150D02*
X10755777Y-11995150D01*
X10755777Y-11995150D02*
X10774825Y-12004674D01*
X10774825Y-12004674D02*
X10784348Y-12023722D01*
X10784348Y-12023722D02*
X10784348Y-12128484D01*
X10879586Y-12128484D02*
X10879586Y-11995150D01*
X10879586Y-12014198D02*
X10889110Y-12004674D01*
X10889110Y-12004674D02*
X10908158Y-11995150D01*
X10908158Y-11995150D02*
X10936729Y-11995150D01*
X10936729Y-11995150D02*
X10955777Y-12004674D01*
X10955777Y-12004674D02*
X10965301Y-12023722D01*
X10965301Y-12023722D02*
X10965301Y-12128484D01*
X10965301Y-12023722D02*
X10974825Y-12004674D01*
X10974825Y-12004674D02*
X10993872Y-11995150D01*
X10993872Y-11995150D02*
X11022444Y-11995150D01*
X11022444Y-11995150D02*
X11041491Y-12004674D01*
X11041491Y-12004674D02*
X11051015Y-12023722D01*
X11051015Y-12023722D02*
X11051015Y-12128484D01*
X11441491Y-11918960D02*
X11270063Y-12176103D01*
X11698634Y-11928484D02*
X11717682Y-11928484D01*
X11717682Y-11928484D02*
X11736729Y-11938008D01*
X11736729Y-11938008D02*
X11746253Y-11947531D01*
X11746253Y-11947531D02*
X11755777Y-11966579D01*
X11755777Y-11966579D02*
X11765301Y-12004674D01*
X11765301Y-12004674D02*
X11765301Y-12052293D01*
X11765301Y-12052293D02*
X11755777Y-12090388D01*
X11755777Y-12090388D02*
X11746253Y-12109436D01*
X11746253Y-12109436D02*
X11736729Y-12118960D01*
X11736729Y-12118960D02*
X11717682Y-12128484D01*
X11717682Y-12128484D02*
X11698634Y-12128484D01*
X11698634Y-12128484D02*
X11679586Y-12118960D01*
X11679586Y-12118960D02*
X11670063Y-12109436D01*
X11670063Y-12109436D02*
X11660539Y-12090388D01*
X11660539Y-12090388D02*
X11651015Y-12052293D01*
X11651015Y-12052293D02*
X11651015Y-12004674D01*
X11651015Y-12004674D02*
X11660539Y-11966579D01*
X11660539Y-11966579D02*
X11670063Y-11947531D01*
X11670063Y-11947531D02*
X11679586Y-11938008D01*
X11679586Y-11938008D02*
X11698634Y-11928484D01*
X11851015Y-12109436D02*
X11860539Y-12118960D01*
X11860539Y-12118960D02*
X11851015Y-12128484D01*
X11851015Y-12128484D02*
X11841491Y-12118960D01*
X11841491Y-12118960D02*
X11851015Y-12109436D01*
X11851015Y-12109436D02*
X11851015Y-12128484D01*
X11984348Y-11928484D02*
X12003396Y-11928484D01*
X12003396Y-11928484D02*
X12022444Y-11938008D01*
X12022444Y-11938008D02*
X12031967Y-11947531D01*
X12031967Y-11947531D02*
X12041491Y-11966579D01*
X12041491Y-11966579D02*
X12051015Y-12004674D01*
X12051015Y-12004674D02*
X12051015Y-12052293D01*
X12051015Y-12052293D02*
X12041491Y-12090388D01*
X12041491Y-12090388D02*
X12031967Y-12109436D01*
X12031967Y-12109436D02*
X12022444Y-12118960D01*
X12022444Y-12118960D02*
X12003396Y-12128484D01*
X12003396Y-12128484D02*
X11984348Y-12128484D01*
X11984348Y-12128484D02*
X11965301Y-12118960D01*
X11965301Y-12118960D02*
X11955777Y-12109436D01*
X11955777Y-12109436D02*
X11946253Y-12090388D01*
X11946253Y-12090388D02*
X11936729Y-12052293D01*
X11936729Y-12052293D02*
X11936729Y-12004674D01*
X11936729Y-12004674D02*
X11946253Y-11966579D01*
X11946253Y-11966579D02*
X11955777Y-11947531D01*
X11955777Y-11947531D02*
X11965301Y-11938008D01*
X11965301Y-11938008D02*
X11984348Y-11928484D01*
X12117682Y-11928484D02*
X12241491Y-11928484D01*
X12241491Y-11928484D02*
X12174825Y-12004674D01*
X12174825Y-12004674D02*
X12203396Y-12004674D01*
X12203396Y-12004674D02*
X12222444Y-12014198D01*
X12222444Y-12014198D02*
X12231967Y-12023722D01*
X12231967Y-12023722D02*
X12241491Y-12042769D01*
X12241491Y-12042769D02*
X12241491Y-12090388D01*
X12241491Y-12090388D02*
X12231967Y-12109436D01*
X12231967Y-12109436D02*
X12222444Y-12118960D01*
X12222444Y-12118960D02*
X12203396Y-12128484D01*
X12203396Y-12128484D02*
X12146253Y-12128484D01*
X12146253Y-12128484D02*
X12127206Y-12118960D01*
X12127206Y-12118960D02*
X12117682Y-12109436D01*
X12431967Y-12128484D02*
X12317682Y-12128484D01*
X12374825Y-12128484D02*
X12374825Y-11928484D01*
X12374825Y-11928484D02*
X12355777Y-11957055D01*
X12355777Y-11957055D02*
X12336729Y-11976103D01*
X12336729Y-11976103D02*
X12317682Y-11985627D01*
X12612920Y-11928484D02*
X12517682Y-11928484D01*
X12517682Y-11928484D02*
X12508158Y-12023722D01*
X12508158Y-12023722D02*
X12517682Y-12014198D01*
X12517682Y-12014198D02*
X12536729Y-12004674D01*
X12536729Y-12004674D02*
X12584348Y-12004674D01*
X12584348Y-12004674D02*
X12603396Y-12014198D01*
X12603396Y-12014198D02*
X12612920Y-12023722D01*
X12612920Y-12023722D02*
X12622444Y-12042769D01*
X12622444Y-12042769D02*
X12622444Y-12090388D01*
X12622444Y-12090388D02*
X12612920Y-12109436D01*
X12612920Y-12109436D02*
X12603396Y-12118960D01*
X12603396Y-12118960D02*
X12584348Y-12128484D01*
X12584348Y-12128484D02*
X12536729Y-12128484D01*
X12536729Y-12128484D02*
X12517682Y-12118960D01*
X12517682Y-12118960D02*
X12508158Y-12109436D01*
X12698634Y-11928484D02*
X12698634Y-11966579D01*
X12774825Y-11928484D02*
X12774825Y-11966579D01*
X13070063Y-12204674D02*
X13060539Y-12195150D01*
X13060539Y-12195150D02*
X13041491Y-12166579D01*
X13041491Y-12166579D02*
X13031968Y-12147531D01*
X13031968Y-12147531D02*
X13022444Y-12118960D01*
X13022444Y-12118960D02*
X13012920Y-12071341D01*
X13012920Y-12071341D02*
X13012920Y-12033246D01*
X13012920Y-12033246D02*
X13022444Y-11985627D01*
X13022444Y-11985627D02*
X13031968Y-11957055D01*
X13031968Y-11957055D02*
X13041491Y-11938008D01*
X13041491Y-11938008D02*
X13060539Y-11909436D01*
X13060539Y-11909436D02*
X13070063Y-11899912D01*
X13174825Y-12014198D02*
X13155777Y-12004674D01*
X13155777Y-12004674D02*
X13146253Y-11995150D01*
X13146253Y-11995150D02*
X13136729Y-11976103D01*
X13136729Y-11976103D02*
X13136729Y-11966579D01*
X13136729Y-11966579D02*
X13146253Y-11947531D01*
X13146253Y-11947531D02*
X13155777Y-11938008D01*
X13155777Y-11938008D02*
X13174825Y-11928484D01*
X13174825Y-11928484D02*
X13212920Y-11928484D01*
X13212920Y-11928484D02*
X13231968Y-11938008D01*
X13231968Y-11938008D02*
X13241491Y-11947531D01*
X13241491Y-11947531D02*
X13251015Y-11966579D01*
X13251015Y-11966579D02*
X13251015Y-11976103D01*
X13251015Y-11976103D02*
X13241491Y-11995150D01*
X13241491Y-11995150D02*
X13231968Y-12004674D01*
X13231968Y-12004674D02*
X13212920Y-12014198D01*
X13212920Y-12014198D02*
X13174825Y-12014198D01*
X13174825Y-12014198D02*
X13155777Y-12023722D01*
X13155777Y-12023722D02*
X13146253Y-12033246D01*
X13146253Y-12033246D02*
X13136729Y-12052293D01*
X13136729Y-12052293D02*
X13136729Y-12090388D01*
X13136729Y-12090388D02*
X13146253Y-12109436D01*
X13146253Y-12109436D02*
X13155777Y-12118960D01*
X13155777Y-12118960D02*
X13174825Y-12128484D01*
X13174825Y-12128484D02*
X13212920Y-12128484D01*
X13212920Y-12128484D02*
X13231968Y-12118960D01*
X13231968Y-12118960D02*
X13241491Y-12109436D01*
X13241491Y-12109436D02*
X13251015Y-12090388D01*
X13251015Y-12090388D02*
X13251015Y-12052293D01*
X13251015Y-12052293D02*
X13241491Y-12033246D01*
X13241491Y-12033246D02*
X13231968Y-12023722D01*
X13231968Y-12023722D02*
X13212920Y-12014198D01*
X13489110Y-12128484D02*
X13489110Y-11928484D01*
X13574825Y-12128484D02*
X13574825Y-12023722D01*
X13574825Y-12023722D02*
X13565301Y-12004674D01*
X13565301Y-12004674D02*
X13546253Y-11995150D01*
X13546253Y-11995150D02*
X13517682Y-11995150D01*
X13517682Y-11995150D02*
X13498634Y-12004674D01*
X13498634Y-12004674D02*
X13489110Y-12014198D01*
X13698634Y-12128484D02*
X13679587Y-12118960D01*
X13679587Y-12118960D02*
X13670063Y-12109436D01*
X13670063Y-12109436D02*
X13660539Y-12090388D01*
X13660539Y-12090388D02*
X13660539Y-12033246D01*
X13660539Y-12033246D02*
X13670063Y-12014198D01*
X13670063Y-12014198D02*
X13679587Y-12004674D01*
X13679587Y-12004674D02*
X13698634Y-11995150D01*
X13698634Y-11995150D02*
X13727206Y-11995150D01*
X13727206Y-11995150D02*
X13746253Y-12004674D01*
X13746253Y-12004674D02*
X13755777Y-12014198D01*
X13755777Y-12014198D02*
X13765301Y-12033246D01*
X13765301Y-12033246D02*
X13765301Y-12090388D01*
X13765301Y-12090388D02*
X13755777Y-12109436D01*
X13755777Y-12109436D02*
X13746253Y-12118960D01*
X13746253Y-12118960D02*
X13727206Y-12128484D01*
X13727206Y-12128484D02*
X13698634Y-12128484D01*
X13879587Y-12128484D02*
X13860539Y-12118960D01*
X13860539Y-12118960D02*
X13851015Y-12099912D01*
X13851015Y-12099912D02*
X13851015Y-11928484D01*
X14031968Y-12118960D02*
X14012920Y-12128484D01*
X14012920Y-12128484D02*
X13974825Y-12128484D01*
X13974825Y-12128484D02*
X13955777Y-12118960D01*
X13955777Y-12118960D02*
X13946253Y-12099912D01*
X13946253Y-12099912D02*
X13946253Y-12023722D01*
X13946253Y-12023722D02*
X13955777Y-12004674D01*
X13955777Y-12004674D02*
X13974825Y-11995150D01*
X13974825Y-11995150D02*
X14012920Y-11995150D01*
X14012920Y-11995150D02*
X14031968Y-12004674D01*
X14031968Y-12004674D02*
X14041491Y-12023722D01*
X14041491Y-12023722D02*
X14041491Y-12042769D01*
X14041491Y-12042769D02*
X13946253Y-12061817D01*
X14117682Y-12118960D02*
X14136730Y-12128484D01*
X14136730Y-12128484D02*
X14174825Y-12128484D01*
X14174825Y-12128484D02*
X14193872Y-12118960D01*
X14193872Y-12118960D02*
X14203396Y-12099912D01*
X14203396Y-12099912D02*
X14203396Y-12090388D01*
X14203396Y-12090388D02*
X14193872Y-12071341D01*
X14193872Y-12071341D02*
X14174825Y-12061817D01*
X14174825Y-12061817D02*
X14146253Y-12061817D01*
X14146253Y-12061817D02*
X14127206Y-12052293D01*
X14127206Y-12052293D02*
X14117682Y-12033246D01*
X14117682Y-12033246D02*
X14117682Y-12023722D01*
X14117682Y-12023722D02*
X14127206Y-12004674D01*
X14127206Y-12004674D02*
X14146253Y-11995150D01*
X14146253Y-11995150D02*
X14174825Y-11995150D01*
X14174825Y-11995150D02*
X14193872Y-12004674D01*
X14270063Y-12204674D02*
X14279587Y-12195150D01*
X14279587Y-12195150D02*
X14298634Y-12166579D01*
X14298634Y-12166579D02*
X14308158Y-12147531D01*
X14308158Y-12147531D02*
X14317682Y-12118960D01*
X14317682Y-12118960D02*
X14327206Y-12071341D01*
X14327206Y-12071341D02*
X14327206Y-12033246D01*
X14327206Y-12033246D02*
X14317682Y-11985627D01*
X14317682Y-11985627D02*
X14308158Y-11957055D01*
X14308158Y-11957055D02*
X14298634Y-11938008D01*
X14298634Y-11938008D02*
X14279587Y-11909436D01*
X14279587Y-11909436D02*
X14270063Y-11899912D01*
D16*
X9450000Y-12346000D02*
X9495000Y-12301000D01*
X9450000Y-12256000D01*
X9405000Y-12301000D01*
X9450000Y-12346000D01*
D11*
X9793872Y-12192484D02*
X9812920Y-12192484D01*
X9812920Y-12192484D02*
X9831967Y-12202008D01*
X9831967Y-12202008D02*
X9841491Y-12211531D01*
X9841491Y-12211531D02*
X9851015Y-12230579D01*
X9851015Y-12230579D02*
X9860539Y-12268674D01*
X9860539Y-12268674D02*
X9860539Y-12316293D01*
X9860539Y-12316293D02*
X9851015Y-12354388D01*
X9851015Y-12354388D02*
X9841491Y-12373436D01*
X9841491Y-12373436D02*
X9831967Y-12382960D01*
X9831967Y-12382960D02*
X9812920Y-12392484D01*
X9812920Y-12392484D02*
X9793872Y-12392484D01*
X9793872Y-12392484D02*
X9774824Y-12382960D01*
X9774824Y-12382960D02*
X9765301Y-12373436D01*
X9765301Y-12373436D02*
X9755777Y-12354388D01*
X9755777Y-12354388D02*
X9746253Y-12316293D01*
X9746253Y-12316293D02*
X9746253Y-12268674D01*
X9746253Y-12268674D02*
X9755777Y-12230579D01*
X9755777Y-12230579D02*
X9765301Y-12211531D01*
X9765301Y-12211531D02*
X9774824Y-12202008D01*
X9774824Y-12202008D02*
X9793872Y-12192484D01*
X9946253Y-12373436D02*
X9955777Y-12382960D01*
X9955777Y-12382960D02*
X9946253Y-12392484D01*
X9946253Y-12392484D02*
X9936729Y-12382960D01*
X9936729Y-12382960D02*
X9946253Y-12373436D01*
X9946253Y-12373436D02*
X9946253Y-12392484D01*
X10051015Y-12392484D02*
X10089110Y-12392484D01*
X10089110Y-12392484D02*
X10108158Y-12382960D01*
X10108158Y-12382960D02*
X10117682Y-12373436D01*
X10117682Y-12373436D02*
X10136729Y-12344865D01*
X10136729Y-12344865D02*
X10146253Y-12306769D01*
X10146253Y-12306769D02*
X10146253Y-12230579D01*
X10146253Y-12230579D02*
X10136729Y-12211531D01*
X10136729Y-12211531D02*
X10127205Y-12202008D01*
X10127205Y-12202008D02*
X10108158Y-12192484D01*
X10108158Y-12192484D02*
X10070063Y-12192484D01*
X10070063Y-12192484D02*
X10051015Y-12202008D01*
X10051015Y-12202008D02*
X10041491Y-12211531D01*
X10041491Y-12211531D02*
X10031967Y-12230579D01*
X10031967Y-12230579D02*
X10031967Y-12278198D01*
X10031967Y-12278198D02*
X10041491Y-12297246D01*
X10041491Y-12297246D02*
X10051015Y-12306769D01*
X10051015Y-12306769D02*
X10070063Y-12316293D01*
X10070063Y-12316293D02*
X10108158Y-12316293D01*
X10108158Y-12316293D02*
X10127205Y-12306769D01*
X10127205Y-12306769D02*
X10136729Y-12297246D01*
X10136729Y-12297246D02*
X10146253Y-12278198D01*
X10270063Y-12192484D02*
X10289110Y-12192484D01*
X10289110Y-12192484D02*
X10308158Y-12202008D01*
X10308158Y-12202008D02*
X10317682Y-12211531D01*
X10317682Y-12211531D02*
X10327205Y-12230579D01*
X10327205Y-12230579D02*
X10336729Y-12268674D01*
X10336729Y-12268674D02*
X10336729Y-12316293D01*
X10336729Y-12316293D02*
X10327205Y-12354388D01*
X10327205Y-12354388D02*
X10317682Y-12373436D01*
X10317682Y-12373436D02*
X10308158Y-12382960D01*
X10308158Y-12382960D02*
X10289110Y-12392484D01*
X10289110Y-12392484D02*
X10270063Y-12392484D01*
X10270063Y-12392484D02*
X10251015Y-12382960D01*
X10251015Y-12382960D02*
X10241491Y-12373436D01*
X10241491Y-12373436D02*
X10231967Y-12354388D01*
X10231967Y-12354388D02*
X10222444Y-12316293D01*
X10222444Y-12316293D02*
X10222444Y-12268674D01*
X10222444Y-12268674D02*
X10231967Y-12230579D01*
X10231967Y-12230579D02*
X10241491Y-12211531D01*
X10241491Y-12211531D02*
X10251015Y-12202008D01*
X10251015Y-12202008D02*
X10270063Y-12192484D01*
X10460539Y-12192484D02*
X10479586Y-12192484D01*
X10479586Y-12192484D02*
X10498634Y-12202008D01*
X10498634Y-12202008D02*
X10508158Y-12211531D01*
X10508158Y-12211531D02*
X10517682Y-12230579D01*
X10517682Y-12230579D02*
X10527205Y-12268674D01*
X10527205Y-12268674D02*
X10527205Y-12316293D01*
X10527205Y-12316293D02*
X10517682Y-12354388D01*
X10517682Y-12354388D02*
X10508158Y-12373436D01*
X10508158Y-12373436D02*
X10498634Y-12382960D01*
X10498634Y-12382960D02*
X10479586Y-12392484D01*
X10479586Y-12392484D02*
X10460539Y-12392484D01*
X10460539Y-12392484D02*
X10441491Y-12382960D01*
X10441491Y-12382960D02*
X10431967Y-12373436D01*
X10431967Y-12373436D02*
X10422444Y-12354388D01*
X10422444Y-12354388D02*
X10412920Y-12316293D01*
X10412920Y-12316293D02*
X10412920Y-12268674D01*
X10412920Y-12268674D02*
X10422444Y-12230579D01*
X10422444Y-12230579D02*
X10431967Y-12211531D01*
X10431967Y-12211531D02*
X10441491Y-12202008D01*
X10441491Y-12202008D02*
X10460539Y-12192484D01*
X10612920Y-12392484D02*
X10612920Y-12259150D01*
X10612920Y-12278198D02*
X10622444Y-12268674D01*
X10622444Y-12268674D02*
X10641491Y-12259150D01*
X10641491Y-12259150D02*
X10670063Y-12259150D01*
X10670063Y-12259150D02*
X10689110Y-12268674D01*
X10689110Y-12268674D02*
X10698634Y-12287722D01*
X10698634Y-12287722D02*
X10698634Y-12392484D01*
X10698634Y-12287722D02*
X10708158Y-12268674D01*
X10708158Y-12268674D02*
X10727205Y-12259150D01*
X10727205Y-12259150D02*
X10755777Y-12259150D01*
X10755777Y-12259150D02*
X10774825Y-12268674D01*
X10774825Y-12268674D02*
X10784348Y-12287722D01*
X10784348Y-12287722D02*
X10784348Y-12392484D01*
X10879586Y-12392484D02*
X10879586Y-12259150D01*
X10879586Y-12278198D02*
X10889110Y-12268674D01*
X10889110Y-12268674D02*
X10908158Y-12259150D01*
X10908158Y-12259150D02*
X10936729Y-12259150D01*
X10936729Y-12259150D02*
X10955777Y-12268674D01*
X10955777Y-12268674D02*
X10965301Y-12287722D01*
X10965301Y-12287722D02*
X10965301Y-12392484D01*
X10965301Y-12287722D02*
X10974825Y-12268674D01*
X10974825Y-12268674D02*
X10993872Y-12259150D01*
X10993872Y-12259150D02*
X11022444Y-12259150D01*
X11022444Y-12259150D02*
X11041491Y-12268674D01*
X11041491Y-12268674D02*
X11051015Y-12287722D01*
X11051015Y-12287722D02*
X11051015Y-12392484D01*
X11441491Y-12182960D02*
X11270063Y-12440103D01*
X11698634Y-12192484D02*
X11717682Y-12192484D01*
X11717682Y-12192484D02*
X11736729Y-12202008D01*
X11736729Y-12202008D02*
X11746253Y-12211531D01*
X11746253Y-12211531D02*
X11755777Y-12230579D01*
X11755777Y-12230579D02*
X11765301Y-12268674D01*
X11765301Y-12268674D02*
X11765301Y-12316293D01*
X11765301Y-12316293D02*
X11755777Y-12354388D01*
X11755777Y-12354388D02*
X11746253Y-12373436D01*
X11746253Y-12373436D02*
X11736729Y-12382960D01*
X11736729Y-12382960D02*
X11717682Y-12392484D01*
X11717682Y-12392484D02*
X11698634Y-12392484D01*
X11698634Y-12392484D02*
X11679586Y-12382960D01*
X11679586Y-12382960D02*
X11670063Y-12373436D01*
X11670063Y-12373436D02*
X11660539Y-12354388D01*
X11660539Y-12354388D02*
X11651015Y-12316293D01*
X11651015Y-12316293D02*
X11651015Y-12268674D01*
X11651015Y-12268674D02*
X11660539Y-12230579D01*
X11660539Y-12230579D02*
X11670063Y-12211531D01*
X11670063Y-12211531D02*
X11679586Y-12202008D01*
X11679586Y-12202008D02*
X11698634Y-12192484D01*
X11851015Y-12373436D02*
X11860539Y-12382960D01*
X11860539Y-12382960D02*
X11851015Y-12392484D01*
X11851015Y-12392484D02*
X11841491Y-12382960D01*
X11841491Y-12382960D02*
X11851015Y-12373436D01*
X11851015Y-12373436D02*
X11851015Y-12392484D01*
X11984348Y-12192484D02*
X12003396Y-12192484D01*
X12003396Y-12192484D02*
X12022444Y-12202008D01*
X12022444Y-12202008D02*
X12031967Y-12211531D01*
X12031967Y-12211531D02*
X12041491Y-12230579D01*
X12041491Y-12230579D02*
X12051015Y-12268674D01*
X12051015Y-12268674D02*
X12051015Y-12316293D01*
X12051015Y-12316293D02*
X12041491Y-12354388D01*
X12041491Y-12354388D02*
X12031967Y-12373436D01*
X12031967Y-12373436D02*
X12022444Y-12382960D01*
X12022444Y-12382960D02*
X12003396Y-12392484D01*
X12003396Y-12392484D02*
X11984348Y-12392484D01*
X11984348Y-12392484D02*
X11965301Y-12382960D01*
X11965301Y-12382960D02*
X11955777Y-12373436D01*
X11955777Y-12373436D02*
X11946253Y-12354388D01*
X11946253Y-12354388D02*
X11936729Y-12316293D01*
X11936729Y-12316293D02*
X11936729Y-12268674D01*
X11936729Y-12268674D02*
X11946253Y-12230579D01*
X11946253Y-12230579D02*
X11955777Y-12211531D01*
X11955777Y-12211531D02*
X11965301Y-12202008D01*
X11965301Y-12202008D02*
X11984348Y-12192484D01*
X12117682Y-12192484D02*
X12241491Y-12192484D01*
X12241491Y-12192484D02*
X12174825Y-12268674D01*
X12174825Y-12268674D02*
X12203396Y-12268674D01*
X12203396Y-12268674D02*
X12222444Y-12278198D01*
X12222444Y-12278198D02*
X12231967Y-12287722D01*
X12231967Y-12287722D02*
X12241491Y-12306769D01*
X12241491Y-12306769D02*
X12241491Y-12354388D01*
X12241491Y-12354388D02*
X12231967Y-12373436D01*
X12231967Y-12373436D02*
X12222444Y-12382960D01*
X12222444Y-12382960D02*
X12203396Y-12392484D01*
X12203396Y-12392484D02*
X12146253Y-12392484D01*
X12146253Y-12392484D02*
X12127206Y-12382960D01*
X12127206Y-12382960D02*
X12117682Y-12373436D01*
X12422444Y-12192484D02*
X12327206Y-12192484D01*
X12327206Y-12192484D02*
X12317682Y-12287722D01*
X12317682Y-12287722D02*
X12327206Y-12278198D01*
X12327206Y-12278198D02*
X12346253Y-12268674D01*
X12346253Y-12268674D02*
X12393872Y-12268674D01*
X12393872Y-12268674D02*
X12412920Y-12278198D01*
X12412920Y-12278198D02*
X12422444Y-12287722D01*
X12422444Y-12287722D02*
X12431967Y-12306769D01*
X12431967Y-12306769D02*
X12431967Y-12354388D01*
X12431967Y-12354388D02*
X12422444Y-12373436D01*
X12422444Y-12373436D02*
X12412920Y-12382960D01*
X12412920Y-12382960D02*
X12393872Y-12392484D01*
X12393872Y-12392484D02*
X12346253Y-12392484D01*
X12346253Y-12392484D02*
X12327206Y-12382960D01*
X12327206Y-12382960D02*
X12317682Y-12373436D01*
X12603396Y-12259150D02*
X12603396Y-12392484D01*
X12555777Y-12182960D02*
X12508158Y-12325817D01*
X12508158Y-12325817D02*
X12631967Y-12325817D01*
X12698634Y-12192484D02*
X12698634Y-12230579D01*
X12774825Y-12192484D02*
X12774825Y-12230579D01*
X13070063Y-12468674D02*
X13060539Y-12459150D01*
X13060539Y-12459150D02*
X13041491Y-12430579D01*
X13041491Y-12430579D02*
X13031968Y-12411531D01*
X13031968Y-12411531D02*
X13022444Y-12382960D01*
X13022444Y-12382960D02*
X13012920Y-12335341D01*
X13012920Y-12335341D02*
X13012920Y-12297246D01*
X13012920Y-12297246D02*
X13022444Y-12249627D01*
X13022444Y-12249627D02*
X13031968Y-12221055D01*
X13031968Y-12221055D02*
X13041491Y-12202008D01*
X13041491Y-12202008D02*
X13060539Y-12173436D01*
X13060539Y-12173436D02*
X13070063Y-12163912D01*
X13251015Y-12392484D02*
X13136729Y-12392484D01*
X13193872Y-12392484D02*
X13193872Y-12192484D01*
X13193872Y-12192484D02*
X13174825Y-12221055D01*
X13174825Y-12221055D02*
X13155777Y-12240103D01*
X13155777Y-12240103D02*
X13136729Y-12249627D01*
X13346253Y-12392484D02*
X13384348Y-12392484D01*
X13384348Y-12392484D02*
X13403396Y-12382960D01*
X13403396Y-12382960D02*
X13412920Y-12373436D01*
X13412920Y-12373436D02*
X13431968Y-12344865D01*
X13431968Y-12344865D02*
X13441491Y-12306769D01*
X13441491Y-12306769D02*
X13441491Y-12230579D01*
X13441491Y-12230579D02*
X13431968Y-12211531D01*
X13431968Y-12211531D02*
X13422444Y-12202008D01*
X13422444Y-12202008D02*
X13403396Y-12192484D01*
X13403396Y-12192484D02*
X13365301Y-12192484D01*
X13365301Y-12192484D02*
X13346253Y-12202008D01*
X13346253Y-12202008D02*
X13336729Y-12211531D01*
X13336729Y-12211531D02*
X13327206Y-12230579D01*
X13327206Y-12230579D02*
X13327206Y-12278198D01*
X13327206Y-12278198D02*
X13336729Y-12297246D01*
X13336729Y-12297246D02*
X13346253Y-12306769D01*
X13346253Y-12306769D02*
X13365301Y-12316293D01*
X13365301Y-12316293D02*
X13403396Y-12316293D01*
X13403396Y-12316293D02*
X13422444Y-12306769D01*
X13422444Y-12306769D02*
X13431968Y-12297246D01*
X13431968Y-12297246D02*
X13441491Y-12278198D01*
X13679587Y-12392484D02*
X13679587Y-12192484D01*
X13765301Y-12392484D02*
X13765301Y-12287722D01*
X13765301Y-12287722D02*
X13755777Y-12268674D01*
X13755777Y-12268674D02*
X13736730Y-12259150D01*
X13736730Y-12259150D02*
X13708158Y-12259150D01*
X13708158Y-12259150D02*
X13689110Y-12268674D01*
X13689110Y-12268674D02*
X13679587Y-12278198D01*
X13889110Y-12392484D02*
X13870063Y-12382960D01*
X13870063Y-12382960D02*
X13860539Y-12373436D01*
X13860539Y-12373436D02*
X13851015Y-12354388D01*
X13851015Y-12354388D02*
X13851015Y-12297246D01*
X13851015Y-12297246D02*
X13860539Y-12278198D01*
X13860539Y-12278198D02*
X13870063Y-12268674D01*
X13870063Y-12268674D02*
X13889110Y-12259150D01*
X13889110Y-12259150D02*
X13917682Y-12259150D01*
X13917682Y-12259150D02*
X13936730Y-12268674D01*
X13936730Y-12268674D02*
X13946253Y-12278198D01*
X13946253Y-12278198D02*
X13955777Y-12297246D01*
X13955777Y-12297246D02*
X13955777Y-12354388D01*
X13955777Y-12354388D02*
X13946253Y-12373436D01*
X13946253Y-12373436D02*
X13936730Y-12382960D01*
X13936730Y-12382960D02*
X13917682Y-12392484D01*
X13917682Y-12392484D02*
X13889110Y-12392484D01*
X14070063Y-12392484D02*
X14051015Y-12382960D01*
X14051015Y-12382960D02*
X14041491Y-12363912D01*
X14041491Y-12363912D02*
X14041491Y-12192484D01*
X14222444Y-12382960D02*
X14203396Y-12392484D01*
X14203396Y-12392484D02*
X14165301Y-12392484D01*
X14165301Y-12392484D02*
X14146253Y-12382960D01*
X14146253Y-12382960D02*
X14136730Y-12363912D01*
X14136730Y-12363912D02*
X14136730Y-12287722D01*
X14136730Y-12287722D02*
X14146253Y-12268674D01*
X14146253Y-12268674D02*
X14165301Y-12259150D01*
X14165301Y-12259150D02*
X14203396Y-12259150D01*
X14203396Y-12259150D02*
X14222444Y-12268674D01*
X14222444Y-12268674D02*
X14231968Y-12287722D01*
X14231968Y-12287722D02*
X14231968Y-12306769D01*
X14231968Y-12306769D02*
X14136730Y-12325817D01*
X14308158Y-12382960D02*
X14327206Y-12392484D01*
X14327206Y-12392484D02*
X14365301Y-12392484D01*
X14365301Y-12392484D02*
X14384349Y-12382960D01*
X14384349Y-12382960D02*
X14393872Y-12363912D01*
X14393872Y-12363912D02*
X14393872Y-12354388D01*
X14393872Y-12354388D02*
X14384349Y-12335341D01*
X14384349Y-12335341D02*
X14365301Y-12325817D01*
X14365301Y-12325817D02*
X14336730Y-12325817D01*
X14336730Y-12325817D02*
X14317682Y-12316293D01*
X14317682Y-12316293D02*
X14308158Y-12297246D01*
X14308158Y-12297246D02*
X14308158Y-12287722D01*
X14308158Y-12287722D02*
X14317682Y-12268674D01*
X14317682Y-12268674D02*
X14336730Y-12259150D01*
X14336730Y-12259150D02*
X14365301Y-12259150D01*
X14365301Y-12259150D02*
X14384349Y-12268674D01*
X14460539Y-12468674D02*
X14470063Y-12459150D01*
X14470063Y-12459150D02*
X14489111Y-12430579D01*
X14489111Y-12430579D02*
X14498634Y-12411531D01*
X14498634Y-12411531D02*
X14508158Y-12382960D01*
X14508158Y-12382960D02*
X14517682Y-12335341D01*
X14517682Y-12335341D02*
X14517682Y-12297246D01*
X14517682Y-12297246D02*
X14508158Y-12249627D01*
X14508158Y-12249627D02*
X14498634Y-12221055D01*
X14498634Y-12221055D02*
X14489111Y-12202008D01*
X14489111Y-12202008D02*
X14470063Y-12173436D01*
X14470063Y-12173436D02*
X14460539Y-12163912D01*
D10*
X9395000Y-12515000D02*
X9495000Y-12615000D01*
X9495000Y-12515000D02*
X9395000Y-12615000D01*
X9495000Y-12565000D02*
G75*
G03*
X9495000Y-12565000I-50000J0D01*
G01*
D11*
X9860539Y-12656484D02*
X9746253Y-12656484D01*
X9803396Y-12656484D02*
X9803396Y-12456484D01*
X9803396Y-12456484D02*
X9784348Y-12485055D01*
X9784348Y-12485055D02*
X9765301Y-12504103D01*
X9765301Y-12504103D02*
X9746253Y-12513627D01*
X9946253Y-12637436D02*
X9955777Y-12646960D01*
X9955777Y-12646960D02*
X9946253Y-12656484D01*
X9946253Y-12656484D02*
X9936729Y-12646960D01*
X9936729Y-12646960D02*
X9946253Y-12637436D01*
X9946253Y-12637436D02*
X9946253Y-12656484D01*
X10079586Y-12456484D02*
X10098634Y-12456484D01*
X10098634Y-12456484D02*
X10117682Y-12466008D01*
X10117682Y-12466008D02*
X10127205Y-12475531D01*
X10127205Y-12475531D02*
X10136729Y-12494579D01*
X10136729Y-12494579D02*
X10146253Y-12532674D01*
X10146253Y-12532674D02*
X10146253Y-12580293D01*
X10146253Y-12580293D02*
X10136729Y-12618388D01*
X10136729Y-12618388D02*
X10127205Y-12637436D01*
X10127205Y-12637436D02*
X10117682Y-12646960D01*
X10117682Y-12646960D02*
X10098634Y-12656484D01*
X10098634Y-12656484D02*
X10079586Y-12656484D01*
X10079586Y-12656484D02*
X10060539Y-12646960D01*
X10060539Y-12646960D02*
X10051015Y-12637436D01*
X10051015Y-12637436D02*
X10041491Y-12618388D01*
X10041491Y-12618388D02*
X10031967Y-12580293D01*
X10031967Y-12580293D02*
X10031967Y-12532674D01*
X10031967Y-12532674D02*
X10041491Y-12494579D01*
X10041491Y-12494579D02*
X10051015Y-12475531D01*
X10051015Y-12475531D02*
X10060539Y-12466008D01*
X10060539Y-12466008D02*
X10079586Y-12456484D01*
X10270063Y-12456484D02*
X10289110Y-12456484D01*
X10289110Y-12456484D02*
X10308158Y-12466008D01*
X10308158Y-12466008D02*
X10317682Y-12475531D01*
X10317682Y-12475531D02*
X10327205Y-12494579D01*
X10327205Y-12494579D02*
X10336729Y-12532674D01*
X10336729Y-12532674D02*
X10336729Y-12580293D01*
X10336729Y-12580293D02*
X10327205Y-12618388D01*
X10327205Y-12618388D02*
X10317682Y-12637436D01*
X10317682Y-12637436D02*
X10308158Y-12646960D01*
X10308158Y-12646960D02*
X10289110Y-12656484D01*
X10289110Y-12656484D02*
X10270063Y-12656484D01*
X10270063Y-12656484D02*
X10251015Y-12646960D01*
X10251015Y-12646960D02*
X10241491Y-12637436D01*
X10241491Y-12637436D02*
X10231967Y-12618388D01*
X10231967Y-12618388D02*
X10222444Y-12580293D01*
X10222444Y-12580293D02*
X10222444Y-12532674D01*
X10222444Y-12532674D02*
X10231967Y-12494579D01*
X10231967Y-12494579D02*
X10241491Y-12475531D01*
X10241491Y-12475531D02*
X10251015Y-12466008D01*
X10251015Y-12466008D02*
X10270063Y-12456484D01*
X10460539Y-12456484D02*
X10479586Y-12456484D01*
X10479586Y-12456484D02*
X10498634Y-12466008D01*
X10498634Y-12466008D02*
X10508158Y-12475531D01*
X10508158Y-12475531D02*
X10517682Y-12494579D01*
X10517682Y-12494579D02*
X10527205Y-12532674D01*
X10527205Y-12532674D02*
X10527205Y-12580293D01*
X10527205Y-12580293D02*
X10517682Y-12618388D01*
X10517682Y-12618388D02*
X10508158Y-12637436D01*
X10508158Y-12637436D02*
X10498634Y-12646960D01*
X10498634Y-12646960D02*
X10479586Y-12656484D01*
X10479586Y-12656484D02*
X10460539Y-12656484D01*
X10460539Y-12656484D02*
X10441491Y-12646960D01*
X10441491Y-12646960D02*
X10431967Y-12637436D01*
X10431967Y-12637436D02*
X10422444Y-12618388D01*
X10422444Y-12618388D02*
X10412920Y-12580293D01*
X10412920Y-12580293D02*
X10412920Y-12532674D01*
X10412920Y-12532674D02*
X10422444Y-12494579D01*
X10422444Y-12494579D02*
X10431967Y-12475531D01*
X10431967Y-12475531D02*
X10441491Y-12466008D01*
X10441491Y-12466008D02*
X10460539Y-12456484D01*
X10612920Y-12656484D02*
X10612920Y-12523150D01*
X10612920Y-12542198D02*
X10622444Y-12532674D01*
X10622444Y-12532674D02*
X10641491Y-12523150D01*
X10641491Y-12523150D02*
X10670063Y-12523150D01*
X10670063Y-12523150D02*
X10689110Y-12532674D01*
X10689110Y-12532674D02*
X10698634Y-12551722D01*
X10698634Y-12551722D02*
X10698634Y-12656484D01*
X10698634Y-12551722D02*
X10708158Y-12532674D01*
X10708158Y-12532674D02*
X10727205Y-12523150D01*
X10727205Y-12523150D02*
X10755777Y-12523150D01*
X10755777Y-12523150D02*
X10774825Y-12532674D01*
X10774825Y-12532674D02*
X10784348Y-12551722D01*
X10784348Y-12551722D02*
X10784348Y-12656484D01*
X10879586Y-12656484D02*
X10879586Y-12523150D01*
X10879586Y-12542198D02*
X10889110Y-12532674D01*
X10889110Y-12532674D02*
X10908158Y-12523150D01*
X10908158Y-12523150D02*
X10936729Y-12523150D01*
X10936729Y-12523150D02*
X10955777Y-12532674D01*
X10955777Y-12532674D02*
X10965301Y-12551722D01*
X10965301Y-12551722D02*
X10965301Y-12656484D01*
X10965301Y-12551722D02*
X10974825Y-12532674D01*
X10974825Y-12532674D02*
X10993872Y-12523150D01*
X10993872Y-12523150D02*
X11022444Y-12523150D01*
X11022444Y-12523150D02*
X11041491Y-12532674D01*
X11041491Y-12532674D02*
X11051015Y-12551722D01*
X11051015Y-12551722D02*
X11051015Y-12656484D01*
X11441491Y-12446960D02*
X11270063Y-12704103D01*
X11698634Y-12456484D02*
X11717682Y-12456484D01*
X11717682Y-12456484D02*
X11736729Y-12466008D01*
X11736729Y-12466008D02*
X11746253Y-12475531D01*
X11746253Y-12475531D02*
X11755777Y-12494579D01*
X11755777Y-12494579D02*
X11765301Y-12532674D01*
X11765301Y-12532674D02*
X11765301Y-12580293D01*
X11765301Y-12580293D02*
X11755777Y-12618388D01*
X11755777Y-12618388D02*
X11746253Y-12637436D01*
X11746253Y-12637436D02*
X11736729Y-12646960D01*
X11736729Y-12646960D02*
X11717682Y-12656484D01*
X11717682Y-12656484D02*
X11698634Y-12656484D01*
X11698634Y-12656484D02*
X11679586Y-12646960D01*
X11679586Y-12646960D02*
X11670063Y-12637436D01*
X11670063Y-12637436D02*
X11660539Y-12618388D01*
X11660539Y-12618388D02*
X11651015Y-12580293D01*
X11651015Y-12580293D02*
X11651015Y-12532674D01*
X11651015Y-12532674D02*
X11660539Y-12494579D01*
X11660539Y-12494579D02*
X11670063Y-12475531D01*
X11670063Y-12475531D02*
X11679586Y-12466008D01*
X11679586Y-12466008D02*
X11698634Y-12456484D01*
X11851015Y-12637436D02*
X11860539Y-12646960D01*
X11860539Y-12646960D02*
X11851015Y-12656484D01*
X11851015Y-12656484D02*
X11841491Y-12646960D01*
X11841491Y-12646960D02*
X11851015Y-12637436D01*
X11851015Y-12637436D02*
X11851015Y-12656484D01*
X11984348Y-12456484D02*
X12003396Y-12456484D01*
X12003396Y-12456484D02*
X12022444Y-12466008D01*
X12022444Y-12466008D02*
X12031967Y-12475531D01*
X12031967Y-12475531D02*
X12041491Y-12494579D01*
X12041491Y-12494579D02*
X12051015Y-12532674D01*
X12051015Y-12532674D02*
X12051015Y-12580293D01*
X12051015Y-12580293D02*
X12041491Y-12618388D01*
X12041491Y-12618388D02*
X12031967Y-12637436D01*
X12031967Y-12637436D02*
X12022444Y-12646960D01*
X12022444Y-12646960D02*
X12003396Y-12656484D01*
X12003396Y-12656484D02*
X11984348Y-12656484D01*
X11984348Y-12656484D02*
X11965301Y-12646960D01*
X11965301Y-12646960D02*
X11955777Y-12637436D01*
X11955777Y-12637436D02*
X11946253Y-12618388D01*
X11946253Y-12618388D02*
X11936729Y-12580293D01*
X11936729Y-12580293D02*
X11936729Y-12532674D01*
X11936729Y-12532674D02*
X11946253Y-12494579D01*
X11946253Y-12494579D02*
X11955777Y-12475531D01*
X11955777Y-12475531D02*
X11965301Y-12466008D01*
X11965301Y-12466008D02*
X11984348Y-12456484D01*
X12117682Y-12456484D02*
X12241491Y-12456484D01*
X12241491Y-12456484D02*
X12174825Y-12532674D01*
X12174825Y-12532674D02*
X12203396Y-12532674D01*
X12203396Y-12532674D02*
X12222444Y-12542198D01*
X12222444Y-12542198D02*
X12231967Y-12551722D01*
X12231967Y-12551722D02*
X12241491Y-12570769D01*
X12241491Y-12570769D02*
X12241491Y-12618388D01*
X12241491Y-12618388D02*
X12231967Y-12637436D01*
X12231967Y-12637436D02*
X12222444Y-12646960D01*
X12222444Y-12646960D02*
X12203396Y-12656484D01*
X12203396Y-12656484D02*
X12146253Y-12656484D01*
X12146253Y-12656484D02*
X12127206Y-12646960D01*
X12127206Y-12646960D02*
X12117682Y-12637436D01*
X12336729Y-12656484D02*
X12374825Y-12656484D01*
X12374825Y-12656484D02*
X12393872Y-12646960D01*
X12393872Y-12646960D02*
X12403396Y-12637436D01*
X12403396Y-12637436D02*
X12422444Y-12608865D01*
X12422444Y-12608865D02*
X12431967Y-12570769D01*
X12431967Y-12570769D02*
X12431967Y-12494579D01*
X12431967Y-12494579D02*
X12422444Y-12475531D01*
X12422444Y-12475531D02*
X12412920Y-12466008D01*
X12412920Y-12466008D02*
X12393872Y-12456484D01*
X12393872Y-12456484D02*
X12355777Y-12456484D01*
X12355777Y-12456484D02*
X12336729Y-12466008D01*
X12336729Y-12466008D02*
X12327206Y-12475531D01*
X12327206Y-12475531D02*
X12317682Y-12494579D01*
X12317682Y-12494579D02*
X12317682Y-12542198D01*
X12317682Y-12542198D02*
X12327206Y-12561246D01*
X12327206Y-12561246D02*
X12336729Y-12570769D01*
X12336729Y-12570769D02*
X12355777Y-12580293D01*
X12355777Y-12580293D02*
X12393872Y-12580293D01*
X12393872Y-12580293D02*
X12412920Y-12570769D01*
X12412920Y-12570769D02*
X12422444Y-12561246D01*
X12422444Y-12561246D02*
X12431967Y-12542198D01*
X12603396Y-12523150D02*
X12603396Y-12656484D01*
X12555777Y-12446960D02*
X12508158Y-12589817D01*
X12508158Y-12589817D02*
X12631967Y-12589817D01*
X12698634Y-12456484D02*
X12698634Y-12494579D01*
X12774825Y-12456484D02*
X12774825Y-12494579D01*
X13070063Y-12732674D02*
X13060539Y-12723150D01*
X13060539Y-12723150D02*
X13041491Y-12694579D01*
X13041491Y-12694579D02*
X13031968Y-12675531D01*
X13031968Y-12675531D02*
X13022444Y-12646960D01*
X13022444Y-12646960D02*
X13012920Y-12599341D01*
X13012920Y-12599341D02*
X13012920Y-12561246D01*
X13012920Y-12561246D02*
X13022444Y-12513627D01*
X13022444Y-12513627D02*
X13031968Y-12485055D01*
X13031968Y-12485055D02*
X13041491Y-12466008D01*
X13041491Y-12466008D02*
X13060539Y-12437436D01*
X13060539Y-12437436D02*
X13070063Y-12427912D01*
X13251015Y-12656484D02*
X13136729Y-12656484D01*
X13193872Y-12656484D02*
X13193872Y-12456484D01*
X13193872Y-12456484D02*
X13174825Y-12485055D01*
X13174825Y-12485055D02*
X13155777Y-12504103D01*
X13155777Y-12504103D02*
X13136729Y-12513627D01*
X13365301Y-12542198D02*
X13346253Y-12532674D01*
X13346253Y-12532674D02*
X13336729Y-12523150D01*
X13336729Y-12523150D02*
X13327206Y-12504103D01*
X13327206Y-12504103D02*
X13327206Y-12494579D01*
X13327206Y-12494579D02*
X13336729Y-12475531D01*
X13336729Y-12475531D02*
X13346253Y-12466008D01*
X13346253Y-12466008D02*
X13365301Y-12456484D01*
X13365301Y-12456484D02*
X13403396Y-12456484D01*
X13403396Y-12456484D02*
X13422444Y-12466008D01*
X13422444Y-12466008D02*
X13431968Y-12475531D01*
X13431968Y-12475531D02*
X13441491Y-12494579D01*
X13441491Y-12494579D02*
X13441491Y-12504103D01*
X13441491Y-12504103D02*
X13431968Y-12523150D01*
X13431968Y-12523150D02*
X13422444Y-12532674D01*
X13422444Y-12532674D02*
X13403396Y-12542198D01*
X13403396Y-12542198D02*
X13365301Y-12542198D01*
X13365301Y-12542198D02*
X13346253Y-12551722D01*
X13346253Y-12551722D02*
X13336729Y-12561246D01*
X13336729Y-12561246D02*
X13327206Y-12580293D01*
X13327206Y-12580293D02*
X13327206Y-12618388D01*
X13327206Y-12618388D02*
X13336729Y-12637436D01*
X13336729Y-12637436D02*
X13346253Y-12646960D01*
X13346253Y-12646960D02*
X13365301Y-12656484D01*
X13365301Y-12656484D02*
X13403396Y-12656484D01*
X13403396Y-12656484D02*
X13422444Y-12646960D01*
X13422444Y-12646960D02*
X13431968Y-12637436D01*
X13431968Y-12637436D02*
X13441491Y-12618388D01*
X13441491Y-12618388D02*
X13441491Y-12580293D01*
X13441491Y-12580293D02*
X13431968Y-12561246D01*
X13431968Y-12561246D02*
X13422444Y-12551722D01*
X13422444Y-12551722D02*
X13403396Y-12542198D01*
X13679587Y-12656484D02*
X13679587Y-12456484D01*
X13765301Y-12656484D02*
X13765301Y-12551722D01*
X13765301Y-12551722D02*
X13755777Y-12532674D01*
X13755777Y-12532674D02*
X13736730Y-12523150D01*
X13736730Y-12523150D02*
X13708158Y-12523150D01*
X13708158Y-12523150D02*
X13689110Y-12532674D01*
X13689110Y-12532674D02*
X13679587Y-12542198D01*
X13889110Y-12656484D02*
X13870063Y-12646960D01*
X13870063Y-12646960D02*
X13860539Y-12637436D01*
X13860539Y-12637436D02*
X13851015Y-12618388D01*
X13851015Y-12618388D02*
X13851015Y-12561246D01*
X13851015Y-12561246D02*
X13860539Y-12542198D01*
X13860539Y-12542198D02*
X13870063Y-12532674D01*
X13870063Y-12532674D02*
X13889110Y-12523150D01*
X13889110Y-12523150D02*
X13917682Y-12523150D01*
X13917682Y-12523150D02*
X13936730Y-12532674D01*
X13936730Y-12532674D02*
X13946253Y-12542198D01*
X13946253Y-12542198D02*
X13955777Y-12561246D01*
X13955777Y-12561246D02*
X13955777Y-12618388D01*
X13955777Y-12618388D02*
X13946253Y-12637436D01*
X13946253Y-12637436D02*
X13936730Y-12646960D01*
X13936730Y-12646960D02*
X13917682Y-12656484D01*
X13917682Y-12656484D02*
X13889110Y-12656484D01*
X14070063Y-12656484D02*
X14051015Y-12646960D01*
X14051015Y-12646960D02*
X14041491Y-12627912D01*
X14041491Y-12627912D02*
X14041491Y-12456484D01*
X14222444Y-12646960D02*
X14203396Y-12656484D01*
X14203396Y-12656484D02*
X14165301Y-12656484D01*
X14165301Y-12656484D02*
X14146253Y-12646960D01*
X14146253Y-12646960D02*
X14136730Y-12627912D01*
X14136730Y-12627912D02*
X14136730Y-12551722D01*
X14136730Y-12551722D02*
X14146253Y-12532674D01*
X14146253Y-12532674D02*
X14165301Y-12523150D01*
X14165301Y-12523150D02*
X14203396Y-12523150D01*
X14203396Y-12523150D02*
X14222444Y-12532674D01*
X14222444Y-12532674D02*
X14231968Y-12551722D01*
X14231968Y-12551722D02*
X14231968Y-12570769D01*
X14231968Y-12570769D02*
X14136730Y-12589817D01*
X14308158Y-12646960D02*
X14327206Y-12656484D01*
X14327206Y-12656484D02*
X14365301Y-12656484D01*
X14365301Y-12656484D02*
X14384349Y-12646960D01*
X14384349Y-12646960D02*
X14393872Y-12627912D01*
X14393872Y-12627912D02*
X14393872Y-12618388D01*
X14393872Y-12618388D02*
X14384349Y-12599341D01*
X14384349Y-12599341D02*
X14365301Y-12589817D01*
X14365301Y-12589817D02*
X14336730Y-12589817D01*
X14336730Y-12589817D02*
X14317682Y-12580293D01*
X14317682Y-12580293D02*
X14308158Y-12561246D01*
X14308158Y-12561246D02*
X14308158Y-12551722D01*
X14308158Y-12551722D02*
X14317682Y-12532674D01*
X14317682Y-12532674D02*
X14336730Y-12523150D01*
X14336730Y-12523150D02*
X14365301Y-12523150D01*
X14365301Y-12523150D02*
X14384349Y-12532674D01*
X14460539Y-12732674D02*
X14470063Y-12723150D01*
X14470063Y-12723150D02*
X14489111Y-12694579D01*
X14489111Y-12694579D02*
X14498634Y-12675531D01*
X14498634Y-12675531D02*
X14508158Y-12646960D01*
X14508158Y-12646960D02*
X14517682Y-12599341D01*
X14517682Y-12599341D02*
X14517682Y-12561246D01*
X14517682Y-12561246D02*
X14508158Y-12513627D01*
X14508158Y-12513627D02*
X14498634Y-12485055D01*
X14498634Y-12485055D02*
X14489111Y-12466008D01*
X14489111Y-12466008D02*
X14470063Y-12437436D01*
X14470063Y-12437436D02*
X14460539Y-12427912D01*
M02*
