%TF.GenerationSoftware,KiCad,Pcbnew,7.0.7*%
%TF.CreationDate,2023-09-16T13:59:36+03:00*%
%TF.ProjectId,ElectraWifi,456c6563-7472-4615-9769-66692e6b6963,rev?*%
%TF.SameCoordinates,Original*%
%TF.FileFunction,Soldermask,Bot*%
%TF.FilePolarity,Negative*%
%FSLAX46Y46*%
G04 Gerber Fmt 4.6, Leading zero omitted, Abs format (unit mm)*
G04 Created by KiCad (PCBNEW 7.0.7) date 2023-09-16 13:59:36*
%MOMM*%
%LPD*%
G01*
G04 APERTURE LIST*
G04 Aperture macros list*
%AMRoundRect*
0 Rectangle with rounded corners*
0 $1 Rounding radius*
0 $2 $3 $4 $5 $6 $7 $8 $9 X,Y pos of 4 corners*
0 Add a 4 corners polygon primitive as box body*
4,1,4,$2,$3,$4,$5,$6,$7,$8,$9,$2,$3,0*
0 Add four circle primitives for the rounded corners*
1,1,$1+$1,$2,$3*
1,1,$1+$1,$4,$5*
1,1,$1+$1,$6,$7*
1,1,$1+$1,$8,$9*
0 Add four rect primitives between the rounded corners*
20,1,$1+$1,$2,$3,$4,$5,0*
20,1,$1+$1,$4,$5,$6,$7,0*
20,1,$1+$1,$6,$7,$8,$9,0*
20,1,$1+$1,$8,$9,$2,$3,0*%
G04 Aperture macros list end*
%ADD10R,1.408000X1.408000*%
%ADD11C,1.408000*%
%ADD12O,1.230000X2.730000*%
%ADD13O,2.730000X1.230000*%
%ADD14O,1.600000X2.000000*%
%ADD15R,2.000000X2.000000*%
%ADD16R,1.800000X1.800000*%
%ADD17C,1.800000*%
%ADD18O,1.050000X1.500000*%
%ADD19R,1.050000X1.500000*%
%ADD20RoundRect,0.248400X0.651600X-0.651600X0.651600X0.651600X-0.651600X0.651600X-0.651600X-0.651600X0*%
%ADD21C,2.000000*%
%ADD22C,1.600000*%
%ADD23O,1.600000X1.600000*%
G04 APERTURE END LIST*
D10*
%TO.C,J1*%
X157848000Y-78300000D03*
D11*
X157848000Y-80900000D03*
X157848000Y-76200000D03*
X160348000Y-78300000D03*
X157848000Y-83000000D03*
X160348000Y-76200000D03*
X160348000Y-80500000D03*
X160348000Y-83000000D03*
D12*
X154048000Y-79600000D03*
D13*
X154848000Y-86350000D03*
X154848000Y-72850000D03*
%TD*%
D14*
%TO.C,U1*%
X114762000Y-73685000D03*
X117302000Y-73685000D03*
X119842000Y-73685000D03*
X122382000Y-73685000D03*
X124922000Y-73685000D03*
X127462000Y-73685000D03*
X130002000Y-73685000D03*
X132542000Y-73685000D03*
X132542000Y-96545000D03*
X130002000Y-96545000D03*
X127462000Y-96545000D03*
X124922000Y-96545000D03*
X122382000Y-96545000D03*
X119842000Y-96545000D03*
X117302000Y-96545000D03*
D15*
X114762000Y-96545000D03*
%TD*%
D16*
%TO.C,D2*%
X139275000Y-101500000D03*
D17*
X136735000Y-101500000D03*
%TD*%
D18*
%TO.C,Q1*%
X156730000Y-89640000D03*
X158000000Y-89640000D03*
D19*
X159270000Y-89640000D03*
%TD*%
D20*
%TO.C,U2*%
X143337000Y-81140000D03*
D17*
X143337000Y-78600000D03*
X143337000Y-76060000D03*
%TD*%
D16*
%TO.C,D3*%
X123275000Y-101500000D03*
D17*
X120735000Y-101500000D03*
%TD*%
D16*
%TO.C,D1*%
X147275000Y-101500000D03*
D17*
X144735000Y-101500000D03*
%TD*%
D16*
%TO.C,D4*%
X115275000Y-101500000D03*
D17*
X112735000Y-101500000D03*
%TD*%
D21*
%TO.C,BZ1*%
X148800000Y-93500000D03*
D15*
X141200000Y-93500000D03*
%TD*%
D22*
%TO.C,R4*%
X136810000Y-92500000D03*
D23*
X129190000Y-92500000D03*
%TD*%
D22*
%TO.C,R2*%
X136810000Y-88500000D03*
D23*
X129190000Y-88500000D03*
%TD*%
%TO.C,R1*%
X116690000Y-88500000D03*
D22*
X124310000Y-88500000D03*
%TD*%
%TO.C,R3*%
X124310000Y-92500000D03*
D23*
X116690000Y-92500000D03*
%TD*%
M02*
